<?xml version="1.0" encoding="utf-8" standalone="no"?>
<!DOCTYPE svg PUBLIC "-//W3C//DTD SVG 1.1//EN"
  "http://www.w3.org/Graphics/SVG/1.1/DTD/svg11.dtd">
<!-- Created with matplotlib (http://matplotlib.org/) -->
<svg height="432pt" version="1.1" viewBox="0 0 576 432" width="576pt" xmlns="http://www.w3.org/2000/svg" xmlns:xlink="http://www.w3.org/1999/xlink">
 <defs>
  <style type="text/css">
*{stroke-linecap:butt;stroke-linejoin:round;stroke-miterlimit:100000;}
  </style>
 </defs>
 <g id="figure_1">
  <g id="patch_1">
   <path d="M 0 432 
L 576 432 
L 576 0 
L 0 0 
z
" style="fill:#ffffff;"/>
  </g>
  <g id="axes_1">
   <g id="patch_2">
    <path d="M 72 388.8 
L 429.12 388.8 
L 429.12 43.2 
L 72 43.2 
z
" style="fill:#ffffff;"/>
   </g>
   <g id="PathCollection_1">
    <path clip-path="url(#p5022565236)" d="M 425.5488 177.922673 
L 425.448433 177.984 
L 421.9776 180.138456 
L 419.880168 181.44 
L 418.4064 182.373092 
L 414.8352 184.638603 
L 414.435926 184.896 
L 411.264 186.982751 
L 409.185111 188.352 
L 407.6928 189.359331 
L 404.1216 191.773142 
L 404.071131 191.808 
L 400.5504 194.299383 
L 399.194425 195.264 
L 396.9792 196.884806 
L 394.48579 198.72 
L 393.408 199.538881 
L 389.963016 202.176 
L 389.8368 202.276048 
L 386.2656 205.162803 
L 385.694712 205.632 
L 382.6944 208.182119 
L 381.647559 209.088 
L 379.1232 211.352724 
L 377.824506 212.544 
L 375.552 214.710062 
L 374.23527 216 
L 371.9808 218.297934 
L 370.88209 219.456 
L 368.4096 222.170905 
L 367.761387 222.912 
L 364.862902 226.368 
L 364.8384 226.399039 
L 362.269167 229.824 
L 361.2672 231.222058 
L 359.877981 233.28 
L 357.696 236.661342 
L 357.651041 236.736 
L 355.739033 240.192 
L 354.1248 243.257007 
L 353.935185 243.648 
L 352.411774 247.104 
L 350.988333 250.56 
L 350.5536 251.728983 
L 349.783509 254.016 
L 348.734322 257.472 
L 347.791568 260.928 
L 346.9824 264.282557 
L 346.960573 264.384 
L 346.326583 267.84 
L 345.785606 271.296 
L 345.335311 274.752 
L 344.972828 278.208 
L 344.694241 281.664 
L 344.495463 285.12 
L 344.371685 288.576 
L 344.318382 292.032 
L 344.330535 295.488 
L 344.403434 298.944 
L 344.532071 302.4 
L 344.712342 305.856 
L 344.939229 309.312 
L 345.208851 312.768 
L 345.517711 316.224 
L 345.861428 319.68 
L 346.237325 323.136 
L 346.641923 326.592 
L 346.9824 329.324177 
L 347.082927 330.048 
L 347.589409 333.504 
L 348.117318 336.96 
L 348.665106 340.416 
L 349.229886 343.872 
L 349.810108 347.328 
L 350.404105 350.784 
L 350.5536 351.635134 
L 351.055437 354.24 
L 351.731441 357.696 
L 352.415975 361.152 
L 353.10842 364.608 
L 353.807816 368.064 
L 354.1248 369.616966 
L 354.546008 371.52 
L 355.314238 374.976 
L 356.086236 378.432 
L 356.8609 381.888 
L 357.638346 385.344 
L 357.696 385.600342 
L 358.468765 388.8 
L 361.2672 388.8 
L 364.8384 388.8 
L 368.4096 388.8 
L 371.9808 388.8 
L 375.552 388.8 
L 379.1232 388.8 
L 382.6944 388.8 
L 386.2656 388.8 
L 389.8368 388.8 
L 393.408 388.8 
L 396.9792 388.8 
L 400.5504 388.8 
L 404.1216 388.8 
L 407.6928 388.8 
L 411.264 388.8 
L 414.8352 388.8 
L 418.4064 388.8 
L 421.9776 388.8 
L 425.5488 388.8 
L 429.12 388.8 
L 429.12 385.344 
L 429.12 381.888 
L 429.12 378.432 
L 429.12 374.976 
L 429.12 371.52 
L 429.12 368.064 
L 429.12 364.608 
L 429.12 361.152 
L 429.12 357.696 
L 429.12 354.24 
L 429.12 350.784 
L 429.12 347.328 
L 429.12 343.872 
L 429.12 340.416 
L 429.12 336.96 
L 429.12 333.504 
L 429.12 330.048 
L 429.12 326.592 
L 429.12 323.136 
L 429.12 319.68 
L 429.12 316.224 
L 429.12 312.768 
L 429.12 309.312 
L 429.12 305.856 
L 429.12 302.4 
L 429.12 298.944 
L 429.12 295.488 
L 429.12 292.032 
L 429.12 288.576 
L 429.12 285.12 
L 429.12 281.664 
L 429.12 278.208 
L 429.12 274.752 
L 429.12 271.296 
L 429.12 267.84 
L 429.12 264.384 
L 429.12 260.928 
L 429.12 257.472 
L 429.12 254.016 
L 429.12 250.56 
L 429.12 247.104 
L 429.12 243.648 
L 429.12 240.192 
L 429.12 236.736 
L 429.12 233.28 
L 429.12 229.824 
L 429.12 226.368 
L 429.12 222.912 
L 429.12 219.456 
L 429.12 216 
L 429.12 212.544 
L 429.12 209.088 
L 429.12 205.632 
L 429.12 202.176 
L 429.12 198.72 
L 429.12 195.264 
L 429.12 191.808 
L 429.12 188.352 
L 429.12 184.896 
L 429.12 181.44 
L 429.12 177.984 
L 429.12 175.778247 
z
" style="fill:#4c66d6;"/>
   </g>
   <g id="PathCollection_2">
    <path clip-path="url(#p5022565236)" d="M 425.5488 43.2 
L 421.9776 43.2 
L 418.4064 43.2 
L 414.8352 43.2 
L 411.264 43.2 
L 407.6928 43.2 
L 404.1216 43.2 
L 400.5504 43.2 
L 396.9792 43.2 
L 393.408 43.2 
L 389.8368 43.2 
L 386.2656 43.2 
L 382.6944 43.2 
L 379.1232 43.2 
L 375.552 43.2 
L 371.9808 43.2 
L 368.4096 43.2 
L 367.398934 43.2 
L 367.000563 46.656 
L 366.588054 50.112 
L 366.160536 53.568 
L 365.716967 57.024 
L 365.256487 60.48 
L 364.8384 63.50196 
L 364.785894 63.936 
L 364.354307 67.392 
L 363.904295 70.848 
L 363.434454 74.304 
L 362.943346 77.76 
L 362.429446 81.216 
L 361.891185 84.672 
L 361.32652 88.128 
L 361.2672 88.476839 
L 360.80564 91.584 
L 360.265703 95.04 
L 359.69631 98.496 
L 359.095142 101.952 
L 358.45952 105.408 
L 357.786619 108.864 
L 357.696 109.306963 
L 357.158455 112.32 
L 356.503765 115.776 
L 355.806504 119.232 
L 355.062719 122.688 
L 354.268194 126.144 
L 354.1248 126.732494 
L 353.516574 129.6 
L 352.731401 133.056 
L 351.887283 136.512 
L 350.978237 139.968 
L 350.5536 141.475955 
L 350.077024 143.424 
L 349.167513 146.88 
L 348.181809 150.336 
L 347.111687 153.792 
L 346.9824 154.181338 
L 346.098466 157.248 
L 345.013907 160.704 
L 343.829207 164.16 
L 343.4112 165.28863 
L 342.663738 167.616 
L 341.453986 171.072 
L 340.124974 174.528 
L 339.84 175.214587 
L 338.842672 177.984 
L 337.477798 181.44 
L 336.2688 184.230097 
L 336.018383 184.896 
L 334.616108 188.352 
L 333.067095 191.808 
L 332.6976 192.575774 
L 331.570014 195.264 
L 329.983098 198.72 
L 329.1264 200.448895 
L 328.377625 202.176 
L 326.765409 205.632 
L 325.5552 208.033014 
L 325.087398 209.088 
L 323.472702 212.544 
L 321.984 215.498836 
L 321.760376 216 
L 320.177557 219.456 
L 318.480363 222.912 
L 318.4128 223.049958 
L 316.962791 226.368 
L 315.379255 229.824 
L 314.8416 231.004087 
L 313.910989 233.28 
L 312.493233 236.736 
L 311.2704 239.704393 
L 311.089133 240.192 
L 309.874939 243.648 
L 308.677452 247.104 
L 307.6992 250.032424 
L 307.539772 250.56 
L 306.583322 254.016 
L 305.67613 257.472 
L 304.826379 260.928 
L 304.128 264.00977 
L 304.051197 264.384 
L 303.422859 267.84 
L 302.851138 271.296 
L 302.335463 274.752 
L 301.874036 278.208 
L 301.464004 281.664 
L 301.10192 285.12 
L 300.783835 288.576 
L 300.5568 291.404985 
L 300.511095 292.032 
L 300.294232 295.488 
L 300.105424 298.944 
L 299.941431 302.4 
L 299.79915 305.856 
L 299.675711 309.312 
L 299.568446 312.768 
L 299.474968 316.224 
L 299.393118 319.68 
L 299.320964 323.136 
L 299.256709 326.592 
L 299.198878 330.048 
L 299.146069 333.504 
L 299.09712 336.96 
L 299.050983 340.416 
L 299.006763 343.872 
L 298.963612 347.328 
L 298.920916 350.784 
L 298.878058 354.24 
L 298.834594 357.696 
L 298.790071 361.152 
L 298.744107 364.608 
L 298.696404 368.064 
L 298.646794 371.52 
L 298.594963 374.976 
L 298.540793 378.432 
L 298.484196 381.888 
L 298.425009 385.344 
L 298.363209 388.8 
L 300.5568 388.8 
L 304.128 388.8 
L 307.6992 388.8 
L 311.2704 388.8 
L 314.8416 388.8 
L 318.4128 388.8 
L 321.984 388.8 
L 325.5552 388.8 
L 329.1264 388.8 
L 332.6976 388.8 
L 336.2688 388.8 
L 339.84 388.8 
L 343.4112 388.8 
L 346.9824 388.8 
L 350.5536 388.8 
L 354.1248 388.8 
L 357.696 388.8 
L 358.468765 388.8 
L 357.696 385.600342 
L 357.638346 385.344 
L 356.8609 381.888 
L 356.086236 378.432 
L 355.314238 374.976 
L 354.546008 371.52 
L 354.1248 369.616966 
L 353.807816 368.064 
L 353.10842 364.608 
L 352.415975 361.152 
L 351.731441 357.696 
L 351.055437 354.24 
L 350.5536 351.635134 
L 350.404105 350.784 
L 349.810108 347.328 
L 349.229886 343.872 
L 348.665106 340.416 
L 348.117318 336.96 
L 347.589409 333.504 
L 347.082927 330.048 
L 346.9824 329.324177 
L 346.641923 326.592 
L 346.237325 323.136 
L 345.861428 319.68 
L 345.517711 316.224 
L 345.208851 312.768 
L 344.939229 309.312 
L 344.712342 305.856 
L 344.532071 302.4 
L 344.403434 298.944 
L 344.330535 295.488 
L 344.318382 292.032 
L 344.371685 288.576 
L 344.495463 285.12 
L 344.694241 281.664 
L 344.972828 278.208 
L 345.335311 274.752 
L 345.785606 271.296 
L 346.326583 267.84 
L 346.960573 264.384 
L 346.9824 264.282557 
L 347.791568 260.928 
L 348.734322 257.472 
L 349.783509 254.016 
L 350.5536 251.728983 
L 350.988333 250.56 
L 352.411774 247.104 
L 353.935185 243.648 
L 354.1248 243.257007 
L 355.739033 240.192 
L 357.651041 236.736 
L 357.696 236.661342 
L 359.877981 233.28 
L 361.2672 231.222058 
L 362.269167 229.824 
L 364.8384 226.399039 
L 364.862902 226.368 
L 367.761387 222.912 
L 368.4096 222.170905 
L 370.88209 219.456 
L 371.9808 218.297934 
L 374.23527 216 
L 375.552 214.710062 
L 377.824506 212.544 
L 379.1232 211.352724 
L 381.647559 209.088 
L 382.6944 208.182119 
L 385.694712 205.632 
L 386.2656 205.162803 
L 389.8368 202.276048 
L 389.963016 202.176 
L 393.408 199.538881 
L 394.48579 198.72 
L 396.9792 196.884806 
L 399.194425 195.264 
L 400.5504 194.299383 
L 404.071131 191.808 
L 404.1216 191.773142 
L 407.6928 189.359331 
L 409.185111 188.352 
L 411.264 186.982751 
L 414.435926 184.896 
L 414.8352 184.638603 
L 418.4064 182.373092 
L 419.880168 181.44 
L 421.9776 180.138456 
L 425.448433 177.984 
L 425.5488 177.922673 
L 429.12 175.778247 
L 429.12 174.528 
L 429.12 171.072 
L 429.12 167.616 
L 429.12 164.16 
L 429.12 160.704 
L 429.12 157.248 
L 429.12 153.792 
L 429.12 150.336 
L 429.12 146.88 
L 429.12 143.424 
L 429.12 139.968 
L 429.12 136.512 
L 429.12 133.056 
L 429.12 129.6 
L 429.12 126.144 
L 429.12 122.688 
L 429.12 119.232 
L 429.12 115.776 
L 429.12 112.32 
L 429.12 108.864 
L 429.12 105.408 
L 429.12 101.952 
L 429.12 98.496 
L 429.12 95.04 
L 429.12 91.584 
L 429.12 88.128 
L 429.12 84.672 
L 429.12 81.216 
L 429.12 77.76 
L 429.12 74.304 
L 429.12 70.848 
L 429.12 67.392 
L 429.12 63.936 
L 429.12 60.48 
L 429.12 57.024 
L 429.12 53.568 
L 429.12 50.112 
L 429.12 46.656 
L 429.12 43.2 
z
" style="fill:#779af7;"/>
   </g>
   <g id="PathCollection_3">
    <path clip-path="url(#p5022565236)" d="M 364.8384 43.2 
L 361.2672 43.2 
L 357.696 43.2 
L 354.1248 43.2 
L 350.5536 43.2 
L 346.9824 43.2 
L 343.4112 43.2 
L 339.84 43.2 
L 337.975846 43.2 
L 337.678309 46.656 
L 337.375676 50.112 
L 337.067525 53.568 
L 336.753428 57.024 
L 336.4329 60.48 
L 336.2688 62.219415 
L 336.122986 63.936 
L 335.825006 67.392 
L 335.521332 70.848 
L 335.211401 74.304 
L 334.894609 77.76 
L 334.570376 81.216 
L 334.23795 84.672 
L 333.896591 88.128 
L 333.545462 91.584 
L 333.183641 95.04 
L 332.810096 98.496 
L 332.6976 99.507967 
L 332.453411 101.952 
L 332.098002 105.408 
L 331.730782 108.864 
L 331.350491 112.32 
L 330.95568 115.776 
L 330.544806 119.232 
L 330.116057 122.688 
L 329.667453 126.144 
L 329.196734 129.6 
L 329.1264 130.094125 
L 328.747463 133.056 
L 328.28414 136.512 
L 327.796684 139.968 
L 327.282123 143.424 
L 326.73703 146.88 
L 326.157486 150.336 
L 325.5552 153.702542 
L 325.540733 153.792 
L 324.94957 157.248 
L 324.319443 160.704 
L 323.644966 164.16 
L 322.919969 167.616 
L 322.137228 171.072 
L 321.984 171.701529 
L 321.36095 174.528 
L 320.54186 177.984 
L 319.656239 181.44 
L 318.694014 184.896 
L 318.4128 185.830816 
L 317.721121 188.352 
L 316.69944 191.808 
L 315.590796 195.264 
L 314.8416 197.419216 
L 314.42508 198.72 
L 313.242423 202.176 
L 311.965139 205.632 
L 311.2704 207.384103 
L 310.642931 209.088 
L 309.296578 212.544 
L 307.853941 216 
L 307.6992 216.355659 
L 306.437706 219.456 
L 304.960808 222.912 
L 304.128 224.788449 
L 303.464457 226.368 
L 301.987883 229.824 
L 300.5568 233.066688 
L 300.466659 233.28 
L 299.033857 236.736 
L 297.584962 240.192 
L 296.9856 241.649577 
L 296.194515 243.648 
L 294.867023 247.104 
L 293.560775 250.56 
L 293.4144 250.973191 
L 292.370247 254.016 
L 291.236862 257.472 
L 290.154205 260.928 
L 289.8432 262.004983 
L 289.172153 264.384 
L 288.269608 267.84 
L 287.428509 271.296 
L 286.648965 274.752 
L 286.272 276.591604 
L 285.94598 278.208 
L 285.317251 281.664 
L 284.74307 285.12 
L 284.220357 288.576 
L 283.745704 292.032 
L 283.315627 295.488 
L 282.926572 298.944 
L 282.7008 301.176165 
L 282.578127 302.4 
L 282.268304 305.856 
L 281.988136 309.312 
L 281.734664 312.768 
L 281.504994 316.224 
L 281.296598 319.68 
L 281.107052 323.136 
L 280.934194 326.592 
L 280.776035 330.048 
L 280.630738 333.504 
L 280.496727 336.96 
L 280.372474 340.416 
L 280.256695 343.872 
L 280.148231 347.328 
L 280.04598 350.784 
L 279.949022 354.24 
L 279.856484 357.696 
L 279.767652 361.152 
L 279.681851 364.608 
L 279.598475 368.064 
L 279.517028 371.52 
L 279.437034 374.976 
L 279.358051 378.432 
L 279.279745 381.888 
L 279.201784 385.344 
L 279.1296 388.545854 
L 279.12389 388.8 
L 279.1296 388.8 
L 282.7008 388.8 
L 286.272 388.8 
L 289.8432 388.8 
L 293.4144 388.8 
L 296.9856 388.8 
L 298.363209 388.8 
L 298.425009 385.344 
L 298.484196 381.888 
L 298.540793 378.432 
L 298.594963 374.976 
L 298.646794 371.52 
L 298.696404 368.064 
L 298.744107 364.608 
L 298.790071 361.152 
L 298.834594 357.696 
L 298.878058 354.24 
L 298.920916 350.784 
L 298.963612 347.328 
L 299.006763 343.872 
L 299.050983 340.416 
L 299.09712 336.96 
L 299.146069 333.504 
L 299.198878 330.048 
L 299.256709 326.592 
L 299.320964 323.136 
L 299.393118 319.68 
L 299.474968 316.224 
L 299.568446 312.768 
L 299.675711 309.312 
L 299.79915 305.856 
L 299.941431 302.4 
L 300.105424 298.944 
L 300.294232 295.488 
L 300.511095 292.032 
L 300.5568 291.404985 
L 300.783835 288.576 
L 301.10192 285.12 
L 301.464004 281.664 
L 301.874036 278.208 
L 302.335463 274.752 
L 302.851138 271.296 
L 303.422859 267.84 
L 304.051197 264.384 
L 304.128 264.00977 
L 304.826379 260.928 
L 305.67613 257.472 
L 306.583322 254.016 
L 307.539772 250.56 
L 307.6992 250.032424 
L 308.677452 247.104 
L 309.874939 243.648 
L 311.089133 240.192 
L 311.2704 239.704393 
L 312.493233 236.736 
L 313.910989 233.28 
L 314.8416 231.004087 
L 315.379255 229.824 
L 316.962791 226.368 
L 318.4128 223.049958 
L 318.480363 222.912 
L 320.177557 219.456 
L 321.760376 216 
L 321.984 215.498836 
L 323.472702 212.544 
L 325.087398 209.088 
L 325.5552 208.033014 
L 326.765409 205.632 
L 328.377625 202.176 
L 329.1264 200.448895 
L 329.983098 198.72 
L 331.570014 195.264 
L 332.6976 192.575774 
L 333.067095 191.808 
L 334.616108 188.352 
L 336.018383 184.896 
L 336.2688 184.230097 
L 337.477798 181.44 
L 338.842672 177.984 
L 339.84 175.214587 
L 340.124974 174.528 
L 341.453986 171.072 
L 342.663738 167.616 
L 343.4112 165.28863 
L 343.829207 164.16 
L 345.013907 160.704 
L 346.098466 157.248 
L 346.9824 154.181338 
L 347.111687 153.792 
L 348.181809 150.336 
L 349.167513 146.88 
L 350.077024 143.424 
L 350.5536 141.475955 
L 350.978237 139.968 
L 351.887283 136.512 
L 352.731401 133.056 
L 353.516574 129.6 
L 354.1248 126.732494 
L 354.268194 126.144 
L 355.062719 122.688 
L 355.806504 119.232 
L 356.503765 115.776 
L 357.158455 112.32 
L 357.696 109.306963 
L 357.786619 108.864 
L 358.45952 105.408 
L 359.095142 101.952 
L 359.69631 98.496 
L 360.265703 95.04 
L 360.80564 91.584 
L 361.2672 88.476839 
L 361.32652 88.128 
L 361.891185 84.672 
L 362.429446 81.216 
L 362.943346 77.76 
L 363.434454 74.304 
L 363.904295 70.848 
L 364.354307 67.392 
L 364.785894 63.936 
L 364.8384 63.50196 
L 365.256487 60.48 
L 365.716967 57.024 
L 366.160536 53.568 
L 366.588054 50.112 
L 367.000563 46.656 
L 367.398934 43.2 
z
" style="fill:#a3c2fe;"/>
   </g>
   <g id="PathCollection_4">
    <path clip-path="url(#p5022565236)" d="M 336.2688 43.2 
L 332.6976 43.2 
L 329.1264 43.2 
L 325.5552 43.2 
L 322.949965 43.2 
L 322.693936 46.656 
L 322.437112 50.112 
L 322.179271 53.568 
L 321.984 56.169005 
L 321.917842 57.024 
L 321.648924 60.48 
L 321.379704 63.936 
L 321.10997 67.392 
L 320.839388 70.848 
L 320.567627 74.304 
L 320.294402 77.76 
L 320.019316 81.216 
L 319.741963 84.672 
L 319.461954 88.128 
L 319.178787 91.584 
L 318.891955 95.04 
L 318.600906 98.496 
L 318.4128 100.688486 
L 318.301796 101.952 
L 317.992855 105.408 
L 317.679723 108.864 
L 317.361676 112.32 
L 317.037966 115.776 
L 316.707725 119.232 
L 316.370054 122.688 
L 316.02385 126.144 
L 315.667987 129.6 
L 315.301148 133.056 
L 314.921855 136.512 
L 314.8416 137.212484 
L 314.52054 139.968 
L 314.104081 143.424 
L 313.673155 146.88 
L 313.225854 150.336 
L 312.759991 153.792 
L 312.27313 157.248 
L 311.762439 160.704 
L 311.2704 163.863219 
L 311.223392 164.16 
L 310.642242 167.616 
L 310.03286 171.072 
L 309.391767 174.528 
L 308.714915 177.984 
L 307.997523 181.44 
L 307.6992 182.777957 
L 307.22141 184.896 
L 306.394486 188.352 
L 305.522499 191.808 
L 304.599668 195.264 
L 304.128 196.910907 
L 303.604088 198.72 
L 302.544738 202.176 
L 301.434768 205.632 
L 300.5568 208.216959 
L 300.256854 209.088 
L 299.002235 212.544 
L 297.705113 216 
L 296.9856 217.831087 
L 296.337991 219.456 
L 294.920061 222.912 
L 293.473755 226.368 
L 293.4144 226.505696 
L 291.962324 229.824 
L 290.44952 233.28 
L 289.8432 234.656282 
L 288.904008 236.736 
L 287.364891 240.192 
L 286.272 242.680526 
L 285.832031 243.648 
L 284.309143 247.104 
L 282.832526 250.56 
L 282.7008 250.88226 
L 281.367834 254.016 
L 279.968064 257.472 
L 279.1296 259.653798 
L 278.61481 260.928 
L 277.312791 264.384 
L 276.087732 267.84 
L 275.5584 269.446028 
L 274.914143 271.296 
L 273.804373 274.752 
L 272.773039 278.208 
L 271.9872 281.053706 
L 271.808178 281.664 
L 270.887441 285.12 
L 270.039669 288.576 
L 269.259372 292.032 
L 268.541771 295.488 
L 268.416 296.15587 
L 267.85775 298.944 
L 267.225845 302.4 
L 266.647196 305.856 
L 266.117351 309.312 
L 265.632178 312.768 
L 265.187859 316.224 
L 264.8448 319.142595 
L 264.777409 319.68 
L 264.383955 323.136 
L 264.023452 326.592 
L 263.692867 330.048 
L 263.389395 333.504 
L 263.11054 336.96 
L 262.854007 340.416 
L 262.617697 343.872 
L 262.399689 347.328 
L 262.198259 350.784 
L 262.011762 354.24 
L 261.838755 357.696 
L 261.677931 361.152 
L 261.52805 364.608 
L 261.388057 368.064 
L 261.2736 371.081101 
L 261.255743 371.52 
L 261.123831 374.976 
L 260.999438 378.432 
L 260.881699 381.888 
L 260.769899 385.344 
L 260.663352 388.8 
L 261.2736 388.8 
L 264.8448 388.8 
L 268.416 388.8 
L 271.9872 388.8 
L 275.5584 388.8 
L 279.12389 388.8 
L 279.1296 388.545854 
L 279.201784 385.344 
L 279.279745 381.888 
L 279.358051 378.432 
L 279.437034 374.976 
L 279.517028 371.52 
L 279.598475 368.064 
L 279.681851 364.608 
L 279.767652 361.152 
L 279.856484 357.696 
L 279.949022 354.24 
L 280.04598 350.784 
L 280.148231 347.328 
L 280.256695 343.872 
L 280.372474 340.416 
L 280.496727 336.96 
L 280.630738 333.504 
L 280.776035 330.048 
L 280.934194 326.592 
L 281.107052 323.136 
L 281.296598 319.68 
L 281.504994 316.224 
L 281.734664 312.768 
L 281.988136 309.312 
L 282.268304 305.856 
L 282.578127 302.4 
L 282.7008 301.176165 
L 282.926572 298.944 
L 283.315627 295.488 
L 283.745704 292.032 
L 284.220357 288.576 
L 284.74307 285.12 
L 285.317251 281.664 
L 285.94598 278.208 
L 286.272 276.591604 
L 286.648965 274.752 
L 287.428509 271.296 
L 288.269608 267.84 
L 289.172153 264.384 
L 289.8432 262.004983 
L 290.154205 260.928 
L 291.236862 257.472 
L 292.370247 254.016 
L 293.4144 250.973191 
L 293.560775 250.56 
L 294.867023 247.104 
L 296.194515 243.648 
L 296.9856 241.649577 
L 297.584962 240.192 
L 299.033857 236.736 
L 300.466659 233.28 
L 300.5568 233.066688 
L 301.987883 229.824 
L 303.464457 226.368 
L 304.128 224.788449 
L 304.960808 222.912 
L 306.437706 219.456 
L 307.6992 216.355659 
L 307.853941 216 
L 309.296578 212.544 
L 310.642931 209.088 
L 311.2704 207.384103 
L 311.965139 205.632 
L 313.242423 202.176 
L 314.42508 198.72 
L 314.8416 197.419216 
L 315.590796 195.264 
L 316.69944 191.808 
L 317.721121 188.352 
L 318.4128 185.830816 
L 318.694014 184.896 
L 319.656239 181.44 
L 320.54186 177.984 
L 321.36095 174.528 
L 321.984 171.701529 
L 322.137228 171.072 
L 322.919969 167.616 
L 323.644966 164.16 
L 324.319443 160.704 
L 324.94957 157.248 
L 325.540733 153.792 
L 325.5552 153.702542 
L 326.157486 150.336 
L 326.73703 146.88 
L 327.282123 143.424 
L 327.796684 139.968 
L 328.28414 136.512 
L 328.747463 133.056 
L 329.1264 130.094125 
L 329.196734 129.6 
L 329.667453 126.144 
L 330.116057 122.688 
L 330.544806 119.232 
L 330.95568 115.776 
L 331.350491 112.32 
L 331.730782 108.864 
L 332.098002 105.408 
L 332.453411 101.952 
L 332.6976 99.507967 
L 332.810096 98.496 
L 333.183641 95.04 
L 333.545462 91.584 
L 333.896591 88.128 
L 334.23795 84.672 
L 334.570376 81.216 
L 334.894609 77.76 
L 335.211401 74.304 
L 335.521332 70.848 
L 335.825006 67.392 
L 336.122986 63.936 
L 336.2688 62.219415 
L 336.4329 60.48 
L 336.753428 57.024 
L 337.067525 53.568 
L 337.375676 50.112 
L 337.678309 46.656 
L 337.975846 43.2 
z
" style="fill:#ccd9ed;"/>
   </g>
   <g id="PathCollection_5">
    <path clip-path="url(#p5022565236)" d="M 321.984 43.2 
L 318.4128 43.2 
L 314.8416 43.2 
L 311.2704 43.2 
L 307.6992 43.2 
L 305.383969 43.2 
L 305.214481 46.656 
L 305.045865 50.112 
L 304.878061 53.568 
L 304.710931 57.024 
L 304.54433 60.48 
L 304.37816 63.936 
L 304.212324 67.392 
L 304.128 69.138742 
L 304.036211 70.848 
L 303.849409 74.304 
L 303.662551 77.76 
L 303.475398 81.216 
L 303.287778 84.672 
L 303.099379 88.128 
L 302.910018 91.584 
L 302.719442 95.04 
L 302.527271 98.496 
L 302.333198 101.952 
L 302.136858 105.408 
L 301.937884 108.864 
L 301.735808 112.32 
L 301.530162 115.776 
L 301.320447 119.232 
L 301.106008 122.688 
L 300.886308 126.144 
L 300.660562 129.6 
L 300.5568 131.126557 
L 300.412079 133.056 
L 300.142417 136.512 
L 299.863488 139.968 
L 299.574277 143.424 
L 299.273622 146.88 
L 298.960271 150.336 
L 298.63287 153.792 
L 298.289942 157.248 
L 297.929942 160.704 
L 297.55116 164.16 
L 297.151793 167.616 
L 296.9856 168.95428 
L 296.698249 171.072 
L 296.197304 174.528 
L 295.667656 177.984 
L 295.107297 181.44 
L 294.514277 184.896 
L 293.88672 188.352 
L 293.4144 190.782982 
L 293.198455 191.808 
L 292.409093 195.264 
L 291.578787 198.72 
L 290.707698 202.176 
L 289.8432 205.44544 
L 289.789974 205.632 
L 288.717006 209.088 
L 287.608085 212.544 
L 286.466975 216 
L 286.272 216.551129 
L 285.169776 219.456 
L 283.830719 222.912 
L 282.7008 225.780167 
L 282.451756 226.368 
L 280.924699 229.824 
L 279.41429 233.28 
L 279.1296 233.914987 
L 277.768188 236.736 
L 276.131194 240.192 
L 275.5584 241.404307 
L 274.411937 243.648 
L 272.69327 247.104 
L 271.9872 248.557889 
L 270.93058 250.56 
L 269.177397 254.016 
L 268.416 255.578972 
L 267.409301 257.472 
L 265.663955 260.928 
L 264.8448 262.640298 
L 263.930668 264.384 
L 262.22683 267.84 
L 261.2736 269.903035 
L 260.566156 271.296 
L 258.927432 274.752 
L 257.7024 277.528988 
L 257.372449 278.208 
L 255.813161 281.664 
L 254.368236 285.12 
L 254.1312 285.733 
L 252.918857 288.576 
L 251.556761 292.032 
L 250.56 294.766434 
L 250.269691 295.488 
L 248.989439 298.944 
L 247.805315 302.4 
L 246.9888 304.978639 
L 246.682163 305.856 
L 245.570369 309.312 
L 244.54102 312.768 
L 243.587227 316.224 
L 243.4176 316.890901 
L 242.635098 319.68 
L 241.737238 323.136 
L 240.90377 326.592 
L 240.129502 330.048 
L 239.8464 331.413225 
L 239.368546 333.504 
L 238.635755 336.96 
L 237.953378 340.416 
L 237.317449 343.872 
L 236.72425 347.328 
L 236.2752 350.134048 
L 236.160683 350.784 
L 235.594485 354.24 
L 235.064923 357.696 
L 234.569028 361.152 
L 234.10444 364.608 
L 233.668656 368.064 
L 233.259542 371.52 
L 232.87508 374.976 
L 232.704 376.615239 
L 232.495498 378.432 
L 232.122715 381.888 
L 231.77127 385.344 
L 231.43958 388.8 
L 232.704 388.8 
L 236.2752 388.8 
L 239.8464 388.8 
L 243.4176 388.8 
L 246.9888 388.8 
L 250.56 388.8 
L 254.1312 388.8 
L 257.7024 388.8 
L 260.663352 388.8 
L 260.769899 385.344 
L 260.881699 381.888 
L 260.999438 378.432 
L 261.123831 374.976 
L 261.255743 371.52 
L 261.2736 371.081101 
L 261.388057 368.064 
L 261.52805 364.608 
L 261.677931 361.152 
L 261.838755 357.696 
L 262.011762 354.24 
L 262.198259 350.784 
L 262.399689 347.328 
L 262.617697 343.872 
L 262.854007 340.416 
L 263.11054 336.96 
L 263.389395 333.504 
L 263.692867 330.048 
L 264.023452 326.592 
L 264.383955 323.136 
L 264.777409 319.68 
L 264.8448 319.142595 
L 265.187859 316.224 
L 265.632178 312.768 
L 266.117351 309.312 
L 266.647196 305.856 
L 267.225845 302.4 
L 267.85775 298.944 
L 268.416 296.15587 
L 268.541771 295.488 
L 269.259372 292.032 
L 270.039669 288.576 
L 270.887441 285.12 
L 271.808178 281.664 
L 271.9872 281.053706 
L 272.773039 278.208 
L 273.804373 274.752 
L 274.914143 271.296 
L 275.5584 269.446028 
L 276.087732 267.84 
L 277.312791 264.384 
L 278.61481 260.928 
L 279.1296 259.653798 
L 279.968064 257.472 
L 281.367834 254.016 
L 282.7008 250.88226 
L 282.832526 250.56 
L 284.309143 247.104 
L 285.832031 243.648 
L 286.272 242.680526 
L 287.364891 240.192 
L 288.904008 236.736 
L 289.8432 234.656282 
L 290.44952 233.28 
L 291.962324 229.824 
L 293.4144 226.505696 
L 293.473755 226.368 
L 294.920061 222.912 
L 296.337991 219.456 
L 296.9856 217.831087 
L 297.705113 216 
L 299.002235 212.544 
L 300.256854 209.088 
L 300.5568 208.216959 
L 301.434768 205.632 
L 302.544738 202.176 
L 303.604088 198.72 
L 304.128 196.910907 
L 304.599668 195.264 
L 305.522499 191.808 
L 306.394486 188.352 
L 307.22141 184.896 
L 307.6992 182.777957 
L 307.997523 181.44 
L 308.714915 177.984 
L 309.391767 174.528 
L 310.03286 171.072 
L 310.642242 167.616 
L 311.223392 164.16 
L 311.2704 163.863219 
L 311.762439 160.704 
L 312.27313 157.248 
L 312.759991 153.792 
L 313.225854 150.336 
L 313.673155 146.88 
L 314.104081 143.424 
L 314.52054 139.968 
L 314.8416 137.212484 
L 314.921855 136.512 
L 315.301148 133.056 
L 315.667987 129.6 
L 316.02385 126.144 
L 316.370054 122.688 
L 316.707725 119.232 
L 317.037966 115.776 
L 317.361676 112.32 
L 317.679723 108.864 
L 317.992855 105.408 
L 318.301796 101.952 
L 318.4128 100.688486 
L 318.600906 98.496 
L 318.891955 95.04 
L 319.178787 91.584 
L 319.461954 88.128 
L 319.741963 84.672 
L 320.019316 81.216 
L 320.294402 77.76 
L 320.567627 74.304 
L 320.839388 70.848 
L 321.10997 67.392 
L 321.379704 63.936 
L 321.648924 60.48 
L 321.917842 57.024 
L 321.984 56.169005 
L 322.179271 53.568 
L 322.437112 50.112 
L 322.693936 46.656 
L 322.949965 43.2 
z
" style="fill:#ecd3c5;"/>
   </g>
   <g id="PathCollection_6">
    <path clip-path="url(#p5022565236)" d="M 304.128 43.2 
L 300.5568 43.2 
L 296.9856 43.2 
L 293.4144 43.2 
L 289.8432 43.2 
L 286.272 43.2 
L 282.7008 43.2 
L 279.1296 43.2 
L 275.5584 43.2 
L 271.9872 43.2 
L 268.416 43.2 
L 266.745321 43.2 
L 266.991929 46.656 
L 267.239567 50.112 
L 267.488534 53.568 
L 267.738494 57.024 
L 267.989511 60.48 
L 268.241398 63.936 
L 268.416 66.318079 
L 268.489492 67.392 
L 268.728083 70.848 
L 268.966778 74.304 
L 269.205541 77.76 
L 269.444213 81.216 
L 269.682466 84.672 
L 269.920134 88.128 
L 270.156867 91.584 
L 270.392405 95.04 
L 270.626371 98.496 
L 270.85826 101.952 
L 271.087736 105.408 
L 271.314171 108.864 
L 271.537143 112.32 
L 271.755762 115.776 
L 271.969499 119.232 
L 271.9872 119.523012 
L 272.163326 122.688 
L 272.349323 126.144 
L 272.527666 129.6 
L 272.697293 133.056 
L 272.857054 136.512 
L 273.005596 139.968 
L 273.141469 143.424 
L 273.262882 146.88 
L 273.368103 150.336 
L 273.454954 153.792 
L 273.521312 157.248 
L 273.564547 160.704 
L 273.582041 164.16 
L 273.570705 167.616 
L 273.527331 171.072 
L 273.448394 174.528 
L 273.330231 177.984 
L 273.168892 181.44 
L 272.960378 184.896 
L 272.700659 188.352 
L 272.385726 191.808 
L 272.012056 195.264 
L 271.9872 195.454885 
L 271.522207 198.72 
L 270.952752 202.176 
L 270.304707 205.632 
L 269.577525 209.088 
L 268.772889 212.544 
L 268.416 213.907462 
L 267.816713 216 
L 266.724549 219.456 
L 265.558598 222.912 
L 264.8448 224.874001 
L 264.251809 226.368 
L 262.776117 229.824 
L 261.2736 233.250761 
L 261.259658 233.28 
L 259.482617 236.736 
L 257.70355 240.192 
L 257.7024 240.194116 
L 255.66909 243.648 
L 254.1312 246.276884 
L 253.608379 247.104 
L 251.385113 250.56 
L 250.56 251.845325 
L 249.056037 254.016 
L 246.9888 257.051879 
L 246.680786 257.472 
L 244.154945 260.928 
L 243.4176 261.960241 
L 241.551349 264.384 
L 239.8464 266.667479 
L 238.904457 267.84 
L 236.2752 271.221181 
L 236.212712 271.296 
L 233.400339 274.752 
L 232.704 275.644532 
L 230.550253 278.208 
L 229.1328 279.971041 
L 227.669357 281.664 
L 225.5616 284.215116 
L 224.75898 285.12 
L 221.9904 288.38883 
L 221.820473 288.576 
L 218.822567 292.032 
L 218.4192 292.521509 
L 215.793893 295.488 
L 214.848 296.614026 
L 212.749404 298.944 
L 211.2768 300.666527 
L 209.690477 302.4 
L 207.7056 304.685129 
L 206.618537 305.856 
L 204.1344 308.674584 
L 203.53493 309.312 
L 200.5632 312.639864 
L 200.44127 312.768 
L 197.320271 316.224 
L 196.992 316.607421 
L 194.188293 319.68 
L 193.4208 320.566306 
L 191.05279 323.136 
L 189.8496 324.510931 
L 187.914705 326.592 
L 186.2784 328.444108 
L 184.774812 330.048 
L 182.7072 332.367554 
L 181.633977 333.504 
L 179.136 336.283595 
L 178.492795 336.96 
L 175.5648 340.193545 
L 175.351947 340.416 
L 172.204192 343.872 
L 171.9936 344.114874 
L 169.051243 347.328 
L 168.4224 348.047914 
L 165.901459 350.784 
L 164.8512 351.978161 
L 162.755689 354.24 
L 161.28 355.907302 
L 159.61417 357.696 
L 157.7088 359.835617 
L 156.476686 361.152 
L 154.1376 363.764112 
L 153.34413 364.608 
L 150.5664 367.692895 
L 150.215905 368.064 
L 147.090582 371.52 
L 146.9952 371.630226 
L 143.960553 374.976 
L 143.424 375.592552 
L 140.836571 378.432 
L 139.8528 379.55648 
L 137.718784 381.888 
L 136.2816 383.52219 
L 134.606975 385.344 
L 132.7104 387.489649 
L 131.500859 388.8 
L 132.7104 388.8 
L 136.2816 388.8 
L 139.8528 388.8 
L 143.424 388.8 
L 146.9952 388.8 
L 150.5664 388.8 
L 154.1376 388.8 
L 157.7088 388.8 
L 161.28 388.8 
L 164.8512 388.8 
L 168.4224 388.8 
L 171.9936 388.8 
L 175.5648 388.8 
L 179.136 388.8 
L 182.7072 388.8 
L 186.2784 388.8 
L 189.8496 388.8 
L 193.4208 388.8 
L 196.992 388.8 
L 200.5632 388.8 
L 204.1344 388.8 
L 207.7056 388.8 
L 211.2768 388.8 
L 214.848 388.8 
L 218.4192 388.8 
L 221.9904 388.8 
L 225.5616 388.8 
L 229.1328 388.8 
L 231.43958 388.8 
L 231.77127 385.344 
L 232.122715 381.888 
L 232.495498 378.432 
L 232.704 376.615239 
L 232.87508 374.976 
L 233.259542 371.52 
L 233.668656 368.064 
L 234.10444 364.608 
L 234.569028 361.152 
L 235.064923 357.696 
L 235.594485 354.24 
L 236.160683 350.784 
L 236.2752 350.134048 
L 236.72425 347.328 
L 237.317449 343.872 
L 237.953378 340.416 
L 238.635755 336.96 
L 239.368546 333.504 
L 239.8464 331.413225 
L 240.129502 330.048 
L 240.90377 326.592 
L 241.737238 323.136 
L 242.635098 319.68 
L 243.4176 316.890901 
L 243.587227 316.224 
L 244.54102 312.768 
L 245.570369 309.312 
L 246.682163 305.856 
L 246.9888 304.978639 
L 247.805315 302.4 
L 248.989439 298.944 
L 250.269691 295.488 
L 250.56 294.766434 
L 251.556761 292.032 
L 252.918857 288.576 
L 254.1312 285.733 
L 254.368236 285.12 
L 255.813161 281.664 
L 257.372449 278.208 
L 257.7024 277.528988 
L 258.927432 274.752 
L 260.566156 271.296 
L 261.2736 269.903035 
L 262.22683 267.84 
L 263.930668 264.384 
L 264.8448 262.640298 
L 265.663955 260.928 
L 267.409301 257.472 
L 268.416 255.578972 
L 269.177397 254.016 
L 270.93058 250.56 
L 271.9872 248.557889 
L 272.69327 247.104 
L 274.411937 243.648 
L 275.5584 241.404307 
L 276.131194 240.192 
L 277.768188 236.736 
L 279.1296 233.914987 
L 279.41429 233.28 
L 280.924699 229.824 
L 282.451756 226.368 
L 282.7008 225.780167 
L 283.830719 222.912 
L 285.169776 219.456 
L 286.272 216.551129 
L 286.466975 216 
L 287.608085 212.544 
L 288.717006 209.088 
L 289.789974 205.632 
L 289.8432 205.44544 
L 290.707698 202.176 
L 291.578787 198.72 
L 292.409093 195.264 
L 293.198455 191.808 
L 293.4144 190.782982 
L 293.88672 188.352 
L 294.514277 184.896 
L 295.107297 181.44 
L 295.667656 177.984 
L 296.197304 174.528 
L 296.698249 171.072 
L 296.9856 168.95428 
L 297.151793 167.616 
L 297.55116 164.16 
L 297.929942 160.704 
L 298.289942 157.248 
L 298.63287 153.792 
L 298.960271 150.336 
L 299.273622 146.88 
L 299.574277 143.424 
L 299.863488 139.968 
L 300.142417 136.512 
L 300.412079 133.056 
L 300.5568 131.126557 
L 300.660562 129.6 
L 300.886308 126.144 
L 301.106008 122.688 
L 301.320447 119.232 
L 301.530162 115.776 
L 301.735808 112.32 
L 301.937884 108.864 
L 302.136858 105.408 
L 302.333198 101.952 
L 302.527271 98.496 
L 302.719442 95.04 
L 302.910018 91.584 
L 303.099379 88.128 
L 303.287778 84.672 
L 303.475398 81.216 
L 303.662551 77.76 
L 303.849409 74.304 
L 304.036211 70.848 
L 304.128 69.138742 
L 304.212324 67.392 
L 304.37816 63.936 
L 304.54433 60.48 
L 304.710931 57.024 
L 304.878061 53.568 
L 305.045865 50.112 
L 305.214481 46.656 
L 305.383969 43.2 
z
" style="fill:#f7b093;"/>
   </g>
   <g id="PathCollection_7">
    <path clip-path="url(#p5022565236)" d="M 264.8448 43.2 
L 261.2736 43.2 
L 257.7024 43.2 
L 254.1312 43.2 
L 250.56 43.2 
L 246.9888 43.2 
L 243.4176 43.2 
L 239.8464 43.2 
L 236.2752 43.2 
L 232.704 43.2 
L 229.1328 43.2 
L 225.5616 43.2 
L 221.9904 43.2 
L 218.4192 43.2 
L 214.848 43.2 
L 211.2768 43.2 
L 207.7056 43.2 
L 204.1344 43.2 
L 200.5632 43.2 
L 196.992 43.2 
L 193.4208 43.2 
L 189.8496 43.2 
L 186.2784 43.2 
L 182.7072 43.2 
L 179.136 43.2 
L 175.5648 43.2 
L 171.9936 43.2 
L 168.4224 43.2 
L 164.8512 43.2 
L 161.28 43.2 
L 157.7088 43.2 
L 154.1376 43.2 
L 150.5664 43.2 
L 150.233756 43.2 
L 150.5664 43.9337 
L 151.759107 46.656 
L 153.288418 50.112 
L 154.1376 52.020105 
L 154.802501 53.568 
L 156.289607 57.024 
L 157.7088 60.277306 
L 157.794018 60.48 
L 159.23483 63.936 
L 160.696054 67.392 
L 161.28 68.773791 
L 162.123011 70.848 
L 163.531491 74.304 
L 164.8512 77.506222 
L 164.951634 77.76 
L 166.303384 81.216 
L 167.670299 84.672 
L 168.4224 86.574742 
L 169.010756 88.128 
L 170.313553 91.584 
L 171.626877 95.04 
L 171.9936 96.014945 
L 172.88563 98.496 
L 174.125707 101.952 
L 175.371692 105.408 
L 175.5648 105.953203 
L 176.547807 108.864 
L 177.710942 112.32 
L 178.872886 115.776 
L 179.136 116.575817 
L 179.967015 119.232 
L 181.035278 122.688 
L 182.094049 126.144 
L 182.7072 128.189034 
L 183.108514 129.6 
L 184.062706 133.056 
L 184.996844 136.512 
L 185.908806 139.968 
L 186.2784 141.431964 
L 186.753645 143.424 
L 187.54081 146.88 
L 188.292406 150.336 
L 189.003457 153.792 
L 189.668805 157.248 
L 189.8496 158.280161 
L 190.248734 160.704 
L 190.759893 164.16 
L 191.210371 167.616 
L 191.593068 171.072 
L 191.901328 174.528 
L 192.127424 177.984 
L 192.263942 181.44 
L 192.303224 184.896 
L 192.236981 188.352 
L 192.057779 191.808 
L 191.758455 195.264 
L 191.332508 198.72 
L 190.772343 202.176 
L 190.073769 205.632 
L 189.8496 206.547077 
L 189.183067 209.088 
L 188.118064 212.544 
L 186.895137 216 
L 186.2784 217.530332 
L 185.458335 219.456 
L 183.810227 222.912 
L 182.7072 225.004281 
L 181.955243 226.368 
L 179.861592 229.824 
L 179.136 230.919268 
L 177.51785 233.28 
L 175.5648 235.925479 
L 174.94961 236.736 
L 172.125232 240.192 
L 171.9936 240.34073 
L 169.017204 243.648 
L 168.4224 244.265378 
L 165.655661 247.104 
L 164.8512 247.87593 
L 162.03887 250.56 
L 161.28 251.237816 
L 158.1696 254.016 
L 157.7088 254.401347 
L 154.1376 257.398301 
L 154.049602 257.472 
L 150.5664 260.20476 
L 149.654155 260.928 
L 146.9952 262.903485 
L 145.031748 264.384 
L 143.424 265.5203 
L 140.2042 267.84 
L 139.8528 268.077317 
L 136.2816 270.499363 
L 135.127136 271.296 
L 132.7104 272.859272 
L 129.862199 274.752 
L 129.1392 275.202536 
L 125.568 277.452375 
L 124.390363 278.208 
L 121.9968 279.648256 
L 118.754971 281.664 
L 118.4256 281.856107 
L 114.8544 283.949346 
L 112.916807 285.12 
L 111.2832 286.045927 
L 107.712 288.123284 
L 106.943003 288.576 
L 104.1408 290.12364 
L 100.821859 292.032 
L 100.5696 292.168158 
L 96.9984 294.102588 
L 94.536196 295.488 
L 93.4272 296.073793 
L 89.856 297.993261 
L 88.133023 298.944 
L 86.2848 299.90137 
L 82.7136 301.804936 
L 81.615755 302.4 
L 79.1424 303.658981 
L 75.5712 305.546535 
L 74.990923 305.856 
L 72 307.353772 
L 72 309.312 
L 72 312.768 
L 72 316.224 
L 72 319.68 
L 72 323.136 
L 72 326.592 
L 72 330.048 
L 72 333.504 
L 72 336.96 
L 72 340.416 
L 72 343.872 
L 72 347.328 
L 72 350.784 
L 72 354.24 
L 72 357.696 
L 72 361.152 
L 72 364.608 
L 72 368.064 
L 72 371.52 
L 72 374.976 
L 72 378.432 
L 72 381.888 
L 72 385.344 
L 72 388.8 
L 75.5712 388.8 
L 79.1424 388.8 
L 82.7136 388.8 
L 86.2848 388.8 
L 89.856 388.8 
L 93.4272 388.8 
L 96.9984 388.8 
L 100.5696 388.8 
L 104.1408 388.8 
L 107.712 388.8 
L 111.2832 388.8 
L 114.8544 388.8 
L 118.4256 388.8 
L 121.9968 388.8 
L 125.568 388.8 
L 129.1392 388.8 
L 131.500859 388.8 
L 132.7104 387.489649 
L 134.606975 385.344 
L 136.2816 383.52219 
L 137.718784 381.888 
L 139.8528 379.55648 
L 140.836571 378.432 
L 143.424 375.592552 
L 143.960553 374.976 
L 146.9952 371.630226 
L 147.090582 371.52 
L 150.215905 368.064 
L 150.5664 367.692895 
L 153.34413 364.608 
L 154.1376 363.764112 
L 156.476686 361.152 
L 157.7088 359.835617 
L 159.61417 357.696 
L 161.28 355.907302 
L 162.755689 354.24 
L 164.8512 351.978161 
L 165.901459 350.784 
L 168.4224 348.047914 
L 169.051243 347.328 
L 171.9936 344.114874 
L 172.204192 343.872 
L 175.351947 340.416 
L 175.5648 340.193545 
L 178.492795 336.96 
L 179.136 336.283595 
L 181.633977 333.504 
L 182.7072 332.367554 
L 184.774812 330.048 
L 186.2784 328.444108 
L 187.914705 326.592 
L 189.8496 324.510931 
L 191.05279 323.136 
L 193.4208 320.566306 
L 194.188293 319.68 
L 196.992 316.607421 
L 197.320271 316.224 
L 200.44127 312.768 
L 200.5632 312.639864 
L 203.53493 309.312 
L 204.1344 308.674584 
L 206.618537 305.856 
L 207.7056 304.685129 
L 209.690477 302.4 
L 211.2768 300.666527 
L 212.749404 298.944 
L 214.848 296.614026 
L 215.793893 295.488 
L 218.4192 292.521509 
L 218.822567 292.032 
L 221.820473 288.576 
L 221.9904 288.38883 
L 224.75898 285.12 
L 225.5616 284.215116 
L 227.669357 281.664 
L 229.1328 279.971041 
L 230.550253 278.208 
L 232.704 275.644532 
L 233.400339 274.752 
L 236.212712 271.296 
L 236.2752 271.221181 
L 238.904457 267.84 
L 239.8464 266.667479 
L 241.551349 264.384 
L 243.4176 261.960241 
L 244.154945 260.928 
L 246.680786 257.472 
L 246.9888 257.051879 
L 249.056037 254.016 
L 250.56 251.845325 
L 251.385113 250.56 
L 253.608379 247.104 
L 254.1312 246.276884 
L 255.66909 243.648 
L 257.7024 240.194116 
L 257.70355 240.192 
L 259.482617 236.736 
L 261.259658 233.28 
L 261.2736 233.250761 
L 262.776117 229.824 
L 264.251809 226.368 
L 264.8448 224.874001 
L 265.558598 222.912 
L 266.724549 219.456 
L 267.816713 216 
L 268.416 213.907462 
L 268.772889 212.544 
L 269.577525 209.088 
L 270.304707 205.632 
L 270.952752 202.176 
L 271.522207 198.72 
L 271.9872 195.454885 
L 272.012056 195.264 
L 272.385726 191.808 
L 272.700659 188.352 
L 272.960378 184.896 
L 273.168892 181.44 
L 273.330231 177.984 
L 273.448394 174.528 
L 273.527331 171.072 
L 273.570705 167.616 
L 273.582041 164.16 
L 273.564547 160.704 
L 273.521312 157.248 
L 273.454954 153.792 
L 273.368103 150.336 
L 273.262882 146.88 
L 273.141469 143.424 
L 273.005596 139.968 
L 272.857054 136.512 
L 272.697293 133.056 
L 272.527666 129.6 
L 272.349323 126.144 
L 272.163326 122.688 
L 271.9872 119.523012 
L 271.969499 119.232 
L 271.755762 115.776 
L 271.537143 112.32 
L 271.314171 108.864 
L 271.087736 105.408 
L 270.85826 101.952 
L 270.626371 98.496 
L 270.392405 95.04 
L 270.156867 91.584 
L 269.920134 88.128 
L 269.682466 84.672 
L 269.444213 81.216 
L 269.205541 77.76 
L 268.966778 74.304 
L 268.728083 70.848 
L 268.489492 67.392 
L 268.416 66.318079 
L 268.241398 63.936 
L 267.989511 60.48 
L 267.738494 57.024 
L 267.488534 53.568 
L 267.239567 50.112 
L 266.991929 46.656 
L 266.745321 43.2 
z
" style="fill:#eb7d62;"/>
   </g>
   <g id="PathCollection_8">
    <path clip-path="url(#p5022565236)" d="M 150.5664 43.9337 
L 150.233756 43.2 
L 146.9952 43.2 
L 143.424 43.2 
L 139.8528 43.2 
L 136.2816 43.2 
L 132.7104 43.2 
L 129.1392 43.2 
L 125.568 43.2 
L 121.9968 43.2 
L 118.4256 43.2 
L 114.8544 43.2 
L 111.2832 43.2 
L 107.712 43.2 
L 104.1408 43.2 
L 100.5696 43.2 
L 96.9984 43.2 
L 93.4272 43.2 
L 89.856 43.2 
L 86.2848 43.2 
L 82.7136 43.2 
L 79.1424 43.2 
L 75.5712 43.2 
L 72 43.2 
L 72 46.656 
L 72 50.112 
L 72 53.568 
L 72 57.024 
L 72 60.48 
L 72 63.936 
L 72 67.392 
L 72 70.848 
L 72 74.304 
L 72 77.76 
L 72 81.216 
L 72 84.672 
L 72 88.128 
L 72 91.584 
L 72 95.04 
L 72 98.496 
L 72 101.952 
L 72 105.408 
L 72 108.864 
L 72 112.32 
L 72 115.776 
L 72 119.232 
L 72 122.688 
L 72 126.144 
L 72 129.6 
L 72 133.056 
L 72 136.512 
L 72 139.968 
L 72 143.424 
L 72 146.88 
L 72 150.336 
L 72 153.792 
L 72 157.248 
L 72 160.704 
L 72 164.16 
L 72 167.616 
L 72 171.072 
L 72 174.528 
L 72 177.984 
L 72 181.44 
L 72 184.896 
L 72 188.352 
L 72 191.808 
L 72 195.264 
L 72 198.72 
L 72 202.176 
L 72 205.632 
L 72 209.088 
L 72 212.544 
L 72 216 
L 72 219.456 
L 72 222.912 
L 72 226.368 
L 72 229.824 
L 72 233.28 
L 72 236.736 
L 72 240.192 
L 72 243.648 
L 72 247.104 
L 72 250.56 
L 72 254.016 
L 72 257.472 
L 72 260.928 
L 72 264.384 
L 72 267.84 
L 72 271.296 
L 72 274.752 
L 72 278.208 
L 72 281.664 
L 72 285.12 
L 72 288.576 
L 72 292.032 
L 72 295.488 
L 72 298.944 
L 72 302.4 
L 72 305.856 
L 72 307.353772 
L 74.990923 305.856 
L 75.5712 305.546535 
L 79.1424 303.658981 
L 81.615755 302.4 
L 82.7136 301.804936 
L 86.2848 299.90137 
L 88.133023 298.944 
L 89.856 297.993261 
L 93.4272 296.073793 
L 94.536196 295.488 
L 96.9984 294.102588 
L 100.5696 292.168158 
L 100.821859 292.032 
L 104.1408 290.12364 
L 106.943003 288.576 
L 107.712 288.123284 
L 111.2832 286.045927 
L 112.916807 285.12 
L 114.8544 283.949346 
L 118.4256 281.856107 
L 118.754971 281.664 
L 121.9968 279.648256 
L 124.390363 278.208 
L 125.568 277.452375 
L 129.1392 275.202536 
L 129.862199 274.752 
L 132.7104 272.859272 
L 135.127136 271.296 
L 136.2816 270.499363 
L 139.8528 268.077317 
L 140.2042 267.84 
L 143.424 265.5203 
L 145.031748 264.384 
L 146.9952 262.903485 
L 149.654155 260.928 
L 150.5664 260.20476 
L 154.049602 257.472 
L 154.1376 257.398301 
L 157.7088 254.401347 
L 158.1696 254.016 
L 161.28 251.237816 
L 162.03887 250.56 
L 164.8512 247.87593 
L 165.655661 247.104 
L 168.4224 244.265378 
L 169.017204 243.648 
L 171.9936 240.34073 
L 172.125232 240.192 
L 174.94961 236.736 
L 175.5648 235.925479 
L 177.51785 233.28 
L 179.136 230.919268 
L 179.861592 229.824 
L 181.955243 226.368 
L 182.7072 225.004281 
L 183.810227 222.912 
L 185.458335 219.456 
L 186.2784 217.530332 
L 186.895137 216 
L 188.118064 212.544 
L 189.183067 209.088 
L 189.8496 206.547077 
L 190.073769 205.632 
L 190.772343 202.176 
L 191.332508 198.72 
L 191.758455 195.264 
L 192.057779 191.808 
L 192.236981 188.352 
L 192.303224 184.896 
L 192.263942 181.44 
L 192.127424 177.984 
L 191.901328 174.528 
L 191.593068 171.072 
L 191.210371 167.616 
L 190.759893 164.16 
L 190.248734 160.704 
L 189.8496 158.280161 
L 189.668805 157.248 
L 189.003457 153.792 
L 188.292406 150.336 
L 187.54081 146.88 
L 186.753645 143.424 
L 186.2784 141.431964 
L 185.908806 139.968 
L 184.996844 136.512 
L 184.062706 133.056 
L 183.108514 129.6 
L 182.7072 128.189034 
L 182.094049 126.144 
L 181.035278 122.688 
L 179.967015 119.232 
L 179.136 116.575817 
L 178.872886 115.776 
L 177.710942 112.32 
L 176.547807 108.864 
L 175.5648 105.953203 
L 175.371692 105.408 
L 174.125707 101.952 
L 172.88563 98.496 
L 171.9936 96.014945 
L 171.626877 95.04 
L 170.313553 91.584 
L 169.010756 88.128 
L 168.4224 86.574742 
L 167.670299 84.672 
L 166.303384 81.216 
L 164.951634 77.76 
L 164.8512 77.506222 
L 163.531491 74.304 
L 162.123011 70.848 
L 161.28 68.773791 
L 160.696054 67.392 
L 159.23483 63.936 
L 157.794018 60.48 
L 157.7088 60.277306 
L 156.289607 57.024 
L 154.802501 53.568 
L 154.1376 52.020105 
L 153.288418 50.112 
L 151.759107 46.656 
z
" style="fill:#ca3b37;"/>
   </g>
   <g id="patch_3">
    <path d="M 72 43.2 
L 429.12 43.2 
" style="fill:none;stroke:#000000;stroke-linecap:square;stroke-linejoin:miter;"/>
   </g>
   <g id="patch_4">
    <path d="M 429.12 388.8 
L 429.12 43.2 
" style="fill:none;stroke:#000000;stroke-linecap:square;stroke-linejoin:miter;"/>
   </g>
   <g id="patch_5">
    <path d="M 72 388.8 
L 429.12 388.8 
" style="fill:none;stroke:#000000;stroke-linecap:square;stroke-linejoin:miter;"/>
   </g>
   <g id="patch_6">
    <path d="M 72 388.8 
L 72 43.2 
" style="fill:none;stroke:#000000;stroke-linecap:square;stroke-linejoin:miter;"/>
   </g>
   <g id="matplotlib.axis_1">
    <g id="xtick_1">
     <g id="line2d_1">
      <path clip-path="url(#p5022565236)" d="M 72 388.8 
L 72 43.2 
" style="fill:none;stroke:#000000;stroke-dasharray:1.000000,3.000000;stroke-dashoffset:0.0;stroke-width:0.5;"/>
     </g>
     <g id="line2d_2">
      <defs>
       <path d="M 0 0 
L 0 -4 
" id="m62a8cc02b7" style="stroke:#000000;stroke-width:0.5;"/>
      </defs>
      <g>
       <use style="stroke:#000000;stroke-width:0.5;" x="72.0" xlink:href="#m62a8cc02b7" y="388.8"/>
      </g>
     </g>
     <g id="line2d_3">
      <defs>
       <path d="M 0 0 
L 0 4 
" id="ma6ff99d0d2" style="stroke:#000000;stroke-width:0.5;"/>
      </defs>
      <g>
       <use style="stroke:#000000;stroke-width:0.5;" x="72.0" xlink:href="#ma6ff99d0d2" y="43.19999999999999"/>
      </g>
     </g>
     <g id="text_1">
      <!-- −2.0 -->
      <defs>
       <path d="M 10.59375 35.5 
L 73.1875 35.5 
L 73.1875 27.203125 
L 10.59375 27.203125 
z
" id="BitstreamVeraSans-Roman-2212"/>
       <path d="M 19.1875 8.296875 
L 53.609375 8.296875 
L 53.609375 0 
L 7.328125 0 
L 7.328125 8.296875 
Q 12.9375 14.109375 22.625 23.890625 
Q 32.328125 33.6875 34.8125 36.53125 
Q 39.546875 41.84375 41.421875 45.53125 
Q 43.3125 49.21875 43.3125 52.78125 
Q 43.3125 58.59375 39.234375 62.25 
Q 35.15625 65.921875 28.609375 65.921875 
Q 23.96875 65.921875 18.8125 64.3125 
Q 13.671875 62.703125 7.8125 59.421875 
L 7.8125 69.390625 
Q 13.765625 71.78125 18.9375 73 
Q 24.125 74.21875 28.421875 74.21875 
Q 39.75 74.21875 46.484375 68.546875 
Q 53.21875 62.890625 53.21875 53.421875 
Q 53.21875 48.921875 51.53125 44.890625 
Q 49.859375 40.875 45.40625 35.40625 
Q 44.1875 33.984375 37.640625 27.21875 
Q 31.109375 20.453125 19.1875 8.296875 
" id="BitstreamVeraSans-Roman-32"/>
       <path d="M 31.78125 66.40625 
Q 24.171875 66.40625 20.328125 58.90625 
Q 16.5 51.421875 16.5 36.375 
Q 16.5 21.390625 20.328125 13.890625 
Q 24.171875 6.390625 31.78125 6.390625 
Q 39.453125 6.390625 43.28125 13.890625 
Q 47.125 21.390625 47.125 36.375 
Q 47.125 51.421875 43.28125 58.90625 
Q 39.453125 66.40625 31.78125 66.40625 
M 31.78125 74.21875 
Q 44.046875 74.21875 50.515625 64.515625 
Q 56.984375 54.828125 56.984375 36.375 
Q 56.984375 17.96875 50.515625 8.265625 
Q 44.046875 -1.421875 31.78125 -1.421875 
Q 19.53125 -1.421875 13.0625 8.265625 
Q 6.59375 17.96875 6.59375 36.375 
Q 6.59375 54.828125 13.0625 64.515625 
Q 19.53125 74.21875 31.78125 74.21875 
" id="BitstreamVeraSans-Roman-30"/>
       <path d="M 10.6875 12.40625 
L 21 12.40625 
L 21 0 
L 10.6875 0 
z
" id="BitstreamVeraSans-Roman-2e"/>
      </defs>
      <g transform="translate(57.4303125 401.91812500000003)scale(0.12 -0.12)">
       <use xlink:href="#BitstreamVeraSans-Roman-2212"/>
       <use x="83.7890625" xlink:href="#BitstreamVeraSans-Roman-32"/>
       <use x="147.412109375" xlink:href="#BitstreamVeraSans-Roman-2e"/>
       <use x="179.19921875" xlink:href="#BitstreamVeraSans-Roman-30"/>
      </g>
     </g>
    </g>
    <g id="xtick_2">
     <g id="line2d_4">
      <path clip-path="url(#p5022565236)" d="M 116.64 388.8 
L 116.64 43.2 
" style="fill:none;stroke:#000000;stroke-dasharray:1.000000,3.000000;stroke-dashoffset:0.0;stroke-width:0.5;"/>
     </g>
     <g id="line2d_5">
      <g>
       <use style="stroke:#000000;stroke-width:0.5;" x="116.63999999999999" xlink:href="#m62a8cc02b7" y="388.8"/>
      </g>
     </g>
     <g id="line2d_6">
      <g>
       <use style="stroke:#000000;stroke-width:0.5;" x="116.63999999999999" xlink:href="#ma6ff99d0d2" y="43.19999999999999"/>
      </g>
     </g>
     <g id="text_2">
      <!-- −1.5 -->
      <defs>
       <path d="M 12.40625 8.296875 
L 28.515625 8.296875 
L 28.515625 63.921875 
L 10.984375 60.40625 
L 10.984375 69.390625 
L 28.421875 72.90625 
L 38.28125 72.90625 
L 38.28125 8.296875 
L 54.390625 8.296875 
L 54.390625 0 
L 12.40625 0 
z
" id="BitstreamVeraSans-Roman-31"/>
       <path d="M 10.796875 72.90625 
L 49.515625 72.90625 
L 49.515625 64.59375 
L 19.828125 64.59375 
L 19.828125 46.734375 
Q 21.96875 47.46875 24.109375 47.828125 
Q 26.265625 48.1875 28.421875 48.1875 
Q 40.625 48.1875 47.75 41.5 
Q 54.890625 34.8125 54.890625 23.390625 
Q 54.890625 11.625 47.5625 5.09375 
Q 40.234375 -1.421875 26.90625 -1.421875 
Q 22.3125 -1.421875 17.546875 -0.640625 
Q 12.796875 0.140625 7.71875 1.703125 
L 7.71875 11.625 
Q 12.109375 9.234375 16.796875 8.0625 
Q 21.484375 6.890625 26.703125 6.890625 
Q 35.15625 6.890625 40.078125 11.328125 
Q 45.015625 15.765625 45.015625 23.390625 
Q 45.015625 31 40.078125 35.4375 
Q 35.15625 39.890625 26.703125 39.890625 
Q 22.75 39.890625 18.8125 39.015625 
Q 14.890625 38.140625 10.796875 36.28125 
z
" id="BitstreamVeraSans-Roman-35"/>
      </defs>
      <g transform="translate(102.07031249999999 401.91812500000003)scale(0.12 -0.12)">
       <use xlink:href="#BitstreamVeraSans-Roman-2212"/>
       <use x="83.7890625" xlink:href="#BitstreamVeraSans-Roman-31"/>
       <use x="147.412109375" xlink:href="#BitstreamVeraSans-Roman-2e"/>
       <use x="179.19921875" xlink:href="#BitstreamVeraSans-Roman-35"/>
      </g>
     </g>
    </g>
    <g id="xtick_3">
     <g id="line2d_7">
      <path clip-path="url(#p5022565236)" d="M 161.28 388.8 
L 161.28 43.2 
" style="fill:none;stroke:#000000;stroke-dasharray:1.000000,3.000000;stroke-dashoffset:0.0;stroke-width:0.5;"/>
     </g>
     <g id="line2d_8">
      <g>
       <use style="stroke:#000000;stroke-width:0.5;" x="161.28" xlink:href="#m62a8cc02b7" y="388.8"/>
      </g>
     </g>
     <g id="line2d_9">
      <g>
       <use style="stroke:#000000;stroke-width:0.5;" x="161.28" xlink:href="#ma6ff99d0d2" y="43.19999999999999"/>
      </g>
     </g>
     <g id="text_3">
      <!-- −1.0 -->
      <g transform="translate(146.71031250000001 401.91812500000003)scale(0.12 -0.12)">
       <use xlink:href="#BitstreamVeraSans-Roman-2212"/>
       <use x="83.7890625" xlink:href="#BitstreamVeraSans-Roman-31"/>
       <use x="147.412109375" xlink:href="#BitstreamVeraSans-Roman-2e"/>
       <use x="179.19921875" xlink:href="#BitstreamVeraSans-Roman-30"/>
      </g>
     </g>
    </g>
    <g id="xtick_4">
     <g id="line2d_10">
      <path clip-path="url(#p5022565236)" d="M 205.92 388.8 
L 205.92 43.2 
" style="fill:none;stroke:#000000;stroke-dasharray:1.000000,3.000000;stroke-dashoffset:0.0;stroke-width:0.5;"/>
     </g>
     <g id="line2d_11">
      <g>
       <use style="stroke:#000000;stroke-width:0.5;" x="205.92000000000002" xlink:href="#m62a8cc02b7" y="388.8"/>
      </g>
     </g>
     <g id="line2d_12">
      <g>
       <use style="stroke:#000000;stroke-width:0.5;" x="205.92000000000002" xlink:href="#ma6ff99d0d2" y="43.19999999999999"/>
      </g>
     </g>
     <g id="text_4">
      <!-- −0.5 -->
      <g transform="translate(191.35031250000003 401.91812500000003)scale(0.12 -0.12)">
       <use xlink:href="#BitstreamVeraSans-Roman-2212"/>
       <use x="83.7890625" xlink:href="#BitstreamVeraSans-Roman-30"/>
       <use x="147.412109375" xlink:href="#BitstreamVeraSans-Roman-2e"/>
       <use x="179.19921875" xlink:href="#BitstreamVeraSans-Roman-35"/>
      </g>
     </g>
    </g>
    <g id="xtick_5">
     <g id="line2d_13">
      <path clip-path="url(#p5022565236)" d="M 250.56 388.8 
L 250.56 43.2 
" style="fill:none;stroke:#000000;stroke-dasharray:1.000000,3.000000;stroke-dashoffset:0.0;stroke-width:0.5;"/>
     </g>
     <g id="line2d_14">
      <g>
       <use style="stroke:#000000;stroke-width:0.5;" x="250.56" xlink:href="#m62a8cc02b7" y="388.8"/>
      </g>
     </g>
     <g id="line2d_15">
      <g>
       <use style="stroke:#000000;stroke-width:0.5;" x="250.56" xlink:href="#ma6ff99d0d2" y="43.19999999999999"/>
      </g>
     </g>
     <g id="text_5">
      <!-- 0.0 -->
      <g transform="translate(241.018125 401.91812500000003)scale(0.12 -0.12)">
       <use xlink:href="#BitstreamVeraSans-Roman-30"/>
       <use x="63.623046875" xlink:href="#BitstreamVeraSans-Roman-2e"/>
       <use x="95.41015625" xlink:href="#BitstreamVeraSans-Roman-30"/>
      </g>
     </g>
    </g>
    <g id="xtick_6">
     <g id="line2d_16">
      <path clip-path="url(#p5022565236)" d="M 295.2 388.8 
L 295.2 43.2 
" style="fill:none;stroke:#000000;stroke-dasharray:1.000000,3.000000;stroke-dashoffset:0.0;stroke-width:0.5;"/>
     </g>
     <g id="line2d_17">
      <g>
       <use style="stroke:#000000;stroke-width:0.5;" x="295.2" xlink:href="#m62a8cc02b7" y="388.8"/>
      </g>
     </g>
     <g id="line2d_18">
      <g>
       <use style="stroke:#000000;stroke-width:0.5;" x="295.2" xlink:href="#ma6ff99d0d2" y="43.19999999999999"/>
      </g>
     </g>
     <g id="text_6">
      <!-- 0.5 -->
      <g transform="translate(285.658125 401.91812500000003)scale(0.12 -0.12)">
       <use xlink:href="#BitstreamVeraSans-Roman-30"/>
       <use x="63.623046875" xlink:href="#BitstreamVeraSans-Roman-2e"/>
       <use x="95.41015625" xlink:href="#BitstreamVeraSans-Roman-35"/>
      </g>
     </g>
    </g>
    <g id="xtick_7">
     <g id="line2d_19">
      <path clip-path="url(#p5022565236)" d="M 339.84 388.8 
L 339.84 43.2 
" style="fill:none;stroke:#000000;stroke-dasharray:1.000000,3.000000;stroke-dashoffset:0.0;stroke-width:0.5;"/>
     </g>
     <g id="line2d_20">
      <g>
       <use style="stroke:#000000;stroke-width:0.5;" x="339.84000000000003" xlink:href="#m62a8cc02b7" y="388.8"/>
      </g>
     </g>
     <g id="line2d_21">
      <g>
       <use style="stroke:#000000;stroke-width:0.5;" x="339.84000000000003" xlink:href="#ma6ff99d0d2" y="43.19999999999999"/>
      </g>
     </g>
     <g id="text_7">
      <!-- 1.0 -->
      <g transform="translate(330.298125 401.91812500000003)scale(0.12 -0.12)">
       <use xlink:href="#BitstreamVeraSans-Roman-31"/>
       <use x="63.623046875" xlink:href="#BitstreamVeraSans-Roman-2e"/>
       <use x="95.41015625" xlink:href="#BitstreamVeraSans-Roman-30"/>
      </g>
     </g>
    </g>
    <g id="xtick_8">
     <g id="line2d_22">
      <path clip-path="url(#p5022565236)" d="M 384.48 388.8 
L 384.48 43.2 
" style="fill:none;stroke:#000000;stroke-dasharray:1.000000,3.000000;stroke-dashoffset:0.0;stroke-width:0.5;"/>
     </g>
     <g id="line2d_23">
      <g>
       <use style="stroke:#000000;stroke-width:0.5;" x="384.48" xlink:href="#m62a8cc02b7" y="388.8"/>
      </g>
     </g>
     <g id="line2d_24">
      <g>
       <use style="stroke:#000000;stroke-width:0.5;" x="384.48" xlink:href="#ma6ff99d0d2" y="43.19999999999999"/>
      </g>
     </g>
     <g id="text_8">
      <!-- 1.5 -->
      <g transform="translate(374.938125 401.91812500000003)scale(0.12 -0.12)">
       <use xlink:href="#BitstreamVeraSans-Roman-31"/>
       <use x="63.623046875" xlink:href="#BitstreamVeraSans-Roman-2e"/>
       <use x="95.41015625" xlink:href="#BitstreamVeraSans-Roman-35"/>
      </g>
     </g>
    </g>
    <g id="xtick_9">
     <g id="line2d_25">
      <path clip-path="url(#p5022565236)" d="M 429.12 388.8 
L 429.12 43.2 
" style="fill:none;stroke:#000000;stroke-dasharray:1.000000,3.000000;stroke-dashoffset:0.0;stroke-width:0.5;"/>
     </g>
     <g id="line2d_26">
      <g>
       <use style="stroke:#000000;stroke-width:0.5;" x="429.12" xlink:href="#m62a8cc02b7" y="388.8"/>
      </g>
     </g>
     <g id="line2d_27">
      <g>
       <use style="stroke:#000000;stroke-width:0.5;" x="429.12" xlink:href="#ma6ff99d0d2" y="43.19999999999999"/>
      </g>
     </g>
     <g id="text_9">
      <!-- 2.0 -->
      <g transform="translate(419.578125 401.91812500000003)scale(0.12 -0.12)">
       <use xlink:href="#BitstreamVeraSans-Roman-32"/>
       <use x="63.623046875" xlink:href="#BitstreamVeraSans-Roman-2e"/>
       <use x="95.41015625" xlink:href="#BitstreamVeraSans-Roman-30"/>
      </g>
     </g>
    </g>
    <g id="text_10">
     <!-- x -->
     <defs>
      <path d="M 54.890625 54.6875 
L 35.109375 28.078125 
L 55.90625 0 
L 45.3125 0 
L 29.390625 21.484375 
L 13.484375 0 
L 2.875 0 
L 24.125 28.609375 
L 4.6875 54.6875 
L 15.28125 54.6875 
L 29.78125 35.203125 
L 44.28125 54.6875 
z
" id="BitstreamVeraSans-Roman-78"/>
     </defs>
     <g transform="translate(247.00875 418.531875)scale(0.12 -0.12)">
      <use xlink:href="#BitstreamVeraSans-Roman-78"/>
     </g>
    </g>
   </g>
   <g id="matplotlib.axis_2">
    <g id="ytick_1">
     <g id="line2d_28">
      <path clip-path="url(#p5022565236)" d="M 72 388.8 
L 429.12 388.8 
" style="fill:none;stroke:#000000;stroke-dasharray:1.000000,3.000000;stroke-dashoffset:0.0;stroke-width:0.5;"/>
     </g>
     <g id="line2d_29">
      <defs>
       <path d="M 0 0 
L 4 0 
" id="mc4cead0da1" style="stroke:#000000;stroke-width:0.5;"/>
      </defs>
      <g>
       <use style="stroke:#000000;stroke-width:0.5;" x="72.0" xlink:href="#mc4cead0da1" y="388.8"/>
      </g>
     </g>
     <g id="line2d_30">
      <defs>
       <path d="M 0 0 
L -4 0 
" id="m0335c964fa" style="stroke:#000000;stroke-width:0.5;"/>
      </defs>
      <g>
       <use style="stroke:#000000;stroke-width:0.5;" x="429.12" xlink:href="#m0335c964fa" y="388.8"/>
      </g>
     </g>
     <g id="text_11">
      <!-- −2.0 -->
      <g transform="translate(38.860625 392.11125000000004)scale(0.12 -0.12)">
       <use xlink:href="#BitstreamVeraSans-Roman-2212"/>
       <use x="83.7890625" xlink:href="#BitstreamVeraSans-Roman-32"/>
       <use x="147.412109375" xlink:href="#BitstreamVeraSans-Roman-2e"/>
       <use x="179.19921875" xlink:href="#BitstreamVeraSans-Roman-30"/>
      </g>
     </g>
    </g>
    <g id="ytick_2">
     <g id="line2d_31">
      <path clip-path="url(#p5022565236)" d="M 72 345.6 
L 429.12 345.6 
" style="fill:none;stroke:#000000;stroke-dasharray:1.000000,3.000000;stroke-dashoffset:0.0;stroke-width:0.5;"/>
     </g>
     <g id="line2d_32">
      <g>
       <use style="stroke:#000000;stroke-width:0.5;" x="72.0" xlink:href="#mc4cead0da1" y="345.6"/>
      </g>
     </g>
     <g id="line2d_33">
      <g>
       <use style="stroke:#000000;stroke-width:0.5;" x="429.12" xlink:href="#m0335c964fa" y="345.6"/>
      </g>
     </g>
     <g id="text_12">
      <!-- −1.5 -->
      <g transform="translate(38.860625 348.91125)scale(0.12 -0.12)">
       <use xlink:href="#BitstreamVeraSans-Roman-2212"/>
       <use x="83.7890625" xlink:href="#BitstreamVeraSans-Roman-31"/>
       <use x="147.412109375" xlink:href="#BitstreamVeraSans-Roman-2e"/>
       <use x="179.19921875" xlink:href="#BitstreamVeraSans-Roman-35"/>
      </g>
     </g>
    </g>
    <g id="ytick_3">
     <g id="line2d_34">
      <path clip-path="url(#p5022565236)" d="M 72 302.4 
L 429.12 302.4 
" style="fill:none;stroke:#000000;stroke-dasharray:1.000000,3.000000;stroke-dashoffset:0.0;stroke-width:0.5;"/>
     </g>
     <g id="line2d_35">
      <g>
       <use style="stroke:#000000;stroke-width:0.5;" x="72.0" xlink:href="#mc4cead0da1" y="302.4"/>
      </g>
     </g>
     <g id="line2d_36">
      <g>
       <use style="stroke:#000000;stroke-width:0.5;" x="429.12" xlink:href="#m0335c964fa" y="302.4"/>
      </g>
     </g>
     <g id="text_13">
      <!-- −1.0 -->
      <g transform="translate(38.860625 305.71125)scale(0.12 -0.12)">
       <use xlink:href="#BitstreamVeraSans-Roman-2212"/>
       <use x="83.7890625" xlink:href="#BitstreamVeraSans-Roman-31"/>
       <use x="147.412109375" xlink:href="#BitstreamVeraSans-Roman-2e"/>
       <use x="179.19921875" xlink:href="#BitstreamVeraSans-Roman-30"/>
      </g>
     </g>
    </g>
    <g id="ytick_4">
     <g id="line2d_37">
      <path clip-path="url(#p5022565236)" d="M 72 259.2 
L 429.12 259.2 
" style="fill:none;stroke:#000000;stroke-dasharray:1.000000,3.000000;stroke-dashoffset:0.0;stroke-width:0.5;"/>
     </g>
     <g id="line2d_38">
      <g>
       <use style="stroke:#000000;stroke-width:0.5;" x="72.0" xlink:href="#mc4cead0da1" y="259.2"/>
      </g>
     </g>
     <g id="line2d_39">
      <g>
       <use style="stroke:#000000;stroke-width:0.5;" x="429.12" xlink:href="#m0335c964fa" y="259.2"/>
      </g>
     </g>
     <g id="text_14">
      <!-- −0.5 -->
      <g transform="translate(38.860625 262.51125)scale(0.12 -0.12)">
       <use xlink:href="#BitstreamVeraSans-Roman-2212"/>
       <use x="83.7890625" xlink:href="#BitstreamVeraSans-Roman-30"/>
       <use x="147.412109375" xlink:href="#BitstreamVeraSans-Roman-2e"/>
       <use x="179.19921875" xlink:href="#BitstreamVeraSans-Roman-35"/>
      </g>
     </g>
    </g>
    <g id="ytick_5">
     <g id="line2d_40">
      <path clip-path="url(#p5022565236)" d="M 72 216 
L 429.12 216 
" style="fill:none;stroke:#000000;stroke-dasharray:1.000000,3.000000;stroke-dashoffset:0.0;stroke-width:0.5;"/>
     </g>
     <g id="line2d_41">
      <g>
       <use style="stroke:#000000;stroke-width:0.5;" x="72.0" xlink:href="#mc4cead0da1" y="216.0"/>
      </g>
     </g>
     <g id="line2d_42">
      <g>
       <use style="stroke:#000000;stroke-width:0.5;" x="429.12" xlink:href="#m0335c964fa" y="216.0"/>
      </g>
     </g>
     <g id="text_15">
      <!-- 0.0 -->
      <g transform="translate(48.916250000000005 219.31125)scale(0.12 -0.12)">
       <use xlink:href="#BitstreamVeraSans-Roman-30"/>
       <use x="63.623046875" xlink:href="#BitstreamVeraSans-Roman-2e"/>
       <use x="95.41015625" xlink:href="#BitstreamVeraSans-Roman-30"/>
      </g>
     </g>
    </g>
    <g id="ytick_6">
     <g id="line2d_43">
      <path clip-path="url(#p5022565236)" d="M 72 172.8 
L 429.12 172.8 
" style="fill:none;stroke:#000000;stroke-dasharray:1.000000,3.000000;stroke-dashoffset:0.0;stroke-width:0.5;"/>
     </g>
     <g id="line2d_44">
      <g>
       <use style="stroke:#000000;stroke-width:0.5;" x="72.0" xlink:href="#mc4cead0da1" y="172.8"/>
      </g>
     </g>
     <g id="line2d_45">
      <g>
       <use style="stroke:#000000;stroke-width:0.5;" x="429.12" xlink:href="#m0335c964fa" y="172.8"/>
      </g>
     </g>
     <g id="text_16">
      <!-- 0.5 -->
      <g transform="translate(48.916250000000005 176.11125)scale(0.12 -0.12)">
       <use xlink:href="#BitstreamVeraSans-Roman-30"/>
       <use x="63.623046875" xlink:href="#BitstreamVeraSans-Roman-2e"/>
       <use x="95.41015625" xlink:href="#BitstreamVeraSans-Roman-35"/>
      </g>
     </g>
    </g>
    <g id="ytick_7">
     <g id="line2d_46">
      <path clip-path="url(#p5022565236)" d="M 72 129.6 
L 429.12 129.6 
" style="fill:none;stroke:#000000;stroke-dasharray:1.000000,3.000000;stroke-dashoffset:0.0;stroke-width:0.5;"/>
     </g>
     <g id="line2d_47">
      <g>
       <use style="stroke:#000000;stroke-width:0.5;" x="72.0" xlink:href="#mc4cead0da1" y="129.6"/>
      </g>
     </g>
     <g id="line2d_48">
      <g>
       <use style="stroke:#000000;stroke-width:0.5;" x="429.12" xlink:href="#m0335c964fa" y="129.6"/>
      </g>
     </g>
     <g id="text_17">
      <!-- 1.0 -->
      <g transform="translate(48.916250000000005 132.91125)scale(0.12 -0.12)">
       <use xlink:href="#BitstreamVeraSans-Roman-31"/>
       <use x="63.623046875" xlink:href="#BitstreamVeraSans-Roman-2e"/>
       <use x="95.41015625" xlink:href="#BitstreamVeraSans-Roman-30"/>
      </g>
     </g>
    </g>
    <g id="ytick_8">
     <g id="line2d_49">
      <path clip-path="url(#p5022565236)" d="M 72 86.4 
L 429.12 86.4 
" style="fill:none;stroke:#000000;stroke-dasharray:1.000000,3.000000;stroke-dashoffset:0.0;stroke-width:0.5;"/>
     </g>
     <g id="line2d_50">
      <g>
       <use style="stroke:#000000;stroke-width:0.5;" x="72.0" xlink:href="#mc4cead0da1" y="86.39999999999998"/>
      </g>
     </g>
     <g id="line2d_51">
      <g>
       <use style="stroke:#000000;stroke-width:0.5;" x="429.12" xlink:href="#m0335c964fa" y="86.39999999999998"/>
      </g>
     </g>
     <g id="text_18">
      <!-- 1.5 -->
      <g transform="translate(48.916250000000005 89.71124999999995)scale(0.12 -0.12)">
       <use xlink:href="#BitstreamVeraSans-Roman-31"/>
       <use x="63.623046875" xlink:href="#BitstreamVeraSans-Roman-2e"/>
       <use x="95.41015625" xlink:href="#BitstreamVeraSans-Roman-35"/>
      </g>
     </g>
    </g>
    <g id="ytick_9">
     <g id="line2d_52">
      <path clip-path="url(#p5022565236)" d="M 72 43.2 
L 429.12 43.2 
" style="fill:none;stroke:#000000;stroke-dasharray:1.000000,3.000000;stroke-dashoffset:0.0;stroke-width:0.5;"/>
     </g>
     <g id="line2d_53">
      <g>
       <use style="stroke:#000000;stroke-width:0.5;" x="72.0" xlink:href="#mc4cead0da1" y="43.19999999999999"/>
      </g>
     </g>
     <g id="line2d_54">
      <g>
       <use style="stroke:#000000;stroke-width:0.5;" x="429.12" xlink:href="#m0335c964fa" y="43.19999999999999"/>
      </g>
     </g>
     <g id="text_19">
      <!-- 2.0 -->
      <g transform="translate(48.916250000000005 46.51124999999996)scale(0.12 -0.12)">
       <use xlink:href="#BitstreamVeraSans-Roman-32"/>
       <use x="63.623046875" xlink:href="#BitstreamVeraSans-Roman-2e"/>
       <use x="95.41015625" xlink:href="#BitstreamVeraSans-Roman-30"/>
      </g>
     </g>
    </g>
    <g id="text_20">
     <!-- y -->
     <defs>
      <path d="M 32.171875 -5.078125 
Q 28.375 -14.84375 24.75 -17.8125 
Q 21.140625 -20.796875 15.09375 -20.796875 
L 7.90625 -20.796875 
L 7.90625 -13.28125 
L 13.1875 -13.28125 
Q 16.890625 -13.28125 18.9375 -11.515625 
Q 21 -9.765625 23.484375 -3.21875 
L 25.09375 0.875 
L 2.984375 54.6875 
L 12.5 54.6875 
L 29.59375 11.921875 
L 46.6875 54.6875 
L 56.203125 54.6875 
z
" id="BitstreamVeraSans-Roman-79"/>
     </defs>
     <g transform="translate(31.365 219.55125)rotate(-90.0)scale(0.12 -0.12)">
      <use xlink:href="#BitstreamVeraSans-Roman-79"/>
     </g>
    </g>
   </g>
  </g>
  <g id="axes_2">
   <g id="patch_7">
    <path clip-path="url(#pa080dbc556)" d="M 451.44 388.8 
L 451.44 345.6 
L 451.44 86.4 
L 451.44 43.2 
L 468.72 43.2 
L 468.72 86.4 
L 468.72 345.6 
L 468.72 388.8 
z
" style="fill:#ffffff;stroke:#ffffff;stroke-linejoin:miter;stroke-width:0.01;"/>
   </g>
   <g id="QuadMesh_1">
    <path clip-path="url(#pa080dbc556)" d="M 451.44 388.8 
L 468.72 388.8 
L 468.72 345.6 
L 451.44 345.6 
L 451.44 388.8 
" style="fill:#4c66d6;"/>
    <path clip-path="url(#pa080dbc556)" d="M 451.44 345.6 
L 468.72 345.6 
L 468.72 302.4 
L 451.44 302.4 
L 451.44 345.6 
" style="fill:#779af7;"/>
    <path clip-path="url(#pa080dbc556)" d="M 451.44 302.4 
L 468.72 302.4 
L 468.72 259.2 
L 451.44 259.2 
L 451.44 302.4 
" style="fill:#a3c2fe;"/>
    <path clip-path="url(#pa080dbc556)" d="M 451.44 259.2 
L 468.72 259.2 
L 468.72 216 
L 451.44 216 
L 451.44 259.2 
" style="fill:#ccd9ed;"/>
    <path clip-path="url(#pa080dbc556)" d="M 451.44 216 
L 468.72 216 
L 468.72 172.8 
L 451.44 172.8 
L 451.44 216 
" style="fill:#ecd3c5;"/>
    <path clip-path="url(#pa080dbc556)" d="M 451.44 172.8 
L 468.72 172.8 
L 468.72 129.6 
L 451.44 129.6 
L 451.44 172.8 
" style="fill:#f7b093;"/>
    <path clip-path="url(#pa080dbc556)" d="M 451.44 129.6 
L 468.72 129.6 
L 468.72 86.4 
L 451.44 86.4 
L 451.44 129.6 
" style="fill:#eb7d62;"/>
    <path clip-path="url(#pa080dbc556)" d="M 451.44 86.4 
L 468.72 86.4 
L 468.72 43.2 
L 451.44 43.2 
L 451.44 86.4 
" style="fill:#ca3b37;"/>
   </g>
   <g id="patch_8">
    <path d="M 451.44 388.8 
L 451.44 345.6 
L 451.44 86.4 
L 451.44 43.2 
L 468.72 43.2 
L 468.72 86.4 
L 468.72 345.6 
L 468.72 388.8 
L 451.44 388.8 
z
" style="fill:none;stroke:#000000;stroke-linejoin:miter;"/>
   </g>
   <g id="matplotlib.axis_3"/>
   <g id="matplotlib.axis_4">
    <g id="ytick_10">
     <g id="line2d_55">
      <g>
       <use style="stroke:#000000;stroke-width:0.5;" x="468.71999999999997" xlink:href="#m0335c964fa" y="388.8"/>
      </g>
     </g>
     <g id="text_21">
      <!-- −1.6 -->
      <defs>
       <path d="M 33.015625 40.375 
Q 26.375 40.375 22.484375 35.828125 
Q 18.609375 31.296875 18.609375 23.390625 
Q 18.609375 15.53125 22.484375 10.953125 
Q 26.375 6.390625 33.015625 6.390625 
Q 39.65625 6.390625 43.53125 10.953125 
Q 47.40625 15.53125 47.40625 23.390625 
Q 47.40625 31.296875 43.53125 35.828125 
Q 39.65625 40.375 33.015625 40.375 
M 52.59375 71.296875 
L 52.59375 62.3125 
Q 48.875 64.0625 45.09375 64.984375 
Q 41.3125 65.921875 37.59375 65.921875 
Q 27.828125 65.921875 22.671875 59.328125 
Q 17.53125 52.734375 16.796875 39.40625 
Q 19.671875 43.65625 24.015625 45.921875 
Q 28.375 48.1875 33.59375 48.1875 
Q 44.578125 48.1875 50.953125 41.515625 
Q 57.328125 34.859375 57.328125 23.390625 
Q 57.328125 12.15625 50.6875 5.359375 
Q 44.046875 -1.421875 33.015625 -1.421875 
Q 20.359375 -1.421875 13.671875 8.265625 
Q 6.984375 17.96875 6.984375 36.375 
Q 6.984375 53.65625 15.1875 63.9375 
Q 23.390625 74.21875 37.203125 74.21875 
Q 40.921875 74.21875 44.703125 73.484375 
Q 48.484375 72.75 52.59375 71.296875 
" id="BitstreamVeraSans-Roman-36"/>
      </defs>
      <g transform="translate(472.71999999999997 392.11125000000004)scale(0.12 -0.12)">
       <use xlink:href="#BitstreamVeraSans-Roman-2212"/>
       <use x="83.7890625" xlink:href="#BitstreamVeraSans-Roman-31"/>
       <use x="147.412109375" xlink:href="#BitstreamVeraSans-Roman-2e"/>
       <use x="179.19921875" xlink:href="#BitstreamVeraSans-Roman-36"/>
      </g>
     </g>
    </g>
    <g id="ytick_11">
     <g id="line2d_56">
      <g>
       <use style="stroke:#000000;stroke-width:0.5;" x="468.71999999999997" xlink:href="#m0335c964fa" y="345.6"/>
      </g>
     </g>
     <g id="text_22">
      <!-- −1.2 -->
      <g transform="translate(472.71999999999997 348.91125)scale(0.12 -0.12)">
       <use xlink:href="#BitstreamVeraSans-Roman-2212"/>
       <use x="83.7890625" xlink:href="#BitstreamVeraSans-Roman-31"/>
       <use x="147.412109375" xlink:href="#BitstreamVeraSans-Roman-2e"/>
       <use x="179.19921875" xlink:href="#BitstreamVeraSans-Roman-32"/>
      </g>
     </g>
    </g>
    <g id="ytick_12">
     <g id="line2d_57">
      <g>
       <use style="stroke:#000000;stroke-width:0.5;" x="468.71999999999997" xlink:href="#m0335c964fa" y="302.4"/>
      </g>
     </g>
     <g id="text_23">
      <!-- −0.8 -->
      <defs>
       <path d="M 31.78125 34.625 
Q 24.75 34.625 20.71875 30.859375 
Q 16.703125 27.09375 16.703125 20.515625 
Q 16.703125 13.921875 20.71875 10.15625 
Q 24.75 6.390625 31.78125 6.390625 
Q 38.8125 6.390625 42.859375 10.171875 
Q 46.921875 13.96875 46.921875 20.515625 
Q 46.921875 27.09375 42.890625 30.859375 
Q 38.875 34.625 31.78125 34.625 
M 21.921875 38.8125 
Q 15.578125 40.375 12.03125 44.71875 
Q 8.5 49.078125 8.5 55.328125 
Q 8.5 64.0625 14.71875 69.140625 
Q 20.953125 74.21875 31.78125 74.21875 
Q 42.671875 74.21875 48.875 69.140625 
Q 55.078125 64.0625 55.078125 55.328125 
Q 55.078125 49.078125 51.53125 44.71875 
Q 48 40.375 41.703125 38.8125 
Q 48.828125 37.15625 52.796875 32.3125 
Q 56.78125 27.484375 56.78125 20.515625 
Q 56.78125 9.90625 50.3125 4.234375 
Q 43.84375 -1.421875 31.78125 -1.421875 
Q 19.734375 -1.421875 13.25 4.234375 
Q 6.78125 9.90625 6.78125 20.515625 
Q 6.78125 27.484375 10.78125 32.3125 
Q 14.796875 37.15625 21.921875 38.8125 
M 18.3125 54.390625 
Q 18.3125 48.734375 21.84375 45.5625 
Q 25.390625 42.390625 31.78125 42.390625 
Q 38.140625 42.390625 41.71875 45.5625 
Q 45.3125 48.734375 45.3125 54.390625 
Q 45.3125 60.0625 41.71875 63.234375 
Q 38.140625 66.40625 31.78125 66.40625 
Q 25.390625 66.40625 21.84375 63.234375 
Q 18.3125 60.0625 18.3125 54.390625 
" id="BitstreamVeraSans-Roman-38"/>
      </defs>
      <g transform="translate(472.71999999999997 305.71125)scale(0.12 -0.12)">
       <use xlink:href="#BitstreamVeraSans-Roman-2212"/>
       <use x="83.7890625" xlink:href="#BitstreamVeraSans-Roman-30"/>
       <use x="147.412109375" xlink:href="#BitstreamVeraSans-Roman-2e"/>
       <use x="179.19921875" xlink:href="#BitstreamVeraSans-Roman-38"/>
      </g>
     </g>
    </g>
    <g id="ytick_13">
     <g id="line2d_58">
      <g>
       <use style="stroke:#000000;stroke-width:0.5;" x="468.71999999999997" xlink:href="#m0335c964fa" y="259.2"/>
      </g>
     </g>
     <g id="text_24">
      <!-- −0.4 -->
      <defs>
       <path d="M 37.796875 64.3125 
L 12.890625 25.390625 
L 37.796875 25.390625 
z
M 35.203125 72.90625 
L 47.609375 72.90625 
L 47.609375 25.390625 
L 58.015625 25.390625 
L 58.015625 17.1875 
L 47.609375 17.1875 
L 47.609375 0 
L 37.796875 0 
L 37.796875 17.1875 
L 4.890625 17.1875 
L 4.890625 26.703125 
z
" id="BitstreamVeraSans-Roman-34"/>
      </defs>
      <g transform="translate(472.71999999999997 262.51125)scale(0.12 -0.12)">
       <use xlink:href="#BitstreamVeraSans-Roman-2212"/>
       <use x="83.7890625" xlink:href="#BitstreamVeraSans-Roman-30"/>
       <use x="147.412109375" xlink:href="#BitstreamVeraSans-Roman-2e"/>
       <use x="179.19921875" xlink:href="#BitstreamVeraSans-Roman-34"/>
      </g>
     </g>
    </g>
    <g id="ytick_14">
     <g id="line2d_59">
      <g>
       <use style="stroke:#000000;stroke-width:0.5;" x="468.71999999999997" xlink:href="#m0335c964fa" y="216.0"/>
      </g>
     </g>
     <g id="text_25">
      <!-- 0.0 -->
      <g transform="translate(472.71999999999997 219.31125)scale(0.12 -0.12)">
       <use xlink:href="#BitstreamVeraSans-Roman-30"/>
       <use x="63.623046875" xlink:href="#BitstreamVeraSans-Roman-2e"/>
       <use x="95.41015625" xlink:href="#BitstreamVeraSans-Roman-30"/>
      </g>
     </g>
    </g>
    <g id="ytick_15">
     <g id="line2d_60">
      <g>
       <use style="stroke:#000000;stroke-width:0.5;" x="468.71999999999997" xlink:href="#m0335c964fa" y="172.8"/>
      </g>
     </g>
     <g id="text_26">
      <!-- 0.4 -->
      <g transform="translate(472.71999999999997 176.11125)scale(0.12 -0.12)">
       <use xlink:href="#BitstreamVeraSans-Roman-30"/>
       <use x="63.623046875" xlink:href="#BitstreamVeraSans-Roman-2e"/>
       <use x="95.41015625" xlink:href="#BitstreamVeraSans-Roman-34"/>
      </g>
     </g>
    </g>
    <g id="ytick_16">
     <g id="line2d_61">
      <g>
       <use style="stroke:#000000;stroke-width:0.5;" x="468.71999999999997" xlink:href="#m0335c964fa" y="129.59999999999997"/>
      </g>
     </g>
     <g id="text_27">
      <!-- 0.8 -->
      <g transform="translate(472.71999999999997 132.91124999999994)scale(0.12 -0.12)">
       <use xlink:href="#BitstreamVeraSans-Roman-30"/>
       <use x="63.623046875" xlink:href="#BitstreamVeraSans-Roman-2e"/>
       <use x="95.41015625" xlink:href="#BitstreamVeraSans-Roman-38"/>
      </g>
     </g>
    </g>
    <g id="ytick_17">
     <g id="line2d_62">
      <g>
       <use style="stroke:#000000;stroke-width:0.5;" x="468.71999999999997" xlink:href="#m0335c964fa" y="86.39999999999998"/>
      </g>
     </g>
     <g id="text_28">
      <!-- 1.2 -->
      <g transform="translate(472.71999999999997 89.71124999999995)scale(0.12 -0.12)">
       <use xlink:href="#BitstreamVeraSans-Roman-31"/>
       <use x="63.623046875" xlink:href="#BitstreamVeraSans-Roman-2e"/>
       <use x="95.41015625" xlink:href="#BitstreamVeraSans-Roman-32"/>
      </g>
     </g>
    </g>
    <g id="ytick_18">
     <g id="line2d_63">
      <g>
       <use style="stroke:#000000;stroke-width:0.5;" x="468.71999999999997" xlink:href="#m0335c964fa" y="43.19999999999999"/>
      </g>
     </g>
     <g id="text_29">
      <!-- 1.6 -->
      <g transform="translate(472.71999999999997 46.51124999999996)scale(0.12 -0.12)">
       <use xlink:href="#BitstreamVeraSans-Roman-31"/>
       <use x="63.623046875" xlink:href="#BitstreamVeraSans-Roman-2e"/>
       <use x="95.41015625" xlink:href="#BitstreamVeraSans-Roman-36"/>
      </g>
     </g>
    </g>
   </g>
  </g>
 </g>
 <defs>
  <clipPath id="pa080dbc556">
   <rect height="345.6" width="17.28000000000003" x="451.43999999999994" y="43.19999999999999"/>
  </clipPath>
  <clipPath id="p5022565236">
   <rect height="345.6" width="357.12" x="72.0" y="43.19999999999999"/>
  </clipPath>
 </defs>
</svg>
