<?xml version="1.0" encoding="utf-8" standalone="no"?>
<!DOCTYPE svg PUBLIC "-//W3C//DTD SVG 1.1//EN"
  "http://www.w3.org/Graphics/SVG/1.1/DTD/svg11.dtd">
<!-- Created with matplotlib (http://matplotlib.org/) -->
<svg height="432pt" version="1.1" viewBox="0 0 576 432" width="576pt" xmlns="http://www.w3.org/2000/svg" xmlns:xlink="http://www.w3.org/1999/xlink">
 <defs>
  <style type="text/css">
*{stroke-linecap:butt;stroke-linejoin:round;stroke-miterlimit:100000;}
  </style>
 </defs>
 <g id="figure_1">
  <g id="patch_1">
   <path d="M 0 432 
L 576 432 
L 576 0 
L 0 0 
z
" style="fill:#ffffff;"/>
  </g>
  <g id="axes_1">
   <g id="patch_2">
    <path d="M 72 388.8 
L 429.12 388.8 
L 429.12 43.2 
L 72 43.2 
z
" style="fill:#ffffff;"/>
   </g>
   <g id="PathCollection_1">
    <path clip-path="url(#p1ff649c19a)" d="M 417.216 156.231718 
L 412.935104 158.4 
L 405.312 162.004897 
L 393.408 167.580898 
L 388.920297 169.92 
L 381.504 173.643514 
L 369.6 179.493829 
L 366.082539 181.44 
L 357.696 186.043991 
L 345.792 192.399637 
L 344.906471 192.96 
L 333.888 200.013037 
L 327.095695 204.48 
L 321.984 208.494635 
L 312.987182 216 
L 310.08 219.23337 
L 304.651908 227.52 
L 299.374628 239.04 
L 298.176 245.513394 
L 297.767768 250.56 
L 297.868616 262.08 
L 298.176 266.807825 
L 299.153022 273.6 
L 301.433127 285.12 
L 303.905583 296.64 
L 306.463206 308.16 
L 309.082206 319.68 
L 310.08 324.221015 
L 312.254461 331.2 
L 315.674183 342.72 
L 319.061598 354.24 
L 321.984 364.426458 
L 322.446053 365.76 
L 326.134217 377.28 
L 329.839604 388.8 
L 333.888 388.8 
L 345.792 388.8 
L 357.696 388.8 
L 369.6 388.8 
L 381.504 388.8 
L 393.408 388.8 
L 405.312 388.8 
L 417.216 388.8 
L 429.12 388.8 
L 429.12 377.28 
L 429.12 365.76 
L 429.12 354.24 
L 429.12 342.72 
L 429.12 331.2 
L 429.12 319.68 
L 429.12 308.16 
L 429.12 296.64 
L 429.12 285.12 
L 429.12 273.6 
L 429.12 262.08 
L 429.12 250.56 
L 429.12 239.04 
L 429.12 227.52 
L 429.12 216 
L 429.12 204.48 
L 429.12 192.96 
L 429.12 181.44 
L 429.12 169.92 
L 429.12 158.4 
L 429.12 150.785947 
z
" style="fill:#4c66d6;"/>
   </g>
   <g id="PathCollection_2">
    <path clip-path="url(#p1ff649c19a)" d="M 417.216 43.2 
L 405.312 43.2 
L 393.408 43.2 
L 381.504 43.2 
L 369.6 43.2 
L 357.696 43.2 
L 345.792 43.2 
L 333.888 43.2 
L 321.984 43.2 
L 318.260656 43.2 
L 317.359481 54.72 
L 316.369485 66.24 
L 315.277731 77.76 
L 314.065928 89.28 
L 312.707137 100.8 
L 311.160765 112.32 
L 310.08 119.398667 
L 309.802342 123.84 
L 308.943198 135.36 
L 307.823925 146.88 
L 306.289456 158.4 
L 304.056402 169.92 
L 300.585634 181.44 
L 298.176 186.516738 
L 296.954203 192.96 
L 293.201686 204.48 
L 286.272 215.752509 
L 286.196218 216 
L 282.531021 227.52 
L 278.769478 239.04 
L 276.448075 250.56 
L 275.455756 262.08 
L 275.067181 273.6 
L 274.850592 285.12 
L 274.619074 296.64 
L 274.368 305.892895 
L 274.334989 308.16 
L 274.131119 319.68 
L 273.896892 331.2 
L 273.640296 342.72 
L 273.367502 354.24 
L 273.082251 365.76 
L 272.786066 377.28 
L 272.478643 388.8 
L 274.368 388.8 
L 286.272 388.8 
L 298.176 388.8 
L 310.08 388.8 
L 321.984 388.8 
L 329.839604 388.8 
L 326.134217 377.28 
L 322.446053 365.76 
L 321.984 364.426458 
L 319.061598 354.24 
L 315.674183 342.72 
L 312.254461 331.2 
L 310.08 324.221015 
L 309.082206 319.68 
L 306.463206 308.16 
L 303.905583 296.64 
L 301.433127 285.12 
L 299.153022 273.6 
L 298.176 266.807825 
L 297.868616 262.08 
L 297.767768 250.56 
L 298.176 245.513394 
L 299.374628 239.04 
L 304.651908 227.52 
L 310.08 219.23337 
L 312.987182 216 
L 321.984 208.494635 
L 327.095695 204.48 
L 333.888 200.013037 
L 344.906471 192.96 
L 345.792 192.399637 
L 357.696 186.043991 
L 366.082539 181.44 
L 369.6 179.493829 
L 381.504 173.643514 
L 388.920297 169.92 
L 393.408 167.580898 
L 405.312 162.004897 
L 412.935104 158.4 
L 417.216 156.231718 
L 429.12 150.785947 
L 429.12 146.88 
L 429.12 135.36 
L 429.12 123.84 
L 429.12 112.32 
L 429.12 100.8 
L 429.12 89.28 
L 429.12 77.76 
L 429.12 66.24 
L 429.12 54.72 
L 429.12 43.2 
z
" style="fill:#779af7;"/>
   </g>
   <g id="PathCollection_3">
    <path clip-path="url(#p1ff649c19a)" d="M 310.08 43.2 
L 302.114116 43.2 
L 301.044796 54.72 
L 299.870232 66.24 
L 298.575261 77.76 
L 298.176 81.141666 
L 297.604843 89.28 
L 296.834294 100.8 
L 296.083369 112.32 
L 295.327771 123.84 
L 294.536593 135.36 
L 293.665976 146.88 
L 292.645848 158.4 
L 291.349941 169.92 
L 289.522315 181.44 
L 286.580866 192.96 
L 286.272 193.706258 
L 283.766767 204.48 
L 280.142147 216 
L 274.368 227.367119 
L 274.298107 227.52 
L 270.551268 239.04 
L 268.052865 250.56 
L 266.620379 262.08 
L 265.875758 273.6 
L 265.458387 285.12 
L 265.168458 296.64 
L 264.910054 308.16 
L 264.638807 319.68 
L 264.33368 331.2 
L 263.983602 342.72 
L 263.581248 354.24 
L 263.120224 365.76 
L 262.593849 377.28 
L 262.464 379.832431 
L 262.049249 388.8 
L 262.464 388.8 
L 272.478643 388.8 
L 272.786066 377.28 
L 273.082251 365.76 
L 273.367502 354.24 
L 273.640296 342.72 
L 273.896892 331.2 
L 274.131119 319.68 
L 274.334989 308.16 
L 274.368 305.892895 
L 274.619074 296.64 
L 274.850592 285.12 
L 275.067181 273.6 
L 275.455756 262.08 
L 276.448075 250.56 
L 278.769478 239.04 
L 282.531021 227.52 
L 286.196218 216 
L 286.272 215.752509 
L 293.201686 204.48 
L 296.954203 192.96 
L 298.176 186.516738 
L 300.585634 181.44 
L 304.056402 169.92 
L 306.289456 158.4 
L 307.823925 146.88 
L 308.943198 135.36 
L 309.802342 123.84 
L 310.08 119.398667 
L 311.160765 112.32 
L 312.707137 100.8 
L 314.065928 89.28 
L 315.277731 77.76 
L 316.369485 66.24 
L 317.359481 54.72 
L 318.260656 43.2 
z
" style="fill:#a3c2fe;"/>
   </g>
   <g id="PathCollection_4">
    <path clip-path="url(#p1ff649c19a)" d="M 298.176 43.2 
L 292.583047 43.2 
L 291.813982 54.72 
L 291.075179 66.24 
L 290.351816 77.76 
L 289.628068 89.28 
L 288.886624 100.8 
L 288.107797 112.32 
L 287.267755 123.84 
L 286.334927 135.36 
L 286.272 136.05166 
L 285.216889 146.88 
L 284.113739 158.4 
L 282.979369 169.92 
L 281.717375 181.44 
L 280.15311 192.96 
L 277.938779 204.48 
L 274.368 215.191638 
L 274.058169 216 
L 268.849448 227.52 
L 264.424596 239.04 
L 262.464 245.542163 
L 260.403886 250.56 
L 257.918708 262.08 
L 256.515164 273.6 
L 255.69683 285.12 
L 255.185755 296.64 
L 254.82807 308.16 
L 254.540052 319.68 
L 254.276373 331.2 
L 254.012741 342.72 
L 253.736482 354.24 
L 253.441202 365.76 
L 253.123901 377.28 
L 252.783147 388.8 
L 262.049249 388.8 
L 262.464 379.832431 
L 262.593849 377.28 
L 263.120224 365.76 
L 263.581248 354.24 
L 263.983602 342.72 
L 264.33368 331.2 
L 264.638807 319.68 
L 264.910054 308.16 
L 265.168458 296.64 
L 265.458387 285.12 
L 265.875758 273.6 
L 266.620379 262.08 
L 268.052865 250.56 
L 270.551268 239.04 
L 274.298107 227.52 
L 274.368 227.367119 
L 280.142147 216 
L 283.766767 204.48 
L 286.272 193.706258 
L 286.580866 192.96 
L 289.522315 181.44 
L 291.349941 169.92 
L 292.645848 158.4 
L 293.665976 146.88 
L 294.536593 135.36 
L 295.327771 123.84 
L 296.083369 112.32 
L 296.834294 100.8 
L 297.604843 89.28 
L 298.176 81.141666 
L 298.575261 77.76 
L 299.870232 66.24 
L 301.044796 54.72 
L 302.114116 43.2 
z
" style="fill:#ccd9ed;"/>
   </g>
   <g id="PathCollection_5">
    <path clip-path="url(#p1ff649c19a)" d="M 286.272 43.2 
L 281.58004 43.2 
L 280.834291 54.72 
L 280.139564 66.24 
L 279.493991 77.76 
L 278.895101 89.28 
L 278.339645 100.8 
L 277.82328 112.32 
L 277.340045 123.84 
L 276.881123 135.36 
L 276.432897 146.88 
L 275.972428 158.4 
L 275.458211 169.92 
L 274.808655 181.44 
L 274.368 186.456124 
L 273.439062 192.96 
L 270.865156 204.48 
L 267.357305 216 
L 263.400788 227.52 
L 262.464 229.844906 
L 256.795581 239.04 
L 252.06191 250.56 
L 250.56 256.206086 
L 247.666867 262.08 
L 244.344079 273.6 
L 242.28437 285.12 
L 240.96118 296.64 
L 240.077908 308.16 
L 239.461454 319.68 
L 239.008103 331.2 
L 238.656 342.65341 
L 238.652184 342.72 
L 238.094282 354.24 
L 237.58693 365.76 
L 237.100969 377.28 
L 236.617649 388.8 
L 238.656 388.8 
L 250.56 388.8 
L 252.783147 388.8 
L 253.123901 377.28 
L 253.441202 365.76 
L 253.736482 354.24 
L 254.012741 342.72 
L 254.276373 331.2 
L 254.540052 319.68 
L 254.82807 308.16 
L 255.185755 296.64 
L 255.69683 285.12 
L 256.515164 273.6 
L 257.918708 262.08 
L 260.403886 250.56 
L 262.464 245.542163 
L 264.424596 239.04 
L 268.849448 227.52 
L 274.058169 216 
L 274.368 215.191638 
L 277.938779 204.48 
L 280.15311 192.96 
L 281.717375 181.44 
L 282.979369 169.92 
L 284.113739 158.4 
L 285.216889 146.88 
L 286.272 136.05166 
L 286.334927 135.36 
L 287.267755 123.84 
L 288.107797 112.32 
L 288.886624 100.8 
L 289.628068 89.28 
L 290.351816 77.76 
L 291.075179 66.24 
L 291.813982 54.72 
L 292.583047 43.2 
z
" style="fill:#ecd3c5;"/>
   </g>
   <g id="PathCollection_6">
    <path clip-path="url(#p1ff649c19a)" d="M 274.368 43.2 
L 262.464 43.2 
L 252.750709 43.2 
L 253.424106 54.72 
L 254.105015 66.24 
L 254.798235 77.76 
L 255.509024 89.28 
L 256.243032 100.8 
L 257.005861 112.32 
L 257.801823 123.84 
L 258.63168 135.36 
L 259.488315 146.88 
L 260.348093 158.4 
L 261.154732 169.92 
L 261.781954 181.44 
L 261.945195 192.96 
L 261.025936 204.48 
L 258.075012 216 
L 253.267021 227.52 
L 250.56 233.184253 
L 245.901282 239.04 
L 238.656 249.386343 
L 237.406553 250.56 
L 227.406973 262.08 
L 226.752 263.184739 
L 216.859791 273.6 
L 214.848 276.590513 
L 206.362756 285.12 
L 202.944 289.790081 
L 195.953501 296.64 
L 191.04 302.966929 
L 185.653425 308.16 
L 179.136 316.182183 
L 175.456147 319.68 
L 167.232 329.415404 
L 165.32028 331.2 
L 155.328 342.567045 
L 155.159284 342.72 
L 144.650498 354.24 
L 143.424 355.81378 
L 133.60675 365.76 
L 131.52 368.187065 
L 121.244549 377.28 
L 119.616 378.90351 
L 107.712 387.396107 
L 104.850758 388.8 
L 107.712 388.8 
L 119.616 388.8 
L 131.52 388.8 
L 143.424 388.8 
L 155.328 388.8 
L 167.232 388.8 
L 179.136 388.8 
L 191.04 388.8 
L 202.944 388.8 
L 214.848 388.8 
L 226.752 388.8 
L 236.617649 388.8 
L 237.100969 377.28 
L 237.58693 365.76 
L 238.094282 354.24 
L 238.652184 342.72 
L 238.656 342.65341 
L 239.008103 331.2 
L 239.461454 319.68 
L 240.077908 308.16 
L 240.96118 296.64 
L 242.28437 285.12 
L 244.344079 273.6 
L 247.666867 262.08 
L 250.56 256.206086 
L 252.06191 250.56 
L 256.795581 239.04 
L 262.464 229.844906 
L 263.400788 227.52 
L 267.357305 216 
L 270.865156 204.48 
L 273.439062 192.96 
L 274.368 186.456124 
L 274.808655 181.44 
L 275.458211 169.92 
L 275.972428 158.4 
L 276.432897 146.88 
L 276.881123 135.36 
L 277.340045 123.84 
L 277.82328 112.32 
L 278.339645 100.8 
L 278.895101 89.28 
L 279.493991 77.76 
L 280.139564 66.24 
L 280.834291 54.72 
L 281.58004 43.2 
z
" style="fill:#f7b093;"/>
   </g>
   <g id="PathCollection_7">
    <path clip-path="url(#p1ff649c19a)" d="M 250.56 43.2 
L 238.656 43.2 
L 226.752 43.2 
L 214.848 43.2 
L 202.944 43.2 
L 191.04 43.2 
L 179.136 43.2 
L 167.232 43.2 
L 156.23506 43.2 
L 162.340411 54.72 
L 167.232 63.361756 
L 168.721363 66.24 
L 174.605312 77.76 
L 179.136 85.960798 
L 180.754764 89.28 
L 186.31924 100.8 
L 191.04 109.708375 
L 192.211138 112.32 
L 197.259544 123.84 
L 202.938573 135.36 
L 202.944 135.371481 
L 207.149748 146.88 
L 211.63409 158.4 
L 214.848 166.694619 
L 215.747367 169.92 
L 218.363332 181.44 
L 220.239425 192.96 
L 220.504064 204.48 
L 218.088903 216 
L 214.848 222.276291 
L 211.312803 227.52 
L 202.944 235.276617 
L 198.833437 239.04 
L 191.04 243.684657 
L 181.369715 250.56 
L 179.136 251.624465 
L 167.232 257.608181 
L 160.023115 262.08 
L 155.328 264.05027 
L 143.424 269.666833 
L 136.563657 273.6 
L 131.52 275.584035 
L 119.616 280.764169 
L 111.557343 285.12 
L 107.712 286.571883 
L 95.808 291.237277 
L 85.288854 296.64 
L 83.904 297.147904 
L 72 301.385333 
L 72 308.16 
L 72 319.68 
L 72 331.2 
L 72 342.72 
L 72 354.24 
L 72 365.76 
L 72 377.28 
L 72 388.8 
L 83.904 388.8 
L 95.808 388.8 
L 104.850758 388.8 
L 107.712 387.396107 
L 119.616 378.90351 
L 121.244549 377.28 
L 131.52 368.187065 
L 133.60675 365.76 
L 143.424 355.81378 
L 144.650498 354.24 
L 155.159284 342.72 
L 155.328 342.567045 
L 165.32028 331.2 
L 167.232 329.415404 
L 175.456147 319.68 
L 179.136 316.182183 
L 185.653425 308.16 
L 191.04 302.966929 
L 195.953501 296.64 
L 202.944 289.790081 
L 206.362756 285.12 
L 214.848 276.590513 
L 216.859791 273.6 
L 226.752 263.184739 
L 227.406973 262.08 
L 237.406553 250.56 
L 238.656 249.386343 
L 245.901282 239.04 
L 250.56 233.184253 
L 253.267021 227.52 
L 258.075012 216 
L 261.025936 204.48 
L 261.945195 192.96 
L 261.781954 181.44 
L 261.154732 169.92 
L 260.348093 158.4 
L 259.488315 146.88 
L 258.63168 135.36 
L 257.801823 123.84 
L 257.005861 112.32 
L 256.243032 100.8 
L 255.509024 89.28 
L 254.798235 77.76 
L 254.105015 66.24 
L 253.424106 54.72 
L 252.750709 43.2 
z
" style="fill:#eb7d62;"/>
   </g>
   <g id="PathCollection_8">
    <path clip-path="url(#p1ff649c19a)" d="M 155.328 43.2 
L 143.424 43.2 
L 131.52 43.2 
L 119.616 43.2 
L 107.712 43.2 
L 95.808 43.2 
L 83.904 43.2 
L 72 43.2 
L 72 54.72 
L 72 66.24 
L 72 77.76 
L 72 89.28 
L 72 100.8 
L 72 112.32 
L 72 123.84 
L 72 135.36 
L 72 146.88 
L 72 158.4 
L 72 169.92 
L 72 181.44 
L 72 192.96 
L 72 204.48 
L 72 216 
L 72 227.52 
L 72 239.04 
L 72 250.56 
L 72 262.08 
L 72 273.6 
L 72 285.12 
L 72 296.64 
L 72 301.385333 
L 83.904 297.147904 
L 85.288854 296.64 
L 95.808 291.237277 
L 107.712 286.571883 
L 111.557343 285.12 
L 119.616 280.764169 
L 131.52 275.584035 
L 136.563657 273.6 
L 143.424 269.666833 
L 155.328 264.05027 
L 160.023115 262.08 
L 167.232 257.608181 
L 179.136 251.624465 
L 181.369715 250.56 
L 191.04 243.684657 
L 198.833437 239.04 
L 202.944 235.276617 
L 211.312803 227.52 
L 214.848 222.276291 
L 218.088903 216 
L 220.504064 204.48 
L 220.239425 192.96 
L 218.363332 181.44 
L 215.747367 169.92 
L 214.848 166.694619 
L 211.63409 158.4 
L 207.149748 146.88 
L 202.944 135.371481 
L 202.938573 135.36 
L 197.259544 123.84 
L 192.211138 112.32 
L 191.04 109.708375 
L 186.31924 100.8 
L 180.754764 89.28 
L 179.136 85.960798 
L 174.605312 77.76 
L 168.721363 66.24 
L 167.232 63.361756 
L 162.340411 54.72 
L 156.23506 43.2 
z
" style="fill:#ca3b37;"/>
   </g>
   <g id="patch_3">
    <path d="M 72 43.2 
L 429.12 43.2 
" style="fill:none;stroke:#000000;stroke-linecap:square;stroke-linejoin:miter;"/>
   </g>
   <g id="patch_4">
    <path d="M 429.12 388.8 
L 429.12 43.2 
" style="fill:none;stroke:#000000;stroke-linecap:square;stroke-linejoin:miter;"/>
   </g>
   <g id="patch_5">
    <path d="M 72 388.8 
L 429.12 388.8 
" style="fill:none;stroke:#000000;stroke-linecap:square;stroke-linejoin:miter;"/>
   </g>
   <g id="patch_6">
    <path d="M 72 388.8 
L 72 43.2 
" style="fill:none;stroke:#000000;stroke-linecap:square;stroke-linejoin:miter;"/>
   </g>
   <g id="matplotlib.axis_1">
    <g id="xtick_1">
     <g id="line2d_1">
      <defs>
       <path d="M 0 0 
L 0 -4 
" id="mcf63dfb35a" style="stroke:#000000;stroke-width:0.5;"/>
      </defs>
      <g>
       <use style="stroke:#000000;stroke-width:0.5;" x="72.0" xlink:href="#mcf63dfb35a" y="388.8"/>
      </g>
     </g>
     <g id="line2d_2">
      <defs>
       <path d="M 0 0 
L 0 4 
" id="m5ce74d06ec" style="stroke:#000000;stroke-width:0.5;"/>
      </defs>
      <g>
       <use style="stroke:#000000;stroke-width:0.5;" x="72.0" xlink:href="#m5ce74d06ec" y="43.19999999999999"/>
      </g>
     </g>
     <g id="text_1">
      <!-- −4 -->
      <defs>
       <path d="M 10.59375 35.5 
L 73.1875 35.5 
L 73.1875 27.203125 
L 10.59375 27.203125 
z
" id="BitstreamVeraSans-Roman-2212"/>
       <path d="M 37.796875 64.3125 
L 12.890625 25.390625 
L 37.796875 25.390625 
z
M 35.203125 72.90625 
L 47.609375 72.90625 
L 47.609375 25.390625 
L 58.015625 25.390625 
L 58.015625 17.1875 
L 47.609375 17.1875 
L 47.609375 0 
L 37.796875 0 
L 37.796875 17.1875 
L 4.890625 17.1875 
L 4.890625 26.703125 
z
" id="BitstreamVeraSans-Roman-34"/>
      </defs>
      <g transform="translate(63.1546875 401.91812500000003)scale(0.12 -0.12)">
       <use xlink:href="#BitstreamVeraSans-Roman-2212"/>
       <use x="83.7890625" xlink:href="#BitstreamVeraSans-Roman-34"/>
      </g>
     </g>
    </g>
    <g id="xtick_2">
     <g id="line2d_3">
      <g>
       <use style="stroke:#000000;stroke-width:0.5;" x="116.63999999999999" xlink:href="#mcf63dfb35a" y="388.8"/>
      </g>
     </g>
     <g id="line2d_4">
      <g>
       <use style="stroke:#000000;stroke-width:0.5;" x="116.63999999999999" xlink:href="#m5ce74d06ec" y="43.19999999999999"/>
      </g>
     </g>
     <g id="text_2">
      <!-- −3 -->
      <defs>
       <path d="M 40.578125 39.3125 
Q 47.65625 37.796875 51.625 33 
Q 55.609375 28.21875 55.609375 21.1875 
Q 55.609375 10.40625 48.1875 4.484375 
Q 40.765625 -1.421875 27.09375 -1.421875 
Q 22.515625 -1.421875 17.65625 -0.515625 
Q 12.796875 0.390625 7.625 2.203125 
L 7.625 11.71875 
Q 11.71875 9.328125 16.59375 8.109375 
Q 21.484375 6.890625 26.8125 6.890625 
Q 36.078125 6.890625 40.9375 10.546875 
Q 45.796875 14.203125 45.796875 21.1875 
Q 45.796875 27.640625 41.28125 31.265625 
Q 36.765625 34.90625 28.71875 34.90625 
L 20.21875 34.90625 
L 20.21875 43.015625 
L 29.109375 43.015625 
Q 36.375 43.015625 40.234375 45.921875 
Q 44.09375 48.828125 44.09375 54.296875 
Q 44.09375 59.90625 40.109375 62.90625 
Q 36.140625 65.921875 28.71875 65.921875 
Q 24.65625 65.921875 20.015625 65.03125 
Q 15.375 64.15625 9.8125 62.3125 
L 9.8125 71.09375 
Q 15.4375 72.65625 20.34375 73.4375 
Q 25.25 74.21875 29.59375 74.21875 
Q 40.828125 74.21875 47.359375 69.109375 
Q 53.90625 64.015625 53.90625 55.328125 
Q 53.90625 49.265625 50.4375 45.09375 
Q 46.96875 40.921875 40.578125 39.3125 
" id="BitstreamVeraSans-Roman-33"/>
      </defs>
      <g transform="translate(107.79468749999998 401.91812500000003)scale(0.12 -0.12)">
       <use xlink:href="#BitstreamVeraSans-Roman-2212"/>
       <use x="83.7890625" xlink:href="#BitstreamVeraSans-Roman-33"/>
      </g>
     </g>
    </g>
    <g id="xtick_3">
     <g id="line2d_5">
      <g>
       <use style="stroke:#000000;stroke-width:0.5;" x="161.28" xlink:href="#mcf63dfb35a" y="388.8"/>
      </g>
     </g>
     <g id="line2d_6">
      <g>
       <use style="stroke:#000000;stroke-width:0.5;" x="161.28" xlink:href="#m5ce74d06ec" y="43.19999999999999"/>
      </g>
     </g>
     <g id="text_3">
      <!-- −2 -->
      <defs>
       <path d="M 19.1875 8.296875 
L 53.609375 8.296875 
L 53.609375 0 
L 7.328125 0 
L 7.328125 8.296875 
Q 12.9375 14.109375 22.625 23.890625 
Q 32.328125 33.6875 34.8125 36.53125 
Q 39.546875 41.84375 41.421875 45.53125 
Q 43.3125 49.21875 43.3125 52.78125 
Q 43.3125 58.59375 39.234375 62.25 
Q 35.15625 65.921875 28.609375 65.921875 
Q 23.96875 65.921875 18.8125 64.3125 
Q 13.671875 62.703125 7.8125 59.421875 
L 7.8125 69.390625 
Q 13.765625 71.78125 18.9375 73 
Q 24.125 74.21875 28.421875 74.21875 
Q 39.75 74.21875 46.484375 68.546875 
Q 53.21875 62.890625 53.21875 53.421875 
Q 53.21875 48.921875 51.53125 44.890625 
Q 49.859375 40.875 45.40625 35.40625 
Q 44.1875 33.984375 37.640625 27.21875 
Q 31.109375 20.453125 19.1875 8.296875 
" id="BitstreamVeraSans-Roman-32"/>
      </defs>
      <g transform="translate(152.4346875 401.91812500000003)scale(0.12 -0.12)">
       <use xlink:href="#BitstreamVeraSans-Roman-2212"/>
       <use x="83.7890625" xlink:href="#BitstreamVeraSans-Roman-32"/>
      </g>
     </g>
    </g>
    <g id="xtick_4">
     <g id="line2d_7">
      <g>
       <use style="stroke:#000000;stroke-width:0.5;" x="205.92000000000002" xlink:href="#mcf63dfb35a" y="388.8"/>
      </g>
     </g>
     <g id="line2d_8">
      <g>
       <use style="stroke:#000000;stroke-width:0.5;" x="205.92000000000002" xlink:href="#m5ce74d06ec" y="43.19999999999999"/>
      </g>
     </g>
     <g id="text_4">
      <!-- −1 -->
      <defs>
       <path d="M 12.40625 8.296875 
L 28.515625 8.296875 
L 28.515625 63.921875 
L 10.984375 60.40625 
L 10.984375 69.390625 
L 28.421875 72.90625 
L 38.28125 72.90625 
L 38.28125 8.296875 
L 54.390625 8.296875 
L 54.390625 0 
L 12.40625 0 
z
" id="BitstreamVeraSans-Roman-31"/>
      </defs>
      <g transform="translate(197.0746875 401.91812500000003)scale(0.12 -0.12)">
       <use xlink:href="#BitstreamVeraSans-Roman-2212"/>
       <use x="83.7890625" xlink:href="#BitstreamVeraSans-Roman-31"/>
      </g>
     </g>
    </g>
    <g id="xtick_5">
     <g id="line2d_9">
      <g>
       <use style="stroke:#000000;stroke-width:0.5;" x="250.56" xlink:href="#mcf63dfb35a" y="388.8"/>
      </g>
     </g>
     <g id="line2d_10">
      <g>
       <use style="stroke:#000000;stroke-width:0.5;" x="250.56" xlink:href="#m5ce74d06ec" y="43.19999999999999"/>
      </g>
     </g>
     <g id="text_5">
      <!-- 0 -->
      <defs>
       <path d="M 31.78125 66.40625 
Q 24.171875 66.40625 20.328125 58.90625 
Q 16.5 51.421875 16.5 36.375 
Q 16.5 21.390625 20.328125 13.890625 
Q 24.171875 6.390625 31.78125 6.390625 
Q 39.453125 6.390625 43.28125 13.890625 
Q 47.125 21.390625 47.125 36.375 
Q 47.125 51.421875 43.28125 58.90625 
Q 39.453125 66.40625 31.78125 66.40625 
M 31.78125 74.21875 
Q 44.046875 74.21875 50.515625 64.515625 
Q 56.984375 54.828125 56.984375 36.375 
Q 56.984375 17.96875 50.515625 8.265625 
Q 44.046875 -1.421875 31.78125 -1.421875 
Q 19.53125 -1.421875 13.0625 8.265625 
Q 6.59375 17.96875 6.59375 36.375 
Q 6.59375 54.828125 13.0625 64.515625 
Q 19.53125 74.21875 31.78125 74.21875 
" id="BitstreamVeraSans-Roman-30"/>
      </defs>
      <g transform="translate(246.7425 401.91812500000003)scale(0.12 -0.12)">
       <use xlink:href="#BitstreamVeraSans-Roman-30"/>
      </g>
     </g>
    </g>
    <g id="xtick_6">
     <g id="line2d_11">
      <g>
       <use style="stroke:#000000;stroke-width:0.5;" x="295.2" xlink:href="#mcf63dfb35a" y="388.8"/>
      </g>
     </g>
     <g id="line2d_12">
      <g>
       <use style="stroke:#000000;stroke-width:0.5;" x="295.2" xlink:href="#m5ce74d06ec" y="43.19999999999999"/>
      </g>
     </g>
     <g id="text_6">
      <!-- 1 -->
      <g transform="translate(291.3825 401.91812500000003)scale(0.12 -0.12)">
       <use xlink:href="#BitstreamVeraSans-Roman-31"/>
      </g>
     </g>
    </g>
    <g id="xtick_7">
     <g id="line2d_13">
      <g>
       <use style="stroke:#000000;stroke-width:0.5;" x="339.84000000000003" xlink:href="#mcf63dfb35a" y="388.8"/>
      </g>
     </g>
     <g id="line2d_14">
      <g>
       <use style="stroke:#000000;stroke-width:0.5;" x="339.84000000000003" xlink:href="#m5ce74d06ec" y="43.19999999999999"/>
      </g>
     </g>
     <g id="text_7">
      <!-- 2 -->
      <g transform="translate(336.02250000000004 401.91812500000003)scale(0.12 -0.12)">
       <use xlink:href="#BitstreamVeraSans-Roman-32"/>
      </g>
     </g>
    </g>
    <g id="xtick_8">
     <g id="line2d_15">
      <g>
       <use style="stroke:#000000;stroke-width:0.5;" x="384.48" xlink:href="#mcf63dfb35a" y="388.8"/>
      </g>
     </g>
     <g id="line2d_16">
      <g>
       <use style="stroke:#000000;stroke-width:0.5;" x="384.48" xlink:href="#m5ce74d06ec" y="43.19999999999999"/>
      </g>
     </g>
     <g id="text_8">
      <!-- 3 -->
      <g transform="translate(380.6625 401.91812500000003)scale(0.12 -0.12)">
       <use xlink:href="#BitstreamVeraSans-Roman-33"/>
      </g>
     </g>
    </g>
    <g id="xtick_9">
     <g id="line2d_17">
      <g>
       <use style="stroke:#000000;stroke-width:0.5;" x="429.12" xlink:href="#mcf63dfb35a" y="388.8"/>
      </g>
     </g>
     <g id="line2d_18">
      <g>
       <use style="stroke:#000000;stroke-width:0.5;" x="429.12" xlink:href="#m5ce74d06ec" y="43.19999999999999"/>
      </g>
     </g>
     <g id="text_9">
      <!-- 4 -->
      <g transform="translate(425.3025 401.91812500000003)scale(0.12 -0.12)">
       <use xlink:href="#BitstreamVeraSans-Roman-34"/>
      </g>
     </g>
    </g>
    <g id="text_10">
     <!-- x -->
     <defs>
      <path d="M 54.890625 54.6875 
L 35.109375 28.078125 
L 55.90625 0 
L 45.3125 0 
L 29.390625 21.484375 
L 13.484375 0 
L 2.875 0 
L 24.125 28.609375 
L 4.6875 54.6875 
L 15.28125 54.6875 
L 29.78125 35.203125 
L 44.28125 54.6875 
z
" id="BitstreamVeraSans-Roman-78"/>
     </defs>
     <g transform="translate(247.00875 418.531875)scale(0.12 -0.12)">
      <use xlink:href="#BitstreamVeraSans-Roman-78"/>
     </g>
    </g>
   </g>
   <g id="matplotlib.axis_2">
    <g id="ytick_1">
     <g id="line2d_19">
      <defs>
       <path d="M 0 0 
L 4 0 
" id="m9ff6170d9a" style="stroke:#000000;stroke-width:0.5;"/>
      </defs>
      <g>
       <use style="stroke:#000000;stroke-width:0.5;" x="72.0" xlink:href="#m9ff6170d9a" y="388.8"/>
      </g>
     </g>
     <g id="line2d_20">
      <defs>
       <path d="M 0 0 
L -4 0 
" id="m35c0bfd0ca" style="stroke:#000000;stroke-width:0.5;"/>
      </defs>
      <g>
       <use style="stroke:#000000;stroke-width:0.5;" x="429.12" xlink:href="#m35c0bfd0ca" y="388.8"/>
      </g>
     </g>
     <g id="text_11">
      <!-- −4 -->
      <g transform="translate(50.309375 392.11125000000004)scale(0.12 -0.12)">
       <use xlink:href="#BitstreamVeraSans-Roman-2212"/>
       <use x="83.7890625" xlink:href="#BitstreamVeraSans-Roman-34"/>
      </g>
     </g>
    </g>
    <g id="ytick_2">
     <g id="line2d_21">
      <g>
       <use style="stroke:#000000;stroke-width:0.5;" x="72.0" xlink:href="#m9ff6170d9a" y="345.6"/>
      </g>
     </g>
     <g id="line2d_22">
      <g>
       <use style="stroke:#000000;stroke-width:0.5;" x="429.12" xlink:href="#m35c0bfd0ca" y="345.6"/>
      </g>
     </g>
     <g id="text_12">
      <!-- −3 -->
      <g transform="translate(50.309375 348.91125)scale(0.12 -0.12)">
       <use xlink:href="#BitstreamVeraSans-Roman-2212"/>
       <use x="83.7890625" xlink:href="#BitstreamVeraSans-Roman-33"/>
      </g>
     </g>
    </g>
    <g id="ytick_3">
     <g id="line2d_23">
      <g>
       <use style="stroke:#000000;stroke-width:0.5;" x="72.0" xlink:href="#m9ff6170d9a" y="302.4"/>
      </g>
     </g>
     <g id="line2d_24">
      <g>
       <use style="stroke:#000000;stroke-width:0.5;" x="429.12" xlink:href="#m35c0bfd0ca" y="302.4"/>
      </g>
     </g>
     <g id="text_13">
      <!-- −2 -->
      <g transform="translate(50.309375 305.71125)scale(0.12 -0.12)">
       <use xlink:href="#BitstreamVeraSans-Roman-2212"/>
       <use x="83.7890625" xlink:href="#BitstreamVeraSans-Roman-32"/>
      </g>
     </g>
    </g>
    <g id="ytick_4">
     <g id="line2d_25">
      <g>
       <use style="stroke:#000000;stroke-width:0.5;" x="72.0" xlink:href="#m9ff6170d9a" y="259.2"/>
      </g>
     </g>
     <g id="line2d_26">
      <g>
       <use style="stroke:#000000;stroke-width:0.5;" x="429.12" xlink:href="#m35c0bfd0ca" y="259.2"/>
      </g>
     </g>
     <g id="text_14">
      <!-- −1 -->
      <g transform="translate(50.309375 262.51125)scale(0.12 -0.12)">
       <use xlink:href="#BitstreamVeraSans-Roman-2212"/>
       <use x="83.7890625" xlink:href="#BitstreamVeraSans-Roman-31"/>
      </g>
     </g>
    </g>
    <g id="ytick_5">
     <g id="line2d_27">
      <g>
       <use style="stroke:#000000;stroke-width:0.5;" x="72.0" xlink:href="#m9ff6170d9a" y="216.0"/>
      </g>
     </g>
     <g id="line2d_28">
      <g>
       <use style="stroke:#000000;stroke-width:0.5;" x="429.12" xlink:href="#m35c0bfd0ca" y="216.0"/>
      </g>
     </g>
     <g id="text_15">
      <!-- 0 -->
      <g transform="translate(60.365 219.31125)scale(0.12 -0.12)">
       <use xlink:href="#BitstreamVeraSans-Roman-30"/>
      </g>
     </g>
    </g>
    <g id="ytick_6">
     <g id="line2d_29">
      <g>
       <use style="stroke:#000000;stroke-width:0.5;" x="72.0" xlink:href="#m9ff6170d9a" y="172.8"/>
      </g>
     </g>
     <g id="line2d_30">
      <g>
       <use style="stroke:#000000;stroke-width:0.5;" x="429.12" xlink:href="#m35c0bfd0ca" y="172.8"/>
      </g>
     </g>
     <g id="text_16">
      <!-- 1 -->
      <g transform="translate(60.365 176.11125)scale(0.12 -0.12)">
       <use xlink:href="#BitstreamVeraSans-Roman-31"/>
      </g>
     </g>
    </g>
    <g id="ytick_7">
     <g id="line2d_31">
      <g>
       <use style="stroke:#000000;stroke-width:0.5;" x="72.0" xlink:href="#m9ff6170d9a" y="129.6"/>
      </g>
     </g>
     <g id="line2d_32">
      <g>
       <use style="stroke:#000000;stroke-width:0.5;" x="429.12" xlink:href="#m35c0bfd0ca" y="129.6"/>
      </g>
     </g>
     <g id="text_17">
      <!-- 2 -->
      <g transform="translate(60.365 132.91125)scale(0.12 -0.12)">
       <use xlink:href="#BitstreamVeraSans-Roman-32"/>
      </g>
     </g>
    </g>
    <g id="ytick_8">
     <g id="line2d_33">
      <g>
       <use style="stroke:#000000;stroke-width:0.5;" x="72.0" xlink:href="#m9ff6170d9a" y="86.39999999999998"/>
      </g>
     </g>
     <g id="line2d_34">
      <g>
       <use style="stroke:#000000;stroke-width:0.5;" x="429.12" xlink:href="#m35c0bfd0ca" y="86.39999999999998"/>
      </g>
     </g>
     <g id="text_18">
      <!-- 3 -->
      <g transform="translate(60.365 89.71124999999995)scale(0.12 -0.12)">
       <use xlink:href="#BitstreamVeraSans-Roman-33"/>
      </g>
     </g>
    </g>
    <g id="ytick_9">
     <g id="line2d_35">
      <g>
       <use style="stroke:#000000;stroke-width:0.5;" x="72.0" xlink:href="#m9ff6170d9a" y="43.19999999999999"/>
      </g>
     </g>
     <g id="line2d_36">
      <g>
       <use style="stroke:#000000;stroke-width:0.5;" x="429.12" xlink:href="#m35c0bfd0ca" y="43.19999999999999"/>
      </g>
     </g>
     <g id="text_19">
      <!-- 4 -->
      <g transform="translate(60.365 46.51124999999996)scale(0.12 -0.12)">
       <use xlink:href="#BitstreamVeraSans-Roman-34"/>
      </g>
     </g>
    </g>
    <g id="text_20">
     <!-- y -->
     <defs>
      <path d="M 32.171875 -5.078125 
Q 28.375 -14.84375 24.75 -17.8125 
Q 21.140625 -20.796875 15.09375 -20.796875 
L 7.90625 -20.796875 
L 7.90625 -13.28125 
L 13.1875 -13.28125 
Q 16.890625 -13.28125 18.9375 -11.515625 
Q 21 -9.765625 23.484375 -3.21875 
L 25.09375 0.875 
L 2.984375 54.6875 
L 12.5 54.6875 
L 29.59375 11.921875 
L 46.6875 54.6875 
L 56.203125 54.6875 
z
" id="BitstreamVeraSans-Roman-79"/>
     </defs>
     <g transform="translate(42.81375 219.55125)rotate(-90.0)scale(0.12 -0.12)">
      <use xlink:href="#BitstreamVeraSans-Roman-79"/>
     </g>
    </g>
   </g>
  </g>
  <g id="axes_2">
   <g id="patch_7">
    <path clip-path="url(#p6b4d8d3cba)" d="M 451.44 388.8 
L 451.44 345.6 
L 451.44 86.4 
L 451.44 43.2 
L 468.72 43.2 
L 468.72 86.4 
L 468.72 345.6 
L 468.72 388.8 
z
" style="fill:#ffffff;stroke:#ffffff;stroke-linejoin:miter;stroke-width:0.01;"/>
   </g>
   <g id="QuadMesh_1">
    <path clip-path="url(#p6b4d8d3cba)" d="M 451.44 388.8 
L 468.72 388.8 
L 468.72 345.6 
L 451.44 345.6 
L 451.44 388.8 
" style="fill:#4c66d6;"/>
    <path clip-path="url(#p6b4d8d3cba)" d="M 451.44 345.6 
L 468.72 345.6 
L 468.72 302.4 
L 451.44 302.4 
L 451.44 345.6 
" style="fill:#779af7;"/>
    <path clip-path="url(#p6b4d8d3cba)" d="M 451.44 302.4 
L 468.72 302.4 
L 468.72 259.2 
L 451.44 259.2 
L 451.44 302.4 
" style="fill:#a3c2fe;"/>
    <path clip-path="url(#p6b4d8d3cba)" d="M 451.44 259.2 
L 468.72 259.2 
L 468.72 216 
L 451.44 216 
L 451.44 259.2 
" style="fill:#ccd9ed;"/>
    <path clip-path="url(#p6b4d8d3cba)" d="M 451.44 216 
L 468.72 216 
L 468.72 172.8 
L 451.44 172.8 
L 451.44 216 
" style="fill:#ecd3c5;"/>
    <path clip-path="url(#p6b4d8d3cba)" d="M 451.44 172.8 
L 468.72 172.8 
L 468.72 129.6 
L 451.44 129.6 
L 451.44 172.8 
" style="fill:#f7b093;"/>
    <path clip-path="url(#p6b4d8d3cba)" d="M 451.44 129.6 
L 468.72 129.6 
L 468.72 86.4 
L 451.44 86.4 
L 451.44 129.6 
" style="fill:#eb7d62;"/>
    <path clip-path="url(#p6b4d8d3cba)" d="M 451.44 86.4 
L 468.72 86.4 
L 468.72 43.2 
L 451.44 43.2 
L 451.44 86.4 
" style="fill:#ca3b37;"/>
   </g>
   <g id="patch_8">
    <path d="M 451.44 388.8 
L 451.44 345.6 
L 451.44 86.4 
L 451.44 43.2 
L 468.72 43.2 
L 468.72 86.4 
L 468.72 345.6 
L 468.72 388.8 
L 451.44 388.8 
z
" style="fill:none;stroke:#000000;stroke-linejoin:miter;"/>
   </g>
   <g id="matplotlib.axis_3"/>
   <g id="matplotlib.axis_4">
    <g id="ytick_10">
     <g id="line2d_37">
      <g>
       <use style="stroke:#000000;stroke-width:0.5;" x="468.71999999999997" xlink:href="#m35c0bfd0ca" y="388.8"/>
      </g>
     </g>
     <g id="text_21">
      <!-- −1.6 -->
      <defs>
       <path d="M 33.015625 40.375 
Q 26.375 40.375 22.484375 35.828125 
Q 18.609375 31.296875 18.609375 23.390625 
Q 18.609375 15.53125 22.484375 10.953125 
Q 26.375 6.390625 33.015625 6.390625 
Q 39.65625 6.390625 43.53125 10.953125 
Q 47.40625 15.53125 47.40625 23.390625 
Q 47.40625 31.296875 43.53125 35.828125 
Q 39.65625 40.375 33.015625 40.375 
M 52.59375 71.296875 
L 52.59375 62.3125 
Q 48.875 64.0625 45.09375 64.984375 
Q 41.3125 65.921875 37.59375 65.921875 
Q 27.828125 65.921875 22.671875 59.328125 
Q 17.53125 52.734375 16.796875 39.40625 
Q 19.671875 43.65625 24.015625 45.921875 
Q 28.375 48.1875 33.59375 48.1875 
Q 44.578125 48.1875 50.953125 41.515625 
Q 57.328125 34.859375 57.328125 23.390625 
Q 57.328125 12.15625 50.6875 5.359375 
Q 44.046875 -1.421875 33.015625 -1.421875 
Q 20.359375 -1.421875 13.671875 8.265625 
Q 6.984375 17.96875 6.984375 36.375 
Q 6.984375 53.65625 15.1875 63.9375 
Q 23.390625 74.21875 37.203125 74.21875 
Q 40.921875 74.21875 44.703125 73.484375 
Q 48.484375 72.75 52.59375 71.296875 
" id="BitstreamVeraSans-Roman-36"/>
       <path d="M 10.6875 12.40625 
L 21 12.40625 
L 21 0 
L 10.6875 0 
z
" id="BitstreamVeraSans-Roman-2e"/>
      </defs>
      <g transform="translate(472.71999999999997 392.11125000000004)scale(0.12 -0.12)">
       <use xlink:href="#BitstreamVeraSans-Roman-2212"/>
       <use x="83.7890625" xlink:href="#BitstreamVeraSans-Roman-31"/>
       <use x="147.412109375" xlink:href="#BitstreamVeraSans-Roman-2e"/>
       <use x="179.19921875" xlink:href="#BitstreamVeraSans-Roman-36"/>
      </g>
     </g>
    </g>
    <g id="ytick_11">
     <g id="line2d_38">
      <g>
       <use style="stroke:#000000;stroke-width:0.5;" x="468.71999999999997" xlink:href="#m35c0bfd0ca" y="345.6"/>
      </g>
     </g>
     <g id="text_22">
      <!-- −1.2 -->
      <g transform="translate(472.71999999999997 348.91125)scale(0.12 -0.12)">
       <use xlink:href="#BitstreamVeraSans-Roman-2212"/>
       <use x="83.7890625" xlink:href="#BitstreamVeraSans-Roman-31"/>
       <use x="147.412109375" xlink:href="#BitstreamVeraSans-Roman-2e"/>
       <use x="179.19921875" xlink:href="#BitstreamVeraSans-Roman-32"/>
      </g>
     </g>
    </g>
    <g id="ytick_12">
     <g id="line2d_39">
      <g>
       <use style="stroke:#000000;stroke-width:0.5;" x="468.71999999999997" xlink:href="#m35c0bfd0ca" y="302.4"/>
      </g>
     </g>
     <g id="text_23">
      <!-- −0.8 -->
      <defs>
       <path d="M 31.78125 34.625 
Q 24.75 34.625 20.71875 30.859375 
Q 16.703125 27.09375 16.703125 20.515625 
Q 16.703125 13.921875 20.71875 10.15625 
Q 24.75 6.390625 31.78125 6.390625 
Q 38.8125 6.390625 42.859375 10.171875 
Q 46.921875 13.96875 46.921875 20.515625 
Q 46.921875 27.09375 42.890625 30.859375 
Q 38.875 34.625 31.78125 34.625 
M 21.921875 38.8125 
Q 15.578125 40.375 12.03125 44.71875 
Q 8.5 49.078125 8.5 55.328125 
Q 8.5 64.0625 14.71875 69.140625 
Q 20.953125 74.21875 31.78125 74.21875 
Q 42.671875 74.21875 48.875 69.140625 
Q 55.078125 64.0625 55.078125 55.328125 
Q 55.078125 49.078125 51.53125 44.71875 
Q 48 40.375 41.703125 38.8125 
Q 48.828125 37.15625 52.796875 32.3125 
Q 56.78125 27.484375 56.78125 20.515625 
Q 56.78125 9.90625 50.3125 4.234375 
Q 43.84375 -1.421875 31.78125 -1.421875 
Q 19.734375 -1.421875 13.25 4.234375 
Q 6.78125 9.90625 6.78125 20.515625 
Q 6.78125 27.484375 10.78125 32.3125 
Q 14.796875 37.15625 21.921875 38.8125 
M 18.3125 54.390625 
Q 18.3125 48.734375 21.84375 45.5625 
Q 25.390625 42.390625 31.78125 42.390625 
Q 38.140625 42.390625 41.71875 45.5625 
Q 45.3125 48.734375 45.3125 54.390625 
Q 45.3125 60.0625 41.71875 63.234375 
Q 38.140625 66.40625 31.78125 66.40625 
Q 25.390625 66.40625 21.84375 63.234375 
Q 18.3125 60.0625 18.3125 54.390625 
" id="BitstreamVeraSans-Roman-38"/>
      </defs>
      <g transform="translate(472.71999999999997 305.71125)scale(0.12 -0.12)">
       <use xlink:href="#BitstreamVeraSans-Roman-2212"/>
       <use x="83.7890625" xlink:href="#BitstreamVeraSans-Roman-30"/>
       <use x="147.412109375" xlink:href="#BitstreamVeraSans-Roman-2e"/>
       <use x="179.19921875" xlink:href="#BitstreamVeraSans-Roman-38"/>
      </g>
     </g>
    </g>
    <g id="ytick_13">
     <g id="line2d_40">
      <g>
       <use style="stroke:#000000;stroke-width:0.5;" x="468.71999999999997" xlink:href="#m35c0bfd0ca" y="259.2"/>
      </g>
     </g>
     <g id="text_24">
      <!-- −0.4 -->
      <g transform="translate(472.71999999999997 262.51125)scale(0.12 -0.12)">
       <use xlink:href="#BitstreamVeraSans-Roman-2212"/>
       <use x="83.7890625" xlink:href="#BitstreamVeraSans-Roman-30"/>
       <use x="147.412109375" xlink:href="#BitstreamVeraSans-Roman-2e"/>
       <use x="179.19921875" xlink:href="#BitstreamVeraSans-Roman-34"/>
      </g>
     </g>
    </g>
    <g id="ytick_14">
     <g id="line2d_41">
      <g>
       <use style="stroke:#000000;stroke-width:0.5;" x="468.71999999999997" xlink:href="#m35c0bfd0ca" y="216.0"/>
      </g>
     </g>
     <g id="text_25">
      <!-- 0.0 -->
      <g transform="translate(472.71999999999997 219.31125)scale(0.12 -0.12)">
       <use xlink:href="#BitstreamVeraSans-Roman-30"/>
       <use x="63.623046875" xlink:href="#BitstreamVeraSans-Roman-2e"/>
       <use x="95.41015625" xlink:href="#BitstreamVeraSans-Roman-30"/>
      </g>
     </g>
    </g>
    <g id="ytick_15">
     <g id="line2d_42">
      <g>
       <use style="stroke:#000000;stroke-width:0.5;" x="468.71999999999997" xlink:href="#m35c0bfd0ca" y="172.8"/>
      </g>
     </g>
     <g id="text_26">
      <!-- 0.4 -->
      <g transform="translate(472.71999999999997 176.11125)scale(0.12 -0.12)">
       <use xlink:href="#BitstreamVeraSans-Roman-30"/>
       <use x="63.623046875" xlink:href="#BitstreamVeraSans-Roman-2e"/>
       <use x="95.41015625" xlink:href="#BitstreamVeraSans-Roman-34"/>
      </g>
     </g>
    </g>
    <g id="ytick_16">
     <g id="line2d_43">
      <g>
       <use style="stroke:#000000;stroke-width:0.5;" x="468.71999999999997" xlink:href="#m35c0bfd0ca" y="129.59999999999997"/>
      </g>
     </g>
     <g id="text_27">
      <!-- 0.8 -->
      <g transform="translate(472.71999999999997 132.91124999999994)scale(0.12 -0.12)">
       <use xlink:href="#BitstreamVeraSans-Roman-30"/>
       <use x="63.623046875" xlink:href="#BitstreamVeraSans-Roman-2e"/>
       <use x="95.41015625" xlink:href="#BitstreamVeraSans-Roman-38"/>
      </g>
     </g>
    </g>
    <g id="ytick_17">
     <g id="line2d_44">
      <g>
       <use style="stroke:#000000;stroke-width:0.5;" x="468.71999999999997" xlink:href="#m35c0bfd0ca" y="86.39999999999998"/>
      </g>
     </g>
     <g id="text_28">
      <!-- 1.2 -->
      <g transform="translate(472.71999999999997 89.71124999999995)scale(0.12 -0.12)">
       <use xlink:href="#BitstreamVeraSans-Roman-31"/>
       <use x="63.623046875" xlink:href="#BitstreamVeraSans-Roman-2e"/>
       <use x="95.41015625" xlink:href="#BitstreamVeraSans-Roman-32"/>
      </g>
     </g>
    </g>
    <g id="ytick_18">
     <g id="line2d_45">
      <g>
       <use style="stroke:#000000;stroke-width:0.5;" x="468.71999999999997" xlink:href="#m35c0bfd0ca" y="43.19999999999999"/>
      </g>
     </g>
     <g id="text_29">
      <!-- 1.6 -->
      <g transform="translate(472.71999999999997 46.51124999999996)scale(0.12 -0.12)">
       <use xlink:href="#BitstreamVeraSans-Roman-31"/>
       <use x="63.623046875" xlink:href="#BitstreamVeraSans-Roman-2e"/>
       <use x="95.41015625" xlink:href="#BitstreamVeraSans-Roman-36"/>
      </g>
     </g>
    </g>
   </g>
  </g>
 </g>
 <defs>
  <clipPath id="p6b4d8d3cba">
   <rect height="345.6" width="17.28000000000003" x="451.43999999999994" y="43.19999999999999"/>
  </clipPath>
  <clipPath id="p1ff649c19a">
   <rect height="345.6" width="357.12" x="72.0" y="43.19999999999999"/>
  </clipPath>
 </defs>
</svg>
