<?xml version="1.0" encoding="utf-8" standalone="no"?>
<!DOCTYPE svg PUBLIC "-//W3C//DTD SVG 1.1//EN"
  "http://www.w3.org/Graphics/SVG/1.1/DTD/svg11.dtd">
<!-- Created with matplotlib (http://matplotlib.org/) -->
<svg height="432pt" version="1.1" viewBox="0 0 576 432" width="576pt" xmlns="http://www.w3.org/2000/svg" xmlns:xlink="http://www.w3.org/1999/xlink">
 <defs>
  <style type="text/css">
*{stroke-linecap:butt;stroke-linejoin:round;stroke-miterlimit:100000;}
  </style>
 </defs>
 <g id="figure_1">
  <g id="patch_1">
   <path d="M 0 432 
L 576 432 
L 576 0 
L 0 0 
z
" style="fill:#ffffff;"/>
  </g>
  <g id="axes_1">
   <g id="patch_2">
    <path d="M 72 388.8 
L 429.12 388.8 
L 429.12 43.2 
L 72 43.2 
z
" style="fill:#ffffff;"/>
   </g>
   <g id="PathCollection_1">
    <path clip-path="url(#p72a2afd516)" d="M 72 352.747791 
L 72 354.24 
L 72 365.76 
L 72 377.28 
L 72 388.8 
L 83.904 388.8 
L 95.808 388.8 
L 107.712 388.8 
L 119.616 388.8 
L 131.52 388.8 
L 143.424 388.8 
L 155.328 388.8 
L 167.232 388.8 
L 179.136 388.8 
L 191.04 388.8 
L 202.944 388.8 
L 214.848 388.8 
L 226.752 388.8 
L 238.656 388.8 
L 250.56 388.8 
L 262.464 388.8 
L 265.39662 388.8 
L 262.464 387.753101 
L 250.56 383.744189 
L 238.656 379.477512 
L 232.038628 377.28 
L 226.752 376.325364 
L 214.848 374.345593 
L 202.944 372.414559 
L 191.04 370.579426 
L 179.136 368.861391 
L 167.232 367.263346 
L 155.328 365.777319 
L 155.173133 365.76 
L 143.424 363.966349 
L 131.52 362.142244 
L 119.616 360.321773 
L 107.712 358.51358 
L 95.808 356.724743 
L 83.904 354.962363 
L 78.870711 354.24 
z
" style="fill:#506bda;"/>
   </g>
   <g id="PathCollection_2">
    <path clip-path="url(#p72a2afd516)" d="M 83.904 273.240607 
L 72 264.977171 
L 72 273.6 
L 72 285.12 
L 72 296.64 
L 72 308.16 
L 72 319.68 
L 72 331.2 
L 72 342.72 
L 72 352.747791 
L 78.870711 354.24 
L 83.904 354.962363 
L 95.808 356.724743 
L 107.712 358.51358 
L 119.616 360.321773 
L 131.52 362.142244 
L 143.424 363.966349 
L 155.173133 365.76 
L 155.328 365.777319 
L 167.232 367.263346 
L 179.136 368.861391 
L 191.04 370.579426 
L 202.944 372.414559 
L 214.848 374.345593 
L 226.752 376.325364 
L 232.038628 377.28 
L 238.656 379.477512 
L 250.56 383.744189 
L 262.464 387.753101 
L 265.39662 388.8 
L 274.368 388.8 
L 286.272 388.8 
L 298.176 388.8 
L 300.566102 388.8 
L 298.176 387.605744 
L 286.272 381.982092 
L 277.572011 377.28 
L 274.368 376.155568 
L 262.464 372.411484 
L 250.56 368.232051 
L 243.581294 365.76 
L 238.656 363.949904 
L 226.752 359.656643 
L 214.848 354.828877 
L 213.273967 354.24 
L 202.944 349.411857 
L 191.04 343.105066 
L 190.264522 342.72 
L 179.136 336.646411 
L 170.107708 331.2 
L 167.232 329.440998 
L 155.328 321.998782 
L 151.68787 319.68 
L 143.424 314.466701 
L 134.16809 308.16 
L 131.52 306.410574 
L 119.616 298.292756 
L 117.218769 296.64 
L 107.712 290.303632 
L 100.453714 285.12 
L 95.808 281.942182 
L 84.419455 273.6 
z
" style="fill:#80a3fa;"/>
   </g>
   <g id="PathCollection_3">
    <path clip-path="url(#p72a2afd516)" d="M 72 232.219877 
L 72 239.04 
L 72 250.56 
L 72 262.08 
L 72 264.977171 
L 83.904 273.240607 
L 84.419455 273.6 
L 95.808 281.942182 
L 100.453714 285.12 
L 107.712 290.303632 
L 117.218769 296.64 
L 119.616 298.292756 
L 131.52 306.410574 
L 134.16809 308.16 
L 143.424 314.466701 
L 151.68787 319.68 
L 155.328 321.998782 
L 167.232 329.440998 
L 170.107708 331.2 
L 179.136 336.646411 
L 190.264522 342.72 
L 191.04 343.105066 
L 202.944 349.411857 
L 213.273967 354.24 
L 214.848 354.828877 
L 226.752 359.656643 
L 238.656 363.949904 
L 243.581294 365.76 
L 250.56 368.232051 
L 262.464 372.411484 
L 274.368 376.155568 
L 277.572011 377.28 
L 286.272 381.982092 
L 298.176 387.605744 
L 300.566102 388.8 
L 310.08 388.8 
L 318.932776 388.8 
L 310.08 383.943621 
L 298.176 377.716653 
L 297.380547 377.28 
L 286.272 372.704408 
L 274.368 368.191462 
L 268.405625 365.76 
L 262.464 362.928957 
L 250.56 357.652324 
L 243.316438 354.24 
L 238.656 351.469635 
L 226.752 344.474254 
L 223.818091 342.72 
L 214.848 336.948551 
L 206.361715 331.2 
L 202.944 328.837575 
L 191.04 320.444607 
L 189.960894 319.68 
L 179.136 312.165795 
L 173.683747 308.16 
L 167.232 303.550003 
L 158.020298 296.64 
L 155.328 294.677074 
L 143.424 285.75687 
L 142.582437 285.12 
L 131.52 277.124074 
L 126.917099 273.6 
L 119.616 268.254256 
L 111.612979 262.08 
L 107.712 259.193215 
L 96.575651 250.56 
L 95.808 249.98667 
L 83.904 241.123966 
L 81.227182 239.04 
z
" style="fill:#b2ccfb;"/>
   </g>
   <g id="PathCollection_4">
    <path clip-path="url(#p72a2afd516)" d="M 72 213.102693 
L 72 216 
L 72 227.52 
L 72 232.219877 
L 81.227182 239.04 
L 83.904 241.123966 
L 95.808 249.98667 
L 96.575651 250.56 
L 107.712 259.193215 
L 111.612979 262.08 
L 119.616 268.254256 
L 126.917099 273.6 
L 131.52 277.124074 
L 142.582437 285.12 
L 143.424 285.75687 
L 155.328 294.677074 
L 158.020298 296.64 
L 167.232 303.550003 
L 173.683747 308.16 
L 179.136 312.165795 
L 189.960894 319.68 
L 191.04 320.444607 
L 202.944 328.837575 
L 206.361715 331.2 
L 214.848 336.948551 
L 223.818091 342.72 
L 226.752 344.474254 
L 238.656 351.469635 
L 243.316438 354.24 
L 250.56 357.652324 
L 262.464 362.928957 
L 268.405625 365.76 
L 274.368 368.191462 
L 286.272 372.704408 
L 297.380547 377.28 
L 298.176 377.716653 
L 310.08 383.943621 
L 318.932776 388.8 
L 321.984 388.8 
L 333.888 388.8 
L 338.486424 388.8 
L 333.888 386.184185 
L 321.984 379.975534 
L 316.437525 377.28 
L 310.08 374.333903 
L 298.176 369.510479 
L 287.724827 365.76 
L 286.272 364.981072 
L 274.368 358.915704 
L 263.9219 354.24 
L 262.464 353.272643 
L 250.56 345.821481 
L 245.411796 342.72 
L 238.656 337.919839 
L 228.617757 331.2 
L 226.752 329.809301 
L 214.848 321.338342 
L 212.519886 319.68 
L 202.944 312.549669 
L 196.917578 308.16 
L 191.04 303.69227 
L 181.464904 296.64 
L 179.136 294.843897 
L 167.232 285.989421 
L 166.078039 285.12 
L 155.328 276.941022 
L 150.909628 273.6 
L 143.424 267.841457 
L 135.812506 262.08 
L 131.52 258.747255 
L 120.69656 250.56 
L 119.616 249.714431 
L 107.712 240.651959 
L 105.615956 239.04 
L 95.808 231.480689 
L 90.650621 227.52 
L 83.904 222.281169 
L 75.705916 216 
z
" style="fill:#dddcdc;"/>
   </g>
   <g id="PathCollection_5">
    <path clip-path="url(#p72a2afd516)" d="M 72 192.59578 
L 72 192.96 
L 72 204.48 
L 72 213.102693 
L 75.705916 216 
L 83.904 222.281169 
L 90.650621 227.52 
L 95.808 231.480689 
L 105.615956 239.04 
L 107.712 240.651959 
L 119.616 249.714431 
L 120.69656 250.56 
L 131.52 258.747255 
L 135.812506 262.08 
L 143.424 267.841457 
L 150.909628 273.6 
L 155.328 276.941022 
L 166.078039 285.12 
L 167.232 285.989421 
L 179.136 294.843897 
L 181.464904 296.64 
L 191.04 303.69227 
L 196.917578 308.16 
L 202.944 312.549669 
L 212.519886 319.68 
L 214.848 321.338342 
L 226.752 329.809301 
L 228.617757 331.2 
L 238.656 337.919839 
L 245.411796 342.72 
L 250.56 345.821481 
L 262.464 353.272643 
L 263.9219 354.24 
L 274.368 358.915704 
L 286.272 364.981072 
L 287.724827 365.76 
L 298.176 369.510479 
L 310.08 374.333903 
L 316.437525 377.28 
L 321.984 379.975534 
L 333.888 386.184185 
L 338.486424 388.8 
L 345.792 388.8 
L 357.696 388.8 
L 369.6 388.8 
L 381.504 388.8 
L 381.739298 388.8 
L 381.504 388.703044 
L 369.6 383.308259 
L 357.696 378.676938 
L 354.062712 377.28 
L 345.792 374.46224 
L 333.888 370.436488 
L 321.984 366.963516 
L 317.835724 365.76 
L 310.08 362.114038 
L 298.176 356.949809 
L 291.163076 354.24 
L 286.272 351.075605 
L 274.368 344.070848 
L 271.975408 342.72 
L 262.464 335.782785 
L 255.285648 331.2 
L 250.56 327.615729 
L 238.763628 319.68 
L 238.656 319.596712 
L 226.752 310.400864 
L 223.555591 308.16 
L 214.848 301.32922 
L 208.243159 296.64 
L 202.944 292.448897 
L 192.699852 285.12 
L 191.04 283.799898 
L 179.136 274.76198 
L 177.540698 273.6 
L 167.232 265.39281 
L 162.691044 262.08 
L 155.328 256.192663 
L 147.613658 250.56 
L 143.424 247.199105 
L 132.254862 239.04 
L 131.52 238.449057 
L 119.616 229.103411 
L 117.475116 227.52 
L 107.712 219.686645 
L 102.719795 216 
L 95.808 210.438596 
L 87.728072 204.48 
L 83.904 201.396163 
L 72.45088 192.96 
z
" style="fill:#f6bfa6;"/>
   </g>
   <g id="PathCollection_6">
    <path clip-path="url(#p72a2afd516)" d="M 191.04 50.934523 
L 179.814291 43.2 
L 179.136 43.2 
L 167.232 43.2 
L 155.328 43.2 
L 143.424 43.2 
L 131.52 43.2 
L 119.616 43.2 
L 107.712 43.2 
L 95.808 43.2 
L 83.904 43.2 
L 72 43.2 
L 72 54.72 
L 72 66.24 
L 72 77.76 
L 72 89.28 
L 72 100.8 
L 72 112.32 
L 72 123.84 
L 72 135.36 
L 72 146.88 
L 72 158.4 
L 72 169.92 
L 72 181.44 
L 72 192.59578 
L 72.45088 192.96 
L 83.904 201.396163 
L 87.728072 204.48 
L 95.808 210.438596 
L 102.719795 216 
L 107.712 219.686645 
L 117.475116 227.52 
L 119.616 229.103411 
L 131.52 238.449057 
L 132.254862 239.04 
L 143.424 247.199105 
L 147.613658 250.56 
L 155.328 256.192663 
L 162.691044 262.08 
L 167.232 265.39281 
L 177.540698 273.6 
L 179.136 274.76198 
L 191.04 283.799898 
L 192.699852 285.12 
L 202.944 292.448897 
L 208.243159 296.64 
L 214.848 301.32922 
L 223.555591 308.16 
L 226.752 310.400864 
L 238.656 319.596712 
L 238.763628 319.68 
L 250.56 327.615729 
L 255.285648 331.2 
L 262.464 335.782785 
L 271.975408 342.72 
L 274.368 344.070848 
L 286.272 351.075605 
L 291.163076 354.24 
L 298.176 356.949809 
L 310.08 362.114038 
L 317.835724 365.76 
L 321.984 366.963516 
L 333.888 370.436488 
L 345.792 374.46224 
L 354.062712 377.28 
L 357.696 378.676938 
L 369.6 383.308259 
L 381.504 388.703044 
L 381.739298 388.8 
L 393.408 388.8 
L 405.312 388.8 
L 417.216 388.8 
L 429.12 388.8 
L 429.12 377.28 
L 429.12 365.76 
L 429.12 354.24 
L 429.12 342.72 
L 429.12 331.2 
L 429.12 319.68 
L 429.12 308.16 
L 429.12 296.64 
L 429.12 285.12 
L 429.12 273.6 
L 429.12 262.08 
L 429.12 250.56 
L 429.12 239.04 
L 429.12 227.52 
L 429.12 216 
L 429.12 204.590557 
L 428.92182 204.48 
L 417.216 197.670981 
L 408.979937 192.96 
L 405.312 190.78205 
L 393.408 183.708976 
L 389.581256 181.44 
L 381.504 176.487109 
L 370.606156 169.92 
L 369.6 169.294443 
L 357.696 161.830503 
L 352.155774 158.4 
L 345.792 154.342541 
L 333.888 146.88 
L 333.888 146.88 
L 321.984 139.127645 
L 316.104585 135.36 
L 310.08 131.400745 
L 298.385058 123.84 
L 298.176 123.701499 
L 286.272 115.74903 
L 281.058142 112.32 
L 274.368 107.814575 
L 263.774751 100.8 
L 262.464 99.912605 
L 250.56 91.82308 
L 246.773394 89.28 
L 238.656 83.706811 
L 229.85188 77.76 
L 226.752 75.622841 
L 214.848 67.466805 
L 213.053647 66.24 
L 202.944 59.181326 
L 196.446864 54.72 
z
" style="fill:#f08a6c;"/>
   </g>
   <g id="PathCollection_7">
    <path clip-path="url(#p72a2afd516)" d="M 417.216 43.2 
L 405.312 43.2 
L 393.408 43.2 
L 381.504 43.2 
L 369.6 43.2 
L 357.696 43.2 
L 345.792 43.2 
L 333.888 43.2 
L 321.984 43.2 
L 310.08 43.2 
L 298.176 43.2 
L 286.272 43.2 
L 274.368 43.2 
L 262.464 43.2 
L 250.56 43.2 
L 238.656 43.2 
L 226.752 43.2 
L 214.848 43.2 
L 202.944 43.2 
L 191.04 43.2 
L 179.814291 43.2 
L 191.04 50.934523 
L 196.446864 54.72 
L 202.944 59.181326 
L 213.053647 66.24 
L 214.848 67.466805 
L 226.752 75.622841 
L 229.85188 77.76 
L 238.656 83.706811 
L 246.773394 89.28 
L 250.56 91.82308 
L 262.464 99.912605 
L 263.774751 100.8 
L 274.368 107.814575 
L 281.058142 112.32 
L 286.272 115.74903 
L 298.176 123.701499 
L 298.385058 123.84 
L 310.08 131.400745 
L 316.104585 135.36 
L 321.984 139.127645 
L 333.888 146.88 
L 333.888 146.88 
L 345.792 154.342541 
L 352.155774 158.4 
L 357.696 161.830503 
L 369.6 169.294443 
L 370.606156 169.92 
L 381.504 176.487109 
L 389.581256 181.44 
L 393.408 183.708976 
L 405.312 190.78205 
L 408.979937 192.96 
L 417.216 197.670981 
L 428.92182 204.48 
L 429.12 204.590557 
L 429.12 204.48 
L 429.12 192.96 
L 429.12 181.44 
L 429.12 169.92 
L 429.12 158.4 
L 429.12 146.88 
L 429.12 135.36 
L 429.12 123.84 
L 429.12 112.32 
L 429.12 100.8 
L 429.12 89.28 
L 429.12 77.76 
L 429.12 66.24 
L 429.12 54.72 
L 429.12 43.2 
z
" style="fill:#cd423b;"/>
   </g>
   <g id="patch_3">
    <path d="M 72 43.2 
L 429.12 43.2 
" style="fill:none;stroke:#000000;stroke-linecap:square;stroke-linejoin:miter;"/>
   </g>
   <g id="patch_4">
    <path d="M 429.12 388.8 
L 429.12 43.2 
" style="fill:none;stroke:#000000;stroke-linecap:square;stroke-linejoin:miter;"/>
   </g>
   <g id="patch_5">
    <path d="M 72 388.8 
L 429.12 388.8 
" style="fill:none;stroke:#000000;stroke-linecap:square;stroke-linejoin:miter;"/>
   </g>
   <g id="patch_6">
    <path d="M 72 388.8 
L 72 43.2 
" style="fill:none;stroke:#000000;stroke-linecap:square;stroke-linejoin:miter;"/>
   </g>
   <g id="matplotlib.axis_1">
    <g id="xtick_1">
     <g id="line2d_1">
      <defs>
       <path d="M 0 0 
L 0 -4 
" id="m5a00dab1c2" style="stroke:#000000;stroke-width:0.5;"/>
      </defs>
      <g>
       <use style="stroke:#000000;stroke-width:0.5;" x="72.0" xlink:href="#m5a00dab1c2" y="388.8"/>
      </g>
     </g>
     <g id="line2d_2">
      <defs>
       <path d="M 0 0 
L 0 4 
" id="mf2ae8324c2" style="stroke:#000000;stroke-width:0.5;"/>
      </defs>
      <g>
       <use style="stroke:#000000;stroke-width:0.5;" x="72.0" xlink:href="#mf2ae8324c2" y="43.19999999999999"/>
      </g>
     </g>
     <g id="text_1">
      <!-- −4 -->
      <defs>
       <path d="M 10.59375 35.5 
L 73.1875 35.5 
L 73.1875 27.203125 
L 10.59375 27.203125 
z
" id="BitstreamVeraSans-Roman-2212"/>
       <path d="M 37.796875 64.3125 
L 12.890625 25.390625 
L 37.796875 25.390625 
z
M 35.203125 72.90625 
L 47.609375 72.90625 
L 47.609375 25.390625 
L 58.015625 25.390625 
L 58.015625 17.1875 
L 47.609375 17.1875 
L 47.609375 0 
L 37.796875 0 
L 37.796875 17.1875 
L 4.890625 17.1875 
L 4.890625 26.703125 
z
" id="BitstreamVeraSans-Roman-34"/>
      </defs>
      <g transform="translate(63.1546875 401.91812500000003)scale(0.12 -0.12)">
       <use xlink:href="#BitstreamVeraSans-Roman-2212"/>
       <use x="83.7890625" xlink:href="#BitstreamVeraSans-Roman-34"/>
      </g>
     </g>
    </g>
    <g id="xtick_2">
     <g id="line2d_3">
      <g>
       <use style="stroke:#000000;stroke-width:0.5;" x="116.63999999999999" xlink:href="#m5a00dab1c2" y="388.8"/>
      </g>
     </g>
     <g id="line2d_4">
      <g>
       <use style="stroke:#000000;stroke-width:0.5;" x="116.63999999999999" xlink:href="#mf2ae8324c2" y="43.19999999999999"/>
      </g>
     </g>
     <g id="text_2">
      <!-- −3 -->
      <defs>
       <path d="M 40.578125 39.3125 
Q 47.65625 37.796875 51.625 33 
Q 55.609375 28.21875 55.609375 21.1875 
Q 55.609375 10.40625 48.1875 4.484375 
Q 40.765625 -1.421875 27.09375 -1.421875 
Q 22.515625 -1.421875 17.65625 -0.515625 
Q 12.796875 0.390625 7.625 2.203125 
L 7.625 11.71875 
Q 11.71875 9.328125 16.59375 8.109375 
Q 21.484375 6.890625 26.8125 6.890625 
Q 36.078125 6.890625 40.9375 10.546875 
Q 45.796875 14.203125 45.796875 21.1875 
Q 45.796875 27.640625 41.28125 31.265625 
Q 36.765625 34.90625 28.71875 34.90625 
L 20.21875 34.90625 
L 20.21875 43.015625 
L 29.109375 43.015625 
Q 36.375 43.015625 40.234375 45.921875 
Q 44.09375 48.828125 44.09375 54.296875 
Q 44.09375 59.90625 40.109375 62.90625 
Q 36.140625 65.921875 28.71875 65.921875 
Q 24.65625 65.921875 20.015625 65.03125 
Q 15.375 64.15625 9.8125 62.3125 
L 9.8125 71.09375 
Q 15.4375 72.65625 20.34375 73.4375 
Q 25.25 74.21875 29.59375 74.21875 
Q 40.828125 74.21875 47.359375 69.109375 
Q 53.90625 64.015625 53.90625 55.328125 
Q 53.90625 49.265625 50.4375 45.09375 
Q 46.96875 40.921875 40.578125 39.3125 
" id="BitstreamVeraSans-Roman-33"/>
      </defs>
      <g transform="translate(107.79468749999998 401.91812500000003)scale(0.12 -0.12)">
       <use xlink:href="#BitstreamVeraSans-Roman-2212"/>
       <use x="83.7890625" xlink:href="#BitstreamVeraSans-Roman-33"/>
      </g>
     </g>
    </g>
    <g id="xtick_3">
     <g id="line2d_5">
      <g>
       <use style="stroke:#000000;stroke-width:0.5;" x="161.28" xlink:href="#m5a00dab1c2" y="388.8"/>
      </g>
     </g>
     <g id="line2d_6">
      <g>
       <use style="stroke:#000000;stroke-width:0.5;" x="161.28" xlink:href="#mf2ae8324c2" y="43.19999999999999"/>
      </g>
     </g>
     <g id="text_3">
      <!-- −2 -->
      <defs>
       <path d="M 19.1875 8.296875 
L 53.609375 8.296875 
L 53.609375 0 
L 7.328125 0 
L 7.328125 8.296875 
Q 12.9375 14.109375 22.625 23.890625 
Q 32.328125 33.6875 34.8125 36.53125 
Q 39.546875 41.84375 41.421875 45.53125 
Q 43.3125 49.21875 43.3125 52.78125 
Q 43.3125 58.59375 39.234375 62.25 
Q 35.15625 65.921875 28.609375 65.921875 
Q 23.96875 65.921875 18.8125 64.3125 
Q 13.671875 62.703125 7.8125 59.421875 
L 7.8125 69.390625 
Q 13.765625 71.78125 18.9375 73 
Q 24.125 74.21875 28.421875 74.21875 
Q 39.75 74.21875 46.484375 68.546875 
Q 53.21875 62.890625 53.21875 53.421875 
Q 53.21875 48.921875 51.53125 44.890625 
Q 49.859375 40.875 45.40625 35.40625 
Q 44.1875 33.984375 37.640625 27.21875 
Q 31.109375 20.453125 19.1875 8.296875 
" id="BitstreamVeraSans-Roman-32"/>
      </defs>
      <g transform="translate(152.4346875 401.91812500000003)scale(0.12 -0.12)">
       <use xlink:href="#BitstreamVeraSans-Roman-2212"/>
       <use x="83.7890625" xlink:href="#BitstreamVeraSans-Roman-32"/>
      </g>
     </g>
    </g>
    <g id="xtick_4">
     <g id="line2d_7">
      <g>
       <use style="stroke:#000000;stroke-width:0.5;" x="205.92000000000002" xlink:href="#m5a00dab1c2" y="388.8"/>
      </g>
     </g>
     <g id="line2d_8">
      <g>
       <use style="stroke:#000000;stroke-width:0.5;" x="205.92000000000002" xlink:href="#mf2ae8324c2" y="43.19999999999999"/>
      </g>
     </g>
     <g id="text_4">
      <!-- −1 -->
      <defs>
       <path d="M 12.40625 8.296875 
L 28.515625 8.296875 
L 28.515625 63.921875 
L 10.984375 60.40625 
L 10.984375 69.390625 
L 28.421875 72.90625 
L 38.28125 72.90625 
L 38.28125 8.296875 
L 54.390625 8.296875 
L 54.390625 0 
L 12.40625 0 
z
" id="BitstreamVeraSans-Roman-31"/>
      </defs>
      <g transform="translate(197.0746875 401.91812500000003)scale(0.12 -0.12)">
       <use xlink:href="#BitstreamVeraSans-Roman-2212"/>
       <use x="83.7890625" xlink:href="#BitstreamVeraSans-Roman-31"/>
      </g>
     </g>
    </g>
    <g id="xtick_5">
     <g id="line2d_9">
      <g>
       <use style="stroke:#000000;stroke-width:0.5;" x="250.56" xlink:href="#m5a00dab1c2" y="388.8"/>
      </g>
     </g>
     <g id="line2d_10">
      <g>
       <use style="stroke:#000000;stroke-width:0.5;" x="250.56" xlink:href="#mf2ae8324c2" y="43.19999999999999"/>
      </g>
     </g>
     <g id="text_5">
      <!-- 0 -->
      <defs>
       <path d="M 31.78125 66.40625 
Q 24.171875 66.40625 20.328125 58.90625 
Q 16.5 51.421875 16.5 36.375 
Q 16.5 21.390625 20.328125 13.890625 
Q 24.171875 6.390625 31.78125 6.390625 
Q 39.453125 6.390625 43.28125 13.890625 
Q 47.125 21.390625 47.125 36.375 
Q 47.125 51.421875 43.28125 58.90625 
Q 39.453125 66.40625 31.78125 66.40625 
M 31.78125 74.21875 
Q 44.046875 74.21875 50.515625 64.515625 
Q 56.984375 54.828125 56.984375 36.375 
Q 56.984375 17.96875 50.515625 8.265625 
Q 44.046875 -1.421875 31.78125 -1.421875 
Q 19.53125 -1.421875 13.0625 8.265625 
Q 6.59375 17.96875 6.59375 36.375 
Q 6.59375 54.828125 13.0625 64.515625 
Q 19.53125 74.21875 31.78125 74.21875 
" id="BitstreamVeraSans-Roman-30"/>
      </defs>
      <g transform="translate(246.7425 401.91812500000003)scale(0.12 -0.12)">
       <use xlink:href="#BitstreamVeraSans-Roman-30"/>
      </g>
     </g>
    </g>
    <g id="xtick_6">
     <g id="line2d_11">
      <g>
       <use style="stroke:#000000;stroke-width:0.5;" x="295.2" xlink:href="#m5a00dab1c2" y="388.8"/>
      </g>
     </g>
     <g id="line2d_12">
      <g>
       <use style="stroke:#000000;stroke-width:0.5;" x="295.2" xlink:href="#mf2ae8324c2" y="43.19999999999999"/>
      </g>
     </g>
     <g id="text_6">
      <!-- 1 -->
      <g transform="translate(291.3825 401.91812500000003)scale(0.12 -0.12)">
       <use xlink:href="#BitstreamVeraSans-Roman-31"/>
      </g>
     </g>
    </g>
    <g id="xtick_7">
     <g id="line2d_13">
      <g>
       <use style="stroke:#000000;stroke-width:0.5;" x="339.84000000000003" xlink:href="#m5a00dab1c2" y="388.8"/>
      </g>
     </g>
     <g id="line2d_14">
      <g>
       <use style="stroke:#000000;stroke-width:0.5;" x="339.84000000000003" xlink:href="#mf2ae8324c2" y="43.19999999999999"/>
      </g>
     </g>
     <g id="text_7">
      <!-- 2 -->
      <g transform="translate(336.02250000000004 401.91812500000003)scale(0.12 -0.12)">
       <use xlink:href="#BitstreamVeraSans-Roman-32"/>
      </g>
     </g>
    </g>
    <g id="xtick_8">
     <g id="line2d_15">
      <g>
       <use style="stroke:#000000;stroke-width:0.5;" x="384.48" xlink:href="#m5a00dab1c2" y="388.8"/>
      </g>
     </g>
     <g id="line2d_16">
      <g>
       <use style="stroke:#000000;stroke-width:0.5;" x="384.48" xlink:href="#mf2ae8324c2" y="43.19999999999999"/>
      </g>
     </g>
     <g id="text_8">
      <!-- 3 -->
      <g transform="translate(380.6625 401.91812500000003)scale(0.12 -0.12)">
       <use xlink:href="#BitstreamVeraSans-Roman-33"/>
      </g>
     </g>
    </g>
    <g id="xtick_9">
     <g id="line2d_17">
      <g>
       <use style="stroke:#000000;stroke-width:0.5;" x="429.12" xlink:href="#m5a00dab1c2" y="388.8"/>
      </g>
     </g>
     <g id="line2d_18">
      <g>
       <use style="stroke:#000000;stroke-width:0.5;" x="429.12" xlink:href="#mf2ae8324c2" y="43.19999999999999"/>
      </g>
     </g>
     <g id="text_9">
      <!-- 4 -->
      <g transform="translate(425.3025 401.91812500000003)scale(0.12 -0.12)">
       <use xlink:href="#BitstreamVeraSans-Roman-34"/>
      </g>
     </g>
    </g>
    <g id="text_10">
     <!-- x -->
     <defs>
      <path d="M 54.890625 54.6875 
L 35.109375 28.078125 
L 55.90625 0 
L 45.3125 0 
L 29.390625 21.484375 
L 13.484375 0 
L 2.875 0 
L 24.125 28.609375 
L 4.6875 54.6875 
L 15.28125 54.6875 
L 29.78125 35.203125 
L 44.28125 54.6875 
z
" id="BitstreamVeraSans-Roman-78"/>
     </defs>
     <g transform="translate(247.00875 418.531875)scale(0.12 -0.12)">
      <use xlink:href="#BitstreamVeraSans-Roman-78"/>
     </g>
    </g>
   </g>
   <g id="matplotlib.axis_2">
    <g id="ytick_1">
     <g id="line2d_19">
      <defs>
       <path d="M 0 0 
L 4 0 
" id="m25c8110644" style="stroke:#000000;stroke-width:0.5;"/>
      </defs>
      <g>
       <use style="stroke:#000000;stroke-width:0.5;" x="72.0" xlink:href="#m25c8110644" y="388.8"/>
      </g>
     </g>
     <g id="line2d_20">
      <defs>
       <path d="M 0 0 
L -4 0 
" id="m7be132b079" style="stroke:#000000;stroke-width:0.5;"/>
      </defs>
      <g>
       <use style="stroke:#000000;stroke-width:0.5;" x="429.12" xlink:href="#m7be132b079" y="388.8"/>
      </g>
     </g>
     <g id="text_11">
      <!-- 0 -->
      <g transform="translate(60.365 392.11125000000004)scale(0.12 -0.12)">
       <use xlink:href="#BitstreamVeraSans-Roman-30"/>
      </g>
     </g>
    </g>
    <g id="ytick_2">
     <g id="line2d_21">
      <g>
       <use style="stroke:#000000;stroke-width:0.5;" x="72.0" xlink:href="#m25c8110644" y="302.4"/>
      </g>
     </g>
     <g id="line2d_22">
      <g>
       <use style="stroke:#000000;stroke-width:0.5;" x="429.12" xlink:href="#m7be132b079" y="302.4"/>
      </g>
     </g>
     <g id="text_12">
      <!-- 5 -->
      <defs>
       <path d="M 10.796875 72.90625 
L 49.515625 72.90625 
L 49.515625 64.59375 
L 19.828125 64.59375 
L 19.828125 46.734375 
Q 21.96875 47.46875 24.109375 47.828125 
Q 26.265625 48.1875 28.421875 48.1875 
Q 40.625 48.1875 47.75 41.5 
Q 54.890625 34.8125 54.890625 23.390625 
Q 54.890625 11.625 47.5625 5.09375 
Q 40.234375 -1.421875 26.90625 -1.421875 
Q 22.3125 -1.421875 17.546875 -0.640625 
Q 12.796875 0.140625 7.71875 1.703125 
L 7.71875 11.625 
Q 12.109375 9.234375 16.796875 8.0625 
Q 21.484375 6.890625 26.703125 6.890625 
Q 35.15625 6.890625 40.078125 11.328125 
Q 45.015625 15.765625 45.015625 23.390625 
Q 45.015625 31 40.078125 35.4375 
Q 35.15625 39.890625 26.703125 39.890625 
Q 22.75 39.890625 18.8125 39.015625 
Q 14.890625 38.140625 10.796875 36.28125 
z
" id="BitstreamVeraSans-Roman-35"/>
      </defs>
      <g transform="translate(60.365 305.71125)scale(0.12 -0.12)">
       <use xlink:href="#BitstreamVeraSans-Roman-35"/>
      </g>
     </g>
    </g>
    <g id="ytick_3">
     <g id="line2d_23">
      <g>
       <use style="stroke:#000000;stroke-width:0.5;" x="72.0" xlink:href="#m25c8110644" y="216.0"/>
      </g>
     </g>
     <g id="line2d_24">
      <g>
       <use style="stroke:#000000;stroke-width:0.5;" x="429.12" xlink:href="#m7be132b079" y="216.0"/>
      </g>
     </g>
     <g id="text_13">
      <!-- 10 -->
      <g transform="translate(52.730000000000004 219.31125)scale(0.12 -0.12)">
       <use xlink:href="#BitstreamVeraSans-Roman-31"/>
       <use x="63.623046875" xlink:href="#BitstreamVeraSans-Roman-30"/>
      </g>
     </g>
    </g>
    <g id="ytick_4">
     <g id="line2d_25">
      <g>
       <use style="stroke:#000000;stroke-width:0.5;" x="72.0" xlink:href="#m25c8110644" y="129.59999999999997"/>
      </g>
     </g>
     <g id="line2d_26">
      <g>
       <use style="stroke:#000000;stroke-width:0.5;" x="429.12" xlink:href="#m7be132b079" y="129.59999999999997"/>
      </g>
     </g>
     <g id="text_14">
      <!-- 15 -->
      <g transform="translate(52.730000000000004 132.91124999999994)scale(0.12 -0.12)">
       <use xlink:href="#BitstreamVeraSans-Roman-31"/>
       <use x="63.623046875" xlink:href="#BitstreamVeraSans-Roman-35"/>
      </g>
     </g>
    </g>
    <g id="ytick_5">
     <g id="line2d_27">
      <g>
       <use style="stroke:#000000;stroke-width:0.5;" x="72.0" xlink:href="#m25c8110644" y="43.19999999999999"/>
      </g>
     </g>
     <g id="line2d_28">
      <g>
       <use style="stroke:#000000;stroke-width:0.5;" x="429.12" xlink:href="#m7be132b079" y="43.19999999999999"/>
      </g>
     </g>
     <g id="text_15">
      <!-- 20 -->
      <g transform="translate(52.730000000000004 46.51124999999996)scale(0.12 -0.12)">
       <use xlink:href="#BitstreamVeraSans-Roman-32"/>
       <use x="63.623046875" xlink:href="#BitstreamVeraSans-Roman-30"/>
      </g>
     </g>
    </g>
    <g id="text_16">
     <!-- y -->
     <defs>
      <path d="M 32.171875 -5.078125 
Q 28.375 -14.84375 24.75 -17.8125 
Q 21.140625 -20.796875 15.09375 -20.796875 
L 7.90625 -20.796875 
L 7.90625 -13.28125 
L 13.1875 -13.28125 
Q 16.890625 -13.28125 18.9375 -11.515625 
Q 21 -9.765625 23.484375 -3.21875 
L 25.09375 0.875 
L 2.984375 54.6875 
L 12.5 54.6875 
L 29.59375 11.921875 
L 46.6875 54.6875 
L 56.203125 54.6875 
z
" id="BitstreamVeraSans-Roman-79"/>
     </defs>
     <g transform="translate(45.234375 219.55125)rotate(-90.0)scale(0.12 -0.12)">
      <use xlink:href="#BitstreamVeraSans-Roman-79"/>
     </g>
    </g>
   </g>
  </g>
  <g id="axes_2">
   <g id="patch_7">
    <path clip-path="url(#p798c9a84d1)" d="M 451.44 388.8 
L 451.44 339.428571 
L 451.44 92.571429 
L 451.44 43.2 
L 468.72 43.2 
L 468.72 92.571429 
L 468.72 339.428571 
L 468.72 388.8 
z
" style="fill:#ffffff;stroke:#ffffff;stroke-linejoin:miter;stroke-width:0.01;"/>
   </g>
   <g id="QuadMesh_1">
    <path clip-path="url(#p798c9a84d1)" d="M 451.44 388.8 
L 468.72 388.8 
L 468.72 339.428571 
L 451.44 339.428571 
L 451.44 388.8 
" style="fill:#506bda;"/>
    <path clip-path="url(#p798c9a84d1)" d="M 451.44 339.428571 
L 468.72 339.428571 
L 468.72 290.057143 
L 451.44 290.057143 
L 451.44 339.428571 
" style="fill:#80a3fa;"/>
    <path clip-path="url(#p798c9a84d1)" d="M 451.44 290.057143 
L 468.72 290.057143 
L 468.72 240.685714 
L 451.44 240.685714 
L 451.44 290.057143 
" style="fill:#b2ccfb;"/>
    <path clip-path="url(#p798c9a84d1)" d="M 451.44 240.685714 
L 468.72 240.685714 
L 468.72 191.314286 
L 451.44 191.314286 
L 451.44 240.685714 
" style="fill:#dddcdc;"/>
    <path clip-path="url(#p798c9a84d1)" d="M 451.44 191.314286 
L 468.72 191.314286 
L 468.72 141.942857 
L 451.44 141.942857 
L 451.44 191.314286 
" style="fill:#f6bfa6;"/>
    <path clip-path="url(#p798c9a84d1)" d="M 451.44 141.942857 
L 468.72 141.942857 
L 468.72 92.571429 
L 451.44 92.571429 
L 451.44 141.942857 
" style="fill:#f08a6c;"/>
    <path clip-path="url(#p798c9a84d1)" d="M 451.44 92.571429 
L 468.72 92.571429 
L 468.72 43.2 
L 451.44 43.2 
L 451.44 92.571429 
" style="fill:#cd423b;"/>
   </g>
   <g id="patch_8">
    <path d="M 451.44 388.8 
L 451.44 339.428571 
L 451.44 92.571429 
L 451.44 43.2 
L 468.72 43.2 
L 468.72 92.571429 
L 468.72 339.428571 
L 468.72 388.8 
L 451.44 388.8 
z
" style="fill:none;stroke:#000000;stroke-linejoin:miter;"/>
   </g>
   <g id="matplotlib.axis_3"/>
   <g id="matplotlib.axis_4">
    <g id="ytick_6">
     <g id="line2d_29">
      <g>
       <use style="stroke:#000000;stroke-width:0.5;" x="468.71999999999997" xlink:href="#m7be132b079" y="388.8"/>
      </g>
     </g>
     <g id="text_17">
      <!-- −1.2 -->
      <defs>
       <path d="M 10.6875 12.40625 
L 21 12.40625 
L 21 0 
L 10.6875 0 
z
" id="BitstreamVeraSans-Roman-2e"/>
      </defs>
      <g transform="translate(472.71999999999997 392.11125000000004)scale(0.12 -0.12)">
       <use xlink:href="#BitstreamVeraSans-Roman-2212"/>
       <use x="83.7890625" xlink:href="#BitstreamVeraSans-Roman-31"/>
       <use x="147.412109375" xlink:href="#BitstreamVeraSans-Roman-2e"/>
       <use x="179.19921875" xlink:href="#BitstreamVeraSans-Roman-32"/>
      </g>
     </g>
    </g>
    <g id="ytick_7">
     <g id="line2d_30">
      <g>
       <use style="stroke:#000000;stroke-width:0.5;" x="468.71999999999997" xlink:href="#m7be132b079" y="339.42857142857144"/>
      </g>
     </g>
     <g id="text_18">
      <!-- −0.8 -->
      <defs>
       <path d="M 31.78125 34.625 
Q 24.75 34.625 20.71875 30.859375 
Q 16.703125 27.09375 16.703125 20.515625 
Q 16.703125 13.921875 20.71875 10.15625 
Q 24.75 6.390625 31.78125 6.390625 
Q 38.8125 6.390625 42.859375 10.171875 
Q 46.921875 13.96875 46.921875 20.515625 
Q 46.921875 27.09375 42.890625 30.859375 
Q 38.875 34.625 31.78125 34.625 
M 21.921875 38.8125 
Q 15.578125 40.375 12.03125 44.71875 
Q 8.5 49.078125 8.5 55.328125 
Q 8.5 64.0625 14.71875 69.140625 
Q 20.953125 74.21875 31.78125 74.21875 
Q 42.671875 74.21875 48.875 69.140625 
Q 55.078125 64.0625 55.078125 55.328125 
Q 55.078125 49.078125 51.53125 44.71875 
Q 48 40.375 41.703125 38.8125 
Q 48.828125 37.15625 52.796875 32.3125 
Q 56.78125 27.484375 56.78125 20.515625 
Q 56.78125 9.90625 50.3125 4.234375 
Q 43.84375 -1.421875 31.78125 -1.421875 
Q 19.734375 -1.421875 13.25 4.234375 
Q 6.78125 9.90625 6.78125 20.515625 
Q 6.78125 27.484375 10.78125 32.3125 
Q 14.796875 37.15625 21.921875 38.8125 
M 18.3125 54.390625 
Q 18.3125 48.734375 21.84375 45.5625 
Q 25.390625 42.390625 31.78125 42.390625 
Q 38.140625 42.390625 41.71875 45.5625 
Q 45.3125 48.734375 45.3125 54.390625 
Q 45.3125 60.0625 41.71875 63.234375 
Q 38.140625 66.40625 31.78125 66.40625 
Q 25.390625 66.40625 21.84375 63.234375 
Q 18.3125 60.0625 18.3125 54.390625 
" id="BitstreamVeraSans-Roman-38"/>
      </defs>
      <g transform="translate(472.71999999999997 342.7398214285714)scale(0.12 -0.12)">
       <use xlink:href="#BitstreamVeraSans-Roman-2212"/>
       <use x="83.7890625" xlink:href="#BitstreamVeraSans-Roman-30"/>
       <use x="147.412109375" xlink:href="#BitstreamVeraSans-Roman-2e"/>
       <use x="179.19921875" xlink:href="#BitstreamVeraSans-Roman-38"/>
      </g>
     </g>
    </g>
    <g id="ytick_8">
     <g id="line2d_31">
      <g>
       <use style="stroke:#000000;stroke-width:0.5;" x="468.71999999999997" xlink:href="#m7be132b079" y="290.0571428571429"/>
      </g>
     </g>
     <g id="text_19">
      <!-- −0.4 -->
      <g transform="translate(472.71999999999997 293.3683928571429)scale(0.12 -0.12)">
       <use xlink:href="#BitstreamVeraSans-Roman-2212"/>
       <use x="83.7890625" xlink:href="#BitstreamVeraSans-Roman-30"/>
       <use x="147.412109375" xlink:href="#BitstreamVeraSans-Roman-2e"/>
       <use x="179.19921875" xlink:href="#BitstreamVeraSans-Roman-34"/>
      </g>
     </g>
    </g>
    <g id="ytick_9">
     <g id="line2d_32">
      <g>
       <use style="stroke:#000000;stroke-width:0.5;" x="468.71999999999997" xlink:href="#m7be132b079" y="240.68571428571428"/>
      </g>
     </g>
     <g id="text_20">
      <!-- 0.0 -->
      <g transform="translate(472.71999999999997 243.99696428571428)scale(0.12 -0.12)">
       <use xlink:href="#BitstreamVeraSans-Roman-30"/>
       <use x="63.623046875" xlink:href="#BitstreamVeraSans-Roman-2e"/>
       <use x="95.41015625" xlink:href="#BitstreamVeraSans-Roman-30"/>
      </g>
     </g>
    </g>
    <g id="ytick_10">
     <g id="line2d_33">
      <g>
       <use style="stroke:#000000;stroke-width:0.5;" x="468.71999999999997" xlink:href="#m7be132b079" y="191.31428571428572"/>
      </g>
     </g>
     <g id="text_21">
      <!-- 0.4 -->
      <g transform="translate(472.71999999999997 194.62553571428572)scale(0.12 -0.12)">
       <use xlink:href="#BitstreamVeraSans-Roman-30"/>
       <use x="63.623046875" xlink:href="#BitstreamVeraSans-Roman-2e"/>
       <use x="95.41015625" xlink:href="#BitstreamVeraSans-Roman-34"/>
      </g>
     </g>
    </g>
    <g id="ytick_11">
     <g id="line2d_34">
      <g>
       <use style="stroke:#000000;stroke-width:0.5;" x="468.71999999999997" xlink:href="#m7be132b079" y="141.94285714285718"/>
      </g>
     </g>
     <g id="text_22">
      <!-- 0.8 -->
      <g transform="translate(472.71999999999997 145.25410714285715)scale(0.12 -0.12)">
       <use xlink:href="#BitstreamVeraSans-Roman-30"/>
       <use x="63.623046875" xlink:href="#BitstreamVeraSans-Roman-2e"/>
       <use x="95.41015625" xlink:href="#BitstreamVeraSans-Roman-38"/>
      </g>
     </g>
    </g>
    <g id="ytick_12">
     <g id="line2d_35">
      <g>
       <use style="stroke:#000000;stroke-width:0.5;" x="468.71999999999997" xlink:href="#m7be132b079" y="92.57142857142856"/>
      </g>
     </g>
     <g id="text_23">
      <!-- 1.2 -->
      <g transform="translate(472.71999999999997 95.88267857142853)scale(0.12 -0.12)">
       <use xlink:href="#BitstreamVeraSans-Roman-31"/>
       <use x="63.623046875" xlink:href="#BitstreamVeraSans-Roman-2e"/>
       <use x="95.41015625" xlink:href="#BitstreamVeraSans-Roman-32"/>
      </g>
     </g>
    </g>
    <g id="ytick_13">
     <g id="line2d_36">
      <g>
       <use style="stroke:#000000;stroke-width:0.5;" x="468.71999999999997" xlink:href="#m7be132b079" y="43.19999999999999"/>
      </g>
     </g>
     <g id="text_24">
      <!-- 1.6 -->
      <defs>
       <path d="M 33.015625 40.375 
Q 26.375 40.375 22.484375 35.828125 
Q 18.609375 31.296875 18.609375 23.390625 
Q 18.609375 15.53125 22.484375 10.953125 
Q 26.375 6.390625 33.015625 6.390625 
Q 39.65625 6.390625 43.53125 10.953125 
Q 47.40625 15.53125 47.40625 23.390625 
Q 47.40625 31.296875 43.53125 35.828125 
Q 39.65625 40.375 33.015625 40.375 
M 52.59375 71.296875 
L 52.59375 62.3125 
Q 48.875 64.0625 45.09375 64.984375 
Q 41.3125 65.921875 37.59375 65.921875 
Q 27.828125 65.921875 22.671875 59.328125 
Q 17.53125 52.734375 16.796875 39.40625 
Q 19.671875 43.65625 24.015625 45.921875 
Q 28.375 48.1875 33.59375 48.1875 
Q 44.578125 48.1875 50.953125 41.515625 
Q 57.328125 34.859375 57.328125 23.390625 
Q 57.328125 12.15625 50.6875 5.359375 
Q 44.046875 -1.421875 33.015625 -1.421875 
Q 20.359375 -1.421875 13.671875 8.265625 
Q 6.984375 17.96875 6.984375 36.375 
Q 6.984375 53.65625 15.1875 63.9375 
Q 23.390625 74.21875 37.203125 74.21875 
Q 40.921875 74.21875 44.703125 73.484375 
Q 48.484375 72.75 52.59375 71.296875 
" id="BitstreamVeraSans-Roman-36"/>
      </defs>
      <g transform="translate(472.71999999999997 46.51124999999996)scale(0.12 -0.12)">
       <use xlink:href="#BitstreamVeraSans-Roman-31"/>
       <use x="63.623046875" xlink:href="#BitstreamVeraSans-Roman-2e"/>
       <use x="95.41015625" xlink:href="#BitstreamVeraSans-Roman-36"/>
      </g>
     </g>
    </g>
   </g>
  </g>
 </g>
 <defs>
  <clipPath id="p798c9a84d1">
   <rect height="345.6" width="17.28000000000003" x="451.43999999999994" y="43.19999999999999"/>
  </clipPath>
  <clipPath id="p72a2afd516">
   <rect height="345.6" width="357.12" x="72.0" y="43.19999999999999"/>
  </clipPath>
 </defs>
</svg>
