<?xml version="1.0" encoding="utf-8" standalone="no"?>
<!DOCTYPE svg PUBLIC "-//W3C//DTD SVG 1.1//EN"
  "http://www.w3.org/Graphics/SVG/1.1/DTD/svg11.dtd">
<!-- Created with matplotlib (http://matplotlib.org/) -->
<svg height="432pt" version="1.1" viewBox="0 0 576 432" width="576pt" xmlns="http://www.w3.org/2000/svg" xmlns:xlink="http://www.w3.org/1999/xlink">
 <defs>
  <style type="text/css">
*{stroke-linecap:butt;stroke-linejoin:round;stroke-miterlimit:100000;}
  </style>
 </defs>
 <g id="figure_1">
  <g id="patch_1">
   <path d="M 0 432 
L 576 432 
L 576 0 
L 0 0 
z
" style="fill:#ffffff;"/>
  </g>
  <g id="axes_1">
   <g id="patch_2">
    <path d="M 72 388.8 
L 429.12 388.8 
L 429.12 43.2 
L 72 43.2 
z
" style="fill:#ffffff;"/>
   </g>
   <g id="PathCollection_1">
    <path clip-path="url(#p9200543f9f)" d="M 72 385.344 
L 72 381.888 
L 72 378.432 
L 72 374.976 
L 72 371.52 
L 72 368.064 
L 72 364.608 
L 72 361.152 
L 72 357.696 
L 72 354.24 
L 72 350.784 
L 72 347.328 
L 72 343.872 
L 72 340.416 
L 72 336.96 
L 72 333.504 
L 72 330.048 
L 72 326.592 
L 72 323.136 
L 72 319.68 
L 72 316.224 
L 72 312.768 
L 72 309.312 
L 72 305.856 
L 72 302.4 
L 72 298.944 
L 72 295.488 
L 72 292.032 
L 72 288.576 
L 72 285.12 
L 72 281.664 
L 72 278.208 
L 72 274.752 
L 72 271.296 
L 72 267.84 
L 72 264.384 
L 72 260.928 
L 72 257.472 
L 72 254.016 
L 72 250.56 
L 72 247.104 
L 72 243.648 
L 72 240.192 
L 72 236.736 
L 72 233.28 
L 72 229.824 
L 72 226.368 
L 72 222.912 
L 72 219.456 
L 72 216 
L 72 212.544 
L 72 209.088 
L 72 205.632 
L 72 202.176 
L 72 198.72 
L 72 195.264 
L 72 191.808 
L 72 188.352 
L 72 184.896 
L 72 181.44 
L 72 177.984 
L 72 174.528 
L 72 171.072 
L 72 167.616 
L 72 164.16 
L 72 160.704 
L 72 157.248 
L 72 156.12626 
L 74.28713 157.248 
L 75.5712 157.873673 
L 79.1424 159.62362 
L 81.320662 160.704 
L 82.7136 161.391848 
L 86.2848 163.165241 
L 88.264252 164.16 
L 89.856 164.958 
L 93.4272 166.757423 
L 95.10966 167.616 
L 96.9984 168.579525 
L 100.5696 170.408572 
L 101.84664 171.072 
L 104.1408 172.26585 
L 107.712 174.128461 
L 108.464956 174.528 
L 111.2832 176.028746 
L 114.8544 177.929254 
L 114.95502 177.984 
L 118.4256 179.8824 
L 121.274747 181.44 
L 121.9968 181.841413 
L 125.568 183.844824 
L 127.428432 184.896 
L 129.1392 185.880526 
L 132.7104 187.938533 
L 133.413555 188.352 
L 136.2816 190.071854 
L 139.184176 191.808 
L 139.8528 192.220479 
L 143.424 194.450298 
L 144.711896 195.264 
L 146.9952 196.752738 
L 150.013562 198.72 
L 150.5664 199.095727 
L 154.1376 201.562338 
L 155.009329 202.176 
L 157.7088 204.156342 
L 159.698787 205.632 
L 161.28 206.864476 
L 164.089119 209.088 
L 164.8512 209.726776 
L 168.135105 212.544 
L 168.4224 212.806468 
L 171.799163 216 
L 171.9936 216.196637 
L 175.061477 219.456 
L 175.5648 220.02922 
L 177.931738 222.912 
L 179.136 224.485601 
L 180.455752 226.368 
L 182.7072 229.812482 
L 182.713943 229.824 
L 184.47431 233.28 
L 186.091602 236.736 
L 186.2784 237.204999 
L 187.300238 240.192 
L 188.315992 243.648 
L 189.163508 247.104 
L 189.841341 250.56 
L 189.8496 250.616681 
L 190.258311 254.016 
L 190.549069 257.472 
L 190.724176 260.928 
L 190.793599 264.384 
L 190.768023 267.84 
L 190.658127 271.296 
L 190.474103 274.752 
L 190.225416 278.208 
L 189.920377 281.664 
L 189.8496 282.354462 
L 189.510714 285.12 
L 189.040598 288.576 
L 188.531662 292.032 
L 187.99072 295.488 
L 187.422865 298.944 
L 186.832483 302.4 
L 186.2784 305.540795 
L 186.214329 305.856 
L 185.496147 309.312 
L 184.767878 312.768 
L 184.031395 316.224 
L 183.287755 319.68 
L 182.7072 322.359015 
L 182.518237 323.136 
L 181.678525 326.592 
L 180.838693 330.048 
L 179.998702 333.504 
L 179.158192 336.96 
L 179.136 337.05216 
L 178.245047 340.416 
L 177.333536 343.872 
L 176.424801 347.328 
L 175.5648 350.608823 
L 175.514997 350.784 
L 174.54811 354.24 
L 173.585506 357.696 
L 172.626471 361.152 
L 171.9936 363.453305 
L 171.65324 364.608 
L 170.649053 368.064 
L 169.648769 371.52 
L 168.652019 374.976 
L 168.4224 375.785885 
L 167.625598 378.432 
L 166.592984 381.888 
L 165.563691 385.344 
L 164.8512 387.75712 
L 164.526678 388.8 
L 161.28 388.8 
L 157.7088 388.8 
L 154.1376 388.8 
L 150.5664 388.8 
L 146.9952 388.8 
L 143.424 388.8 
L 139.8528 388.8 
L 136.2816 388.8 
L 132.7104 388.8 
L 129.1392 388.8 
L 125.568 388.8 
L 121.9968 388.8 
L 118.4256 388.8 
L 114.8544 388.8 
L 111.2832 388.8 
L 107.712 388.8 
L 104.1408 388.8 
L 100.5696 388.8 
L 96.9984 388.8 
L 93.4272 388.8 
L 89.856 388.8 
L 86.2848 388.8 
L 82.7136 388.8 
L 79.1424 388.8 
L 75.5712 388.8 
L 72 388.8 
z
" style="fill:#4c66d6;"/>
   </g>
   <g id="PathCollection_2">
    <path clip-path="url(#p9200543f9f)" d="M 74.28713 157.248 
L 72 156.12626 
L 72 153.792 
L 72 150.336 
L 72 146.88 
L 72 143.424 
L 72 139.968 
L 72 136.512 
L 72 133.056 
L 72 129.6 
L 72 126.144 
L 72 122.688 
L 72 119.232 
L 72 115.776 
L 72 112.32 
L 72 108.864 
L 72 105.408 
L 72 101.952 
L 72 98.496 
L 72 95.04 
L 72 91.584 
L 72 88.128 
L 72 84.672 
L 72 81.216 
L 72 77.76 
L 72 74.304 
L 72 70.848 
L 72 67.392 
L 72 63.936 
L 72 60.48 
L 72 57.024 
L 72 53.568 
L 72 50.112 
L 72 46.656 
L 72 43.2 
L 75.5712 43.2 
L 79.1424 43.2 
L 82.7136 43.2 
L 86.2848 43.2 
L 89.856 43.2 
L 93.4272 43.2 
L 96.9984 43.2 
L 100.5696 43.2 
L 104.1408 43.2 
L 107.712 43.2 
L 111.2832 43.2 
L 114.8544 43.2 
L 118.4256 43.2 
L 121.9968 43.2 
L 125.568 43.2 
L 129.1392 43.2 
L 132.7104 43.2 
L 136.2816 43.2 
L 139.8528 43.2 
L 143.424 43.2 
L 146.9952 43.2 
L 150.5664 43.2 
L 154.1376 43.2 
L 157.7088 43.2 
L 161.28 43.2 
L 164.8512 43.2 
L 168.4224 43.2 
L 169.913868 43.2 
L 170.214998 46.656 
L 170.524445 50.112 
L 170.842823 53.568 
L 171.170381 57.024 
L 171.507824 60.48 
L 171.855521 63.936 
L 171.9936 65.27909 
L 172.170058 67.392 
L 172.46704 70.848 
L 172.774821 74.304 
L 173.094133 77.76 
L 173.42578 81.216 
L 173.770742 84.672 
L 174.130009 88.128 
L 174.504667 91.584 
L 174.895997 95.04 
L 175.305325 98.496 
L 175.5648 100.598244 
L 175.700361 101.952 
L 176.061125 105.408 
L 176.441926 108.864 
L 176.844529 112.32 
L 177.27121 115.776 
L 177.724513 119.232 
L 178.207265 122.688 
L 178.722655 126.144 
L 179.136 128.742442 
L 179.24634 129.6 
L 179.719296 133.056 
L 180.230435 136.512 
L 180.784464 139.968 
L 181.386922 143.424 
L 182.044323 146.88 
L 182.7072 150.06678 
L 182.75229 150.336 
L 183.380137 153.792 
L 184.075233 157.248 
L 184.847798 160.704 
L 185.709788 164.16 
L 186.2784 166.211509 
L 186.590644 167.616 
L 187.447332 171.072 
L 188.418455 174.528 
L 189.523796 177.984 
L 189.8496 178.892523 
L 190.580796 181.44 
L 191.71434 184.896 
L 193.023965 188.352 
L 193.4208 189.279576 
L 194.286576 191.808 
L 195.650908 195.264 
L 196.992 198.194535 
L 197.184784 198.72 
L 198.606411 202.176 
L 200.267057 205.632 
L 200.5632 206.19368 
L 201.80402 209.088 
L 203.496994 212.544 
L 204.1344 213.747849 
L 205.117688 216 
L 206.765433 219.456 
L 207.7056 221.324404 
L 208.37522 222.912 
L 209.860872 226.368 
L 211.2768 229.535711 
L 211.386495 229.824 
L 212.597701 233.28 
L 213.786958 236.736 
L 214.848 240.001033 
L 214.901194 240.192 
L 215.720307 243.648 
L 216.454297 247.104 
L 217.094711 250.56 
L 217.640626 254.016 
L 218.096944 257.472 
L 218.4192 260.45171 
L 218.463484 260.928 
L 218.718543 264.384 
L 218.924966 267.84 
L 219.090776 271.296 
L 219.223509 274.752 
L 219.329883 278.208 
L 219.415687 281.664 
L 219.485931 285.12 
L 219.544748 288.576 
L 219.595562 292.032 
L 219.641251 295.488 
L 219.684005 298.944 
L 219.725673 302.4 
L 219.767705 305.856 
L 219.811136 309.312 
L 219.856918 312.768 
L 219.905629 316.224 
L 219.957756 319.68 
L 220.013646 323.136 
L 220.073496 326.592 
L 220.137503 330.048 
L 220.20572 333.504 
L 220.278157 336.96 
L 220.354812 340.416 
L 220.435644 343.872 
L 220.520627 347.328 
L 220.60968 350.784 
L 220.702688 354.24 
L 220.799581 357.696 
L 220.900299 361.152 
L 221.004726 364.608 
L 221.112774 368.064 
L 221.224394 371.52 
L 221.339491 374.976 
L 221.457957 378.432 
L 221.579771 381.888 
L 221.704821 385.344 
L 221.833126 388.8 
L 218.4192 388.8 
L 214.848 388.8 
L 211.2768 388.8 
L 207.7056 388.8 
L 204.1344 388.8 
L 200.5632 388.8 
L 196.992 388.8 
L 193.4208 388.8 
L 189.8496 388.8 
L 186.2784 388.8 
L 182.7072 388.8 
L 179.136 388.8 
L 175.5648 388.8 
L 171.9936 388.8 
L 168.4224 388.8 
L 164.8512 388.8 
L 164.526678 388.8 
L 164.8512 387.75712 
L 165.563691 385.344 
L 166.592984 381.888 
L 167.625598 378.432 
L 168.4224 375.785885 
L 168.652019 374.976 
L 169.648769 371.52 
L 170.649053 368.064 
L 171.65324 364.608 
L 171.9936 363.453305 
L 172.626471 361.152 
L 173.585506 357.696 
L 174.54811 354.24 
L 175.514997 350.784 
L 175.5648 350.608823 
L 176.424801 347.328 
L 177.333536 343.872 
L 178.245047 340.416 
L 179.136 337.05216 
L 179.158192 336.96 
L 179.998702 333.504 
L 180.838693 330.048 
L 181.678525 326.592 
L 182.518237 323.136 
L 182.7072 322.359015 
L 183.287755 319.68 
L 184.031395 316.224 
L 184.767878 312.768 
L 185.496147 309.312 
L 186.214329 305.856 
L 186.2784 305.540795 
L 186.832483 302.4 
L 187.422865 298.944 
L 187.99072 295.488 
L 188.531662 292.032 
L 189.040598 288.576 
L 189.510714 285.12 
L 189.8496 282.354462 
L 189.920377 281.664 
L 190.225416 278.208 
L 190.474103 274.752 
L 190.658127 271.296 
L 190.768023 267.84 
L 190.793599 264.384 
L 190.724176 260.928 
L 190.549069 257.472 
L 190.258311 254.016 
L 189.8496 250.616681 
L 189.841341 250.56 
L 189.163508 247.104 
L 188.315992 243.648 
L 187.300238 240.192 
L 186.2784 237.204999 
L 186.091602 236.736 
L 184.47431 233.28 
L 182.713943 229.824 
L 182.7072 229.812482 
L 180.455752 226.368 
L 179.136 224.485601 
L 177.931738 222.912 
L 175.5648 220.02922 
L 175.061477 219.456 
L 171.9936 216.196637 
L 171.799163 216 
L 168.4224 212.806468 
L 168.135105 212.544 
L 164.8512 209.726776 
L 164.089119 209.088 
L 161.28 206.864476 
L 159.698787 205.632 
L 157.7088 204.156342 
L 155.009329 202.176 
L 154.1376 201.562338 
L 150.5664 199.095727 
L 150.013562 198.72 
L 146.9952 196.752738 
L 144.711896 195.264 
L 143.424 194.450298 
L 139.8528 192.220479 
L 139.184176 191.808 
L 136.2816 190.071854 
L 133.413555 188.352 
L 132.7104 187.938533 
L 129.1392 185.880526 
L 127.428432 184.896 
L 125.568 183.844824 
L 121.9968 181.841413 
L 121.274747 181.44 
L 118.4256 179.8824 
L 114.95502 177.984 
L 114.8544 177.929254 
L 111.2832 176.028746 
L 108.464956 174.528 
L 107.712 174.128461 
L 104.1408 172.26585 
L 101.84664 171.072 
L 100.5696 170.408572 
L 96.9984 168.579525 
L 95.10966 167.616 
L 93.4272 166.757423 
L 89.856 164.958 
L 88.264252 164.16 
L 86.2848 163.165241 
L 82.7136 161.391848 
L 81.320662 160.704 
L 79.1424 159.62362 
L 75.5712 157.873673 
z
" style="fill:#779af7;"/>
   </g>
   <g id="PathCollection_3">
    <path clip-path="url(#p9200543f9f)" d="M 171.855521 63.936 
L 171.507824 60.48 
L 171.170381 57.024 
L 170.842823 53.568 
L 170.524445 50.112 
L 170.214998 46.656 
L 169.913868 43.2 
L 171.9936 43.2 
L 175.5648 43.2 
L 179.136 43.2 
L 182.7072 43.2 
L 186.2784 43.2 
L 189.825918 43.2 
L 189.8496 43.474303 
L 190.085004 46.656 
L 190.342664 50.112 
L 190.602751 53.568 
L 190.865709 57.024 
L 191.131886 60.48 
L 191.401675 63.936 
L 191.675486 67.392 
L 191.953763 70.848 
L 192.236923 74.304 
L 192.52542 77.76 
L 192.819759 81.216 
L 193.120462 84.672 
L 193.4208 88.047636 
L 193.426915 88.128 
L 193.691293 91.584 
L 193.959616 95.04 
L 194.232553 98.496 
L 194.510753 101.952 
L 194.794981 105.408 
L 195.086031 108.864 
L 195.384799 112.32 
L 195.692278 115.776 
L 196.009573 119.232 
L 196.337948 122.688 
L 196.678829 126.144 
L 196.992 129.197798 
L 197.027077 129.6 
L 197.336308 133.056 
L 197.65686 136.512 
L 197.990663 139.968 
L 198.33997 143.424 
L 198.707371 146.88 
L 199.09595 150.336 
L 199.509338 153.792 
L 199.951892 157.248 
L 200.42877 160.704 
L 200.5632 161.611007 
L 200.8833 164.16 
L 201.349428 167.616 
L 201.855002 171.072 
L 202.408193 174.528 
L 203.019136 177.984 
L 203.70033 181.44 
L 204.1344 183.409498 
L 204.41511 184.896 
L 205.13704 188.352 
L 205.946034 191.808 
L 206.863167 195.264 
L 207.7056 198.043401 
L 207.884728 198.72 
L 208.901323 202.176 
L 210.047651 205.632 
L 211.2768 208.879345 
L 211.347401 209.088 
L 212.616733 212.544 
L 214.022158 216 
L 214.848 217.860168 
L 215.491914 219.456 
L 216.947677 222.912 
L 218.4192 226.183585 
L 218.496799 226.368 
L 219.910244 229.824 
L 221.339925 233.28 
L 221.9904 234.913881 
L 222.678133 236.736 
L 223.887137 240.192 
L 225.02898 243.648 
L 225.5616 245.442491 
L 226.037804 247.104 
L 226.902014 250.56 
L 227.670301 254.016 
L 228.345135 257.472 
L 228.931339 260.928 
L 229.1328 262.336315 
L 229.420121 264.384 
L 229.829862 267.84 
L 230.180024 271.296 
L 230.478982 274.752 
L 230.73443 278.208 
L 230.953319 281.664 
L 231.141799 285.12 
L 231.305192 288.576 
L 231.448132 292.032 
L 231.574556 295.488 
L 231.687779 298.944 
L 231.790636 302.4 
L 231.885442 305.856 
L 231.974202 309.312 
L 232.058541 312.768 
L 232.139803 316.224 
L 232.219106 319.68 
L 232.297408 323.136 
L 232.37543 326.592 
L 232.45382 330.048 
L 232.533095 333.504 
L 232.613678 336.96 
L 232.69587 340.416 
L 232.704 340.749753 
L 232.779529 343.872 
L 232.865055 347.328 
L 232.952622 350.784 
L 233.042371 354.24 
L 233.134344 357.696 
L 233.228615 361.152 
L 233.325237 364.608 
L 233.424205 368.064 
L 233.525541 371.52 
L 233.629248 374.976 
L 233.735331 378.432 
L 233.843773 381.888 
L 233.954574 385.344 
L 234.067725 388.8 
L 232.704 388.8 
L 229.1328 388.8 
L 225.5616 388.8 
L 221.9904 388.8 
L 221.833126 388.8 
L 221.704821 385.344 
L 221.579771 381.888 
L 221.457957 378.432 
L 221.339491 374.976 
L 221.224394 371.52 
L 221.112774 368.064 
L 221.004726 364.608 
L 220.900299 361.152 
L 220.799581 357.696 
L 220.702688 354.24 
L 220.60968 350.784 
L 220.520627 347.328 
L 220.435644 343.872 
L 220.354812 340.416 
L 220.278157 336.96 
L 220.20572 333.504 
L 220.137503 330.048 
L 220.073496 326.592 
L 220.013646 323.136 
L 219.957756 319.68 
L 219.905629 316.224 
L 219.856918 312.768 
L 219.811136 309.312 
L 219.767705 305.856 
L 219.725673 302.4 
L 219.684005 298.944 
L 219.641251 295.488 
L 219.595562 292.032 
L 219.544748 288.576 
L 219.485931 285.12 
L 219.415687 281.664 
L 219.329883 278.208 
L 219.223509 274.752 
L 219.090776 271.296 
L 218.924966 267.84 
L 218.718543 264.384 
L 218.463484 260.928 
L 218.4192 260.45171 
L 218.096944 257.472 
L 217.640626 254.016 
L 217.094711 250.56 
L 216.454297 247.104 
L 215.720307 243.648 
L 214.901194 240.192 
L 214.848 240.001033 
L 213.786958 236.736 
L 212.597701 233.28 
L 211.386495 229.824 
L 211.2768 229.535711 
L 209.860872 226.368 
L 208.37522 222.912 
L 207.7056 221.324404 
L 206.765433 219.456 
L 205.117688 216 
L 204.1344 213.747849 
L 203.496994 212.544 
L 201.80402 209.088 
L 200.5632 206.19368 
L 200.267057 205.632 
L 198.606411 202.176 
L 197.184784 198.72 
L 196.992 198.194535 
L 195.650908 195.264 
L 194.286576 191.808 
L 193.4208 189.279576 
L 193.023965 188.352 
L 191.71434 184.896 
L 190.580796 181.44 
L 189.8496 178.892523 
L 189.523796 177.984 
L 188.418455 174.528 
L 187.447332 171.072 
L 186.590644 167.616 
L 186.2784 166.211509 
L 185.709788 164.16 
L 184.847798 160.704 
L 184.075233 157.248 
L 183.380137 153.792 
L 182.75229 150.336 
L 182.7072 150.06678 
L 182.044323 146.88 
L 181.386922 143.424 
L 180.784464 139.968 
L 180.230435 136.512 
L 179.719296 133.056 
L 179.24634 129.6 
L 179.136 128.742442 
L 178.722655 126.144 
L 178.207265 122.688 
L 177.724513 119.232 
L 177.27121 115.776 
L 176.844529 112.32 
L 176.441926 108.864 
L 176.061125 105.408 
L 175.700361 101.952 
L 175.5648 100.598244 
L 175.305325 98.496 
L 174.895997 95.04 
L 174.504667 91.584 
L 174.130009 88.128 
L 173.770742 84.672 
L 173.42578 81.216 
L 173.094133 77.76 
L 172.774821 74.304 
L 172.46704 70.848 
L 172.170058 67.392 
L 171.9936 65.27909 
z
" style="fill:#a3c2fe;"/>
   </g>
   <g id="PathCollection_4">
    <path clip-path="url(#p9200543f9f)" d="M 189.825918 43.2 
L 189.8496 43.2 
L 193.4208 43.2 
L 196.992 43.2 
L 199.852491 43.2 
L 200.100738 46.656 
L 200.348616 50.112 
L 200.5632 53.102446 
L 200.598849 53.568 
L 200.862982 57.024 
L 201.124224 60.48 
L 201.382843 63.936 
L 201.639137 67.392 
L 201.893406 70.848 
L 202.145931 74.304 
L 202.397077 77.76 
L 202.647183 81.216 
L 202.896569 84.672 
L 203.145667 88.128 
L 203.394835 91.584 
L 203.644521 95.04 
L 203.895194 98.496 
L 204.1344 101.773628 
L 204.148115 101.952 
L 204.415342 105.408 
L 204.681388 108.864 
L 204.946787 112.32 
L 205.212038 115.776 
L 205.47778 119.232 
L 205.744661 122.688 
L 206.013457 126.144 
L 206.284985 129.6 
L 206.560192 133.056 
L 206.840185 136.512 
L 207.126201 139.968 
L 207.419641 143.424 
L 207.7056 146.688886 
L 207.722981 146.88 
L 208.048247 150.336 
L 208.381353 153.792 
L 208.724384 157.248 
L 209.079702 160.704 
L 209.45014 164.16 
L 209.839066 167.616 
L 210.250544 171.072 
L 210.689482 174.528 
L 211.16195 177.984 
L 211.2768 178.748869 
L 211.688958 181.44 
L 212.257676 184.896 
L 212.869745 188.352 
L 213.533952 191.808 
L 214.261434 195.264 
L 214.848 197.766306 
L 215.076543 198.72 
L 215.991932 202.176 
L 216.978784 205.632 
L 218.052183 209.088 
L 218.4192 210.146641 
L 219.261278 212.544 
L 220.547546 216 
L 221.905485 219.456 
L 221.9904 219.657284 
L 223.384368 222.912 
L 224.874836 226.368 
L 225.5616 227.9315 
L 226.425666 229.824 
L 227.95814 233.28 
L 229.1328 236.008005 
L 229.466832 236.736 
L 230.941317 240.192 
L 232.315815 243.648 
L 232.704 244.718981 
L 233.636815 247.104 
L 234.844778 250.56 
L 235.933452 254.016 
L 236.2752 255.251264 
L 236.947144 257.472 
L 237.857649 260.928 
L 238.657601 264.384 
L 239.359311 267.84 
L 239.8464 270.594695 
L 239.983325 271.296 
L 240.55987 274.752 
L 241.061269 278.208 
L 241.497718 281.664 
L 241.878008 285.12 
L 242.209883 288.576 
L 242.500044 292.032 
L 242.754369 295.488 
L 242.977944 298.944 
L 243.175215 302.4 
L 243.350032 305.856 
L 243.4176 307.360152 
L 243.515205 309.312 
L 243.669931 312.768 
L 243.809716 316.224 
L 243.937024 319.68 
L 244.053848 323.136 
L 244.162019 326.592 
L 244.263039 330.048 
L 244.358258 333.504 
L 244.448817 336.96 
L 244.535683 340.416 
L 244.619803 343.872 
L 244.701827 347.328 
L 244.782466 350.784 
L 244.862251 354.24 
L 244.9417 357.696 
L 245.021171 361.152 
L 245.10106 364.608 
L 245.181643 368.064 
L 245.263213 371.52 
L 245.345958 374.976 
L 245.430085 378.432 
L 245.515765 381.888 
L 245.603099 385.344 
L 245.692189 388.8 
L 243.4176 388.8 
L 239.8464 388.8 
L 236.2752 388.8 
L 234.067725 388.8 
L 233.954574 385.344 
L 233.843773 381.888 
L 233.735331 378.432 
L 233.629248 374.976 
L 233.525541 371.52 
L 233.424205 368.064 
L 233.325237 364.608 
L 233.228615 361.152 
L 233.134344 357.696 
L 233.042371 354.24 
L 232.952622 350.784 
L 232.865055 347.328 
L 232.779529 343.872 
L 232.704 340.749753 
L 232.69587 340.416 
L 232.613678 336.96 
L 232.533095 333.504 
L 232.45382 330.048 
L 232.37543 326.592 
L 232.297408 323.136 
L 232.219106 319.68 
L 232.139803 316.224 
L 232.058541 312.768 
L 231.974202 309.312 
L 231.885442 305.856 
L 231.790636 302.4 
L 231.687779 298.944 
L 231.574556 295.488 
L 231.448132 292.032 
L 231.305192 288.576 
L 231.141799 285.12 
L 230.953319 281.664 
L 230.73443 278.208 
L 230.478982 274.752 
L 230.180024 271.296 
L 229.829862 267.84 
L 229.420121 264.384 
L 229.1328 262.336315 
L 228.931339 260.928 
L 228.345135 257.472 
L 227.670301 254.016 
L 226.902014 250.56 
L 226.037804 247.104 
L 225.5616 245.442491 
L 225.02898 243.648 
L 223.887137 240.192 
L 222.678133 236.736 
L 221.9904 234.913881 
L 221.339925 233.28 
L 219.910244 229.824 
L 218.496799 226.368 
L 218.4192 226.183585 
L 216.947677 222.912 
L 215.491914 219.456 
L 214.848 217.860168 
L 214.022158 216 
L 212.616733 212.544 
L 211.347401 209.088 
L 211.2768 208.879345 
L 210.047651 205.632 
L 208.901323 202.176 
L 207.884728 198.72 
L 207.7056 198.043401 
L 206.863167 195.264 
L 205.946034 191.808 
L 205.13704 188.352 
L 204.41511 184.896 
L 204.1344 183.409498 
L 203.70033 181.44 
L 203.019136 177.984 
L 202.408193 174.528 
L 201.855002 171.072 
L 201.349428 167.616 
L 200.8833 164.16 
L 200.5632 161.611007 
L 200.42877 160.704 
L 199.951892 157.248 
L 199.509338 153.792 
L 199.09595 150.336 
L 198.707371 146.88 
L 198.33997 143.424 
L 197.990663 139.968 
L 197.65686 136.512 
L 197.336308 133.056 
L 197.027077 129.6 
L 196.992 129.197798 
L 196.678829 126.144 
L 196.337948 122.688 
L 196.009573 119.232 
L 195.692278 115.776 
L 195.384799 112.32 
L 195.086031 108.864 
L 194.794981 105.408 
L 194.510753 101.952 
L 194.232553 98.496 
L 193.959616 95.04 
L 193.691293 91.584 
L 193.426915 88.128 
L 193.4208 88.047636 
L 193.120462 84.672 
L 192.819759 81.216 
L 192.52542 77.76 
L 192.236923 74.304 
L 191.953763 70.848 
L 191.675486 67.392 
L 191.401675 63.936 
L 191.131886 60.48 
L 190.865709 57.024 
L 190.602751 53.568 
L 190.342664 50.112 
L 190.085004 46.656 
L 189.8496 43.474303 
z
" style="fill:#ccd9ed;"/>
   </g>
   <g id="PathCollection_5">
    <path clip-path="url(#p9200543f9f)" d="M 200.348616 50.112 
L 200.100738 46.656 
L 199.852491 43.2 
L 200.5632 43.2 
L 204.1344 43.2 
L 207.7056 43.2 
L 211.2768 43.2 
L 212.441427 43.2 
L 212.633967 46.656 
L 212.823484 50.112 
L 213.009996 53.568 
L 213.193565 57.024 
L 213.374258 60.48 
L 213.552156 63.936 
L 213.727336 67.392 
L 213.899865 70.848 
L 214.069814 74.304 
L 214.237304 77.76 
L 214.402451 81.216 
L 214.565342 84.672 
L 214.726076 88.128 
L 214.848 90.770688 
L 214.892544 91.584 
L 215.082277 95.04 
L 215.269778 98.496 
L 215.455165 101.952 
L 215.638626 105.408 
L 215.820406 108.864 
L 216.000687 112.32 
L 216.179727 115.776 
L 216.357861 119.232 
L 216.535347 122.688 
L 216.712618 126.144 
L 216.890098 129.6 
L 217.068263 133.056 
L 217.247651 136.512 
L 217.428973 139.968 
L 217.612914 143.424 
L 217.800355 146.88 
L 217.992314 150.336 
L 218.189922 153.792 
L 218.394494 157.248 
L 218.4192 157.639039 
L 218.645254 160.704 
L 218.912647 164.16 
L 219.193917 167.616 
L 219.491631 171.072 
L 219.808767 174.528 
L 220.148648 177.984 
L 220.514994 181.44 
L 220.912003 184.896 
L 221.344232 188.352 
L 221.816728 191.808 
L 221.9904 192.927303 
L 222.403739 195.264 
L 223.082944 198.72 
L 223.822476 202.176 
L 224.624317 205.632 
L 225.48962 209.088 
L 225.5616 209.337929 
L 226.593574 212.544 
L 227.76561 216 
L 228.979105 219.456 
L 229.1328 219.853304 
L 230.450224 222.912 
L 231.939762 226.368 
L 232.704 228.106355 
L 233.552709 229.824 
L 235.243524 233.28 
L 236.2752 235.461734 
L 236.960022 236.736 
L 238.737377 240.192 
L 239.8464 242.509232 
L 240.47262 243.648 
L 242.229044 247.104 
L 243.4176 249.685031 
L 243.884483 250.56 
L 245.547077 254.016 
L 246.9888 257.377159 
L 247.036188 257.472 
L 248.569075 260.928 
L 249.925502 264.384 
L 250.56 266.213405 
L 251.218421 267.84 
L 252.449188 271.296 
L 253.538967 274.752 
L 254.1312 276.878824 
L 254.563098 278.208 
L 255.551787 281.664 
L 256.430117 285.12 
L 257.212043 288.576 
L 257.7024 291.014075 
L 257.940859 292.032 
L 258.658533 295.488 
L 259.301255 298.944 
L 259.877967 302.4 
L 260.396657 305.856 
L 260.864148 309.312 
L 261.2736 312.664564 
L 261.288272 312.768 
L 261.72879 316.224 
L 262.128856 319.68 
L 262.493105 323.136 
L 262.825566 326.592 
L 263.129803 330.048 
L 263.408953 333.504 
L 263.665768 336.96 
L 263.902742 340.416 
L 264.12202 343.872 
L 264.3256 347.328 
L 264.515188 350.784 
L 264.692279 354.24 
L 264.8448 357.414523 
L 264.860474 357.696 
L 265.041267 361.152 
L 265.212152 364.608 
L 265.374232 368.064 
L 265.52869 371.52 
L 265.67623 374.976 
L 265.817894 378.432 
L 265.954204 381.888 
L 266.085995 385.344 
L 266.213811 388.8 
L 264.8448 388.8 
L 261.2736 388.8 
L 257.7024 388.8 
L 254.1312 388.8 
L 250.56 388.8 
L 246.9888 388.8 
L 245.692189 388.8 
L 245.603099 385.344 
L 245.515765 381.888 
L 245.430085 378.432 
L 245.345958 374.976 
L 245.263213 371.52 
L 245.181643 368.064 
L 245.10106 364.608 
L 245.021171 361.152 
L 244.9417 357.696 
L 244.862251 354.24 
L 244.782466 350.784 
L 244.701827 347.328 
L 244.619803 343.872 
L 244.535683 340.416 
L 244.448817 336.96 
L 244.358258 333.504 
L 244.263039 330.048 
L 244.162019 326.592 
L 244.053848 323.136 
L 243.937024 319.68 
L 243.809716 316.224 
L 243.669931 312.768 
L 243.515205 309.312 
L 243.4176 307.360152 
L 243.350032 305.856 
L 243.175215 302.4 
L 242.977944 298.944 
L 242.754369 295.488 
L 242.500044 292.032 
L 242.209883 288.576 
L 241.878008 285.12 
L 241.497718 281.664 
L 241.061269 278.208 
L 240.55987 274.752 
L 239.983325 271.296 
L 239.8464 270.594695 
L 239.359311 267.84 
L 238.657601 264.384 
L 237.857649 260.928 
L 236.947144 257.472 
L 236.2752 255.251264 
L 235.933452 254.016 
L 234.844778 250.56 
L 233.636815 247.104 
L 232.704 244.718981 
L 232.315815 243.648 
L 230.941317 240.192 
L 229.466832 236.736 
L 229.1328 236.008005 
L 227.95814 233.28 
L 226.425666 229.824 
L 225.5616 227.9315 
L 224.874836 226.368 
L 223.384368 222.912 
L 221.9904 219.657284 
L 221.905485 219.456 
L 220.547546 216 
L 219.261278 212.544 
L 218.4192 210.146641 
L 218.052183 209.088 
L 216.978784 205.632 
L 215.991932 202.176 
L 215.076543 198.72 
L 214.848 197.766306 
L 214.261434 195.264 
L 213.533952 191.808 
L 212.869745 188.352 
L 212.257676 184.896 
L 211.688958 181.44 
L 211.2768 178.748869 
L 211.16195 177.984 
L 210.689482 174.528 
L 210.250544 171.072 
L 209.839066 167.616 
L 209.45014 164.16 
L 209.079702 160.704 
L 208.724384 157.248 
L 208.381353 153.792 
L 208.048247 150.336 
L 207.722981 146.88 
L 207.7056 146.688886 
L 207.419641 143.424 
L 207.126201 139.968 
L 206.840185 136.512 
L 206.560192 133.056 
L 206.284985 129.6 
L 206.013457 126.144 
L 205.744661 122.688 
L 205.47778 119.232 
L 205.212038 115.776 
L 204.946787 112.32 
L 204.681388 108.864 
L 204.415342 105.408 
L 204.148115 101.952 
L 204.1344 101.773628 
L 203.895194 98.496 
L 203.644521 95.04 
L 203.394835 91.584 
L 203.145667 88.128 
L 202.896569 84.672 
L 202.647183 81.216 
L 202.397077 77.76 
L 202.145931 74.304 
L 201.893406 70.848 
L 201.639137 67.392 
L 201.382843 63.936 
L 201.124224 60.48 
L 200.862982 57.024 
L 200.598849 53.568 
L 200.5632 53.102446 
z
" style="fill:#ecd3c5;"/>
   </g>
   <g id="PathCollection_6">
    <path clip-path="url(#p9200543f9f)" d="M 214.726076 88.128 
L 214.565342 84.672 
L 214.402451 81.216 
L 214.237304 77.76 
L 214.069814 74.304 
L 213.899865 70.848 
L 213.727336 67.392 
L 213.552156 63.936 
L 213.374258 60.48 
L 213.193565 57.024 
L 213.009996 53.568 
L 212.823484 50.112 
L 212.633967 46.656 
L 212.441427 43.2 
L 214.848 43.2 
L 218.4192 43.2 
L 221.9904 43.2 
L 225.5616 43.2 
L 229.1328 43.2 
L 232.704 43.2 
L 236.2752 43.2 
L 239.8464 43.2 
L 243.4176 43.2 
L 244.553528 43.2 
L 244.323954 46.656 
L 244.092403 50.112 
L 243.858943 53.568 
L 243.623335 57.024 
L 243.4176 60.008478 
L 243.387289 60.48 
L 243.161278 63.936 
L 242.933512 67.392 
L 242.703928 70.848 
L 242.472282 74.304 
L 242.238639 77.76 
L 242.00282 81.216 
L 241.764906 84.672 
L 241.524625 88.128 
L 241.282147 91.584 
L 241.037323 95.04 
L 240.790134 98.496 
L 240.54055 101.952 
L 240.288693 105.408 
L 240.034656 108.864 
L 239.8464 111.393498 
L 239.784079 112.32 
L 239.548017 115.776 
L 239.310873 119.232 
L 239.073017 122.688 
L 238.83479 126.144 
L 238.596522 129.6 
L 238.35879 133.056 
L 238.122153 136.512 
L 237.88746 139.968 
L 237.655547 143.424 
L 237.427642 146.88 
L 237.204919 150.336 
L 236.989144 153.792 
L 236.782118 157.248 
L 236.586256 160.704 
L 236.4042 164.16 
L 236.2752 166.852042 
L 236.243803 167.616 
L 236.118444 171.072 
L 236.016416 174.528 
L 235.942472 177.984 
L 235.901989 181.44 
L 235.90124 184.896 
L 235.947224 188.352 
L 236.047853 191.808 
L 236.211578 195.264 
L 236.2752 196.167175 
L 236.481314 198.72 
L 236.864467 202.176 
L 237.360224 205.632 
L 237.976838 209.088 
L 238.717272 212.544 
L 239.576408 216 
L 239.8464 216.909651 
L 240.7154 219.456 
L 242.03912 222.912 
L 243.4176 226.304985 
L 243.446841 226.368 
L 245.257957 229.824 
L 246.9888 233.123606 
L 247.081661 233.28 
L 249.273109 236.736 
L 250.56 238.799717 
L 251.53783 240.192 
L 253.92723 243.648 
L 254.1312 243.947584 
L 256.556172 247.104 
L 257.7024 248.675732 
L 259.246209 250.56 
L 261.2736 253.177572 
L 262.000146 254.016 
L 264.82075 257.472 
L 264.8448 257.503546 
L 267.783701 260.928 
L 268.416 261.725717 
L 270.778203 264.384 
L 271.9872 265.858447 
L 273.80147 267.84 
L 275.5584 269.920747 
L 276.849941 271.296 
L 279.1296 273.928228 
L 279.920062 274.752 
L 282.7008 277.893605 
L 283.008021 278.208 
L 286.122895 281.664 
L 286.272 281.844057 
L 289.268056 285.12 
L 289.8432 285.802311 
L 292.415128 288.576 
L 293.4144 289.743121 
L 295.562515 292.032 
L 296.9856 293.671101 
L 298.708722 295.488 
L 300.5568 297.590353 
L 301.852466 298.944 
L 304.128 301.504306 
L 304.992315 302.4 
L 307.6992 305.41538 
L 308.127399 305.856 
L 311.257316 309.312 
L 311.2704 309.327543 
L 314.400029 312.768 
L 314.8416 313.287202 
L 317.533606 316.224 
L 318.4128 317.248059 
L 320.657747 319.68 
L 321.984 321.211233 
L 323.772425 323.136 
L 325.5552 325.177185 
L 326.878103 326.592 
L 329.1264 329.146302 
L 329.974412 330.048 
L 332.6976 333.118965 
L 333.061805 333.504 
L 336.145492 336.96 
L 336.2688 337.106615 
L 339.232565 340.416 
L 339.84 341.132023 
L 342.31134 343.872 
L 343.4112 345.157638 
L 345.382415 347.328 
L 346.9824 349.182506 
L 348.447225 350.784 
L 350.5536 353.205335 
L 351.506877 354.24 
L 354.1248 357.224452 
L 354.562411 357.696 
L 357.618039 361.152 
L 357.696 361.244719 
L 360.68543 364.608 
L 361.2672 365.292876 
L 363.753307 368.064 
L 364.8384 369.327896 
L 366.824365 371.52 
L 368.4096 373.346373 
L 369.901967 374.976 
L 371.9808 377.343773 
L 372.988489 378.432 
L 375.552 381.316401 
L 376.08772 381.888 
L 379.1232 385.258021 
L 379.20488 385.344 
L 382.354121 388.8 
L 379.1232 388.8 
L 375.552 388.8 
L 371.9808 388.8 
L 368.4096 388.8 
L 364.8384 388.8 
L 361.2672 388.8 
L 357.696 388.8 
L 354.1248 388.8 
L 350.5536 388.8 
L 346.9824 388.8 
L 343.4112 388.8 
L 339.84 388.8 
L 336.2688 388.8 
L 332.6976 388.8 
L 329.1264 388.8 
L 325.5552 388.8 
L 321.984 388.8 
L 318.4128 388.8 
L 314.8416 388.8 
L 311.2704 388.8 
L 307.6992 388.8 
L 304.128 388.8 
L 300.5568 388.8 
L 296.9856 388.8 
L 293.4144 388.8 
L 289.8432 388.8 
L 286.272 388.8 
L 282.7008 388.8 
L 279.1296 388.8 
L 275.5584 388.8 
L 271.9872 388.8 
L 268.416 388.8 
L 266.213811 388.8 
L 266.085995 385.344 
L 265.954204 381.888 
L 265.817894 378.432 
L 265.67623 374.976 
L 265.52869 371.52 
L 265.374232 368.064 
L 265.212152 364.608 
L 265.041267 361.152 
L 264.860474 357.696 
L 264.8448 357.414523 
L 264.692279 354.24 
L 264.515188 350.784 
L 264.3256 347.328 
L 264.12202 343.872 
L 263.902742 340.416 
L 263.665768 336.96 
L 263.408953 333.504 
L 263.129803 330.048 
L 262.825566 326.592 
L 262.493105 323.136 
L 262.128856 319.68 
L 261.72879 316.224 
L 261.288272 312.768 
L 261.2736 312.664564 
L 260.864148 309.312 
L 260.396657 305.856 
L 259.877967 302.4 
L 259.301255 298.944 
L 258.658533 295.488 
L 257.940859 292.032 
L 257.7024 291.014075 
L 257.212043 288.576 
L 256.430117 285.12 
L 255.551787 281.664 
L 254.563098 278.208 
L 254.1312 276.878824 
L 253.538967 274.752 
L 252.449188 271.296 
L 251.218421 267.84 
L 250.56 266.213405 
L 249.925502 264.384 
L 248.569075 260.928 
L 247.036188 257.472 
L 246.9888 257.377159 
L 245.547077 254.016 
L 243.884483 250.56 
L 243.4176 249.685031 
L 242.229044 247.104 
L 240.47262 243.648 
L 239.8464 242.509232 
L 238.737377 240.192 
L 236.960022 236.736 
L 236.2752 235.461734 
L 235.243524 233.28 
L 233.552709 229.824 
L 232.704 228.106355 
L 231.939762 226.368 
L 230.450224 222.912 
L 229.1328 219.853304 
L 228.979105 219.456 
L 227.76561 216 
L 226.593574 212.544 
L 225.5616 209.337929 
L 225.48962 209.088 
L 224.624317 205.632 
L 223.822476 202.176 
L 223.082944 198.72 
L 222.403739 195.264 
L 221.9904 192.927303 
L 221.816728 191.808 
L 221.344232 188.352 
L 220.912003 184.896 
L 220.514994 181.44 
L 220.148648 177.984 
L 219.808767 174.528 
L 219.491631 171.072 
L 219.193917 167.616 
L 218.912647 164.16 
L 218.645254 160.704 
L 218.4192 157.639039 
L 218.394494 157.248 
L 218.189922 153.792 
L 217.992314 150.336 
L 217.800355 146.88 
L 217.612914 143.424 
L 217.428973 139.968 
L 217.247651 136.512 
L 217.068263 133.056 
L 216.890098 129.6 
L 216.712618 126.144 
L 216.535347 122.688 
L 216.357861 119.232 
L 216.179727 115.776 
L 216.000687 112.32 
L 215.820406 108.864 
L 215.638626 105.408 
L 215.455165 101.952 
L 215.269778 98.496 
L 215.082277 95.04 
L 214.892544 91.584 
L 214.848 90.770688 
z
" style="fill:#f7b093;"/>
   </g>
   <g id="PathCollection_7">
    <path clip-path="url(#p9200543f9f)" d="M 236.211578 195.264 
L 236.047853 191.808 
L 235.947224 188.352 
L 235.90124 184.896 
L 235.901989 181.44 
L 235.942472 177.984 
L 236.016416 174.528 
L 236.118444 171.072 
L 236.243803 167.616 
L 236.2752 166.852042 
L 236.4042 164.16 
L 236.586256 160.704 
L 236.782118 157.248 
L 236.989144 153.792 
L 237.204919 150.336 
L 237.427642 146.88 
L 237.655547 143.424 
L 237.88746 139.968 
L 238.122153 136.512 
L 238.35879 133.056 
L 238.596522 129.6 
L 238.83479 126.144 
L 239.073017 122.688 
L 239.310873 119.232 
L 239.548017 115.776 
L 239.784079 112.32 
L 239.8464 111.393498 
L 240.034656 108.864 
L 240.288693 105.408 
L 240.54055 101.952 
L 240.790134 98.496 
L 241.037323 95.04 
L 241.282147 91.584 
L 241.524625 88.128 
L 241.764906 84.672 
L 242.00282 81.216 
L 242.238639 77.76 
L 242.472282 74.304 
L 242.703928 70.848 
L 242.933512 67.392 
L 243.161278 63.936 
L 243.387289 60.48 
L 243.4176 60.008478 
L 243.623335 57.024 
L 243.858943 53.568 
L 244.092403 50.112 
L 244.323954 46.656 
L 244.553528 43.2 
L 246.9888 43.2 
L 250.56 43.2 
L 254.1312 43.2 
L 257.7024 43.2 
L 261.2736 43.2 
L 264.8448 43.2 
L 268.416 43.2 
L 271.9872 43.2 
L 275.5584 43.2 
L 279.1296 43.2 
L 282.7008 43.2 
L 286.272 43.2 
L 289.8432 43.2 
L 293.4144 43.2 
L 296.9856 43.2 
L 300.5568 43.2 
L 304.128 43.2 
L 307.6992 43.2 
L 311.2704 43.2 
L 314.8416 43.2 
L 318.4128 43.2 
L 321.984 43.2 
L 325.5552 43.2 
L 329.1264 43.2 
L 332.6976 43.2 
L 336.2688 43.2 
L 339.84 43.2 
L 343.4112 43.2 
L 345.204809 43.2 
L 343.4112 46.598578 
L 343.381773 46.656 
L 341.615289 50.112 
L 339.84 53.510427 
L 339.810854 53.568 
L 338.067185 57.024 
L 336.282815 60.48 
L 336.2688 60.507179 
L 334.563865 63.936 
L 332.804949 67.392 
L 332.6976 67.602982 
L 331.10896 70.848 
L 329.3789 74.304 
L 329.1264 74.807785 
L 327.706191 77.76 
L 326.009972 81.216 
L 325.5552 82.138639 
L 324.359626 84.672 
L 322.702289 88.128 
L 321.984 89.613129 
L 321.073678 91.584 
L 319.46068 95.04 
L 318.4128 97.252297 
L 317.851827 98.496 
L 316.289849 101.952 
L 314.8416 105.083418 
L 314.699079 105.408 
L 313.194873 108.864 
L 311.653253 112.32 
L 311.2704 113.180708 
L 310.180111 115.776 
L 308.70946 119.232 
L 307.6992 121.579868 
L 307.250386 122.688 
L 305.859649 126.144 
L 304.441007 129.6 
L 304.128 130.371429 
L 303.108327 133.056 
L 301.787702 136.512 
L 300.5568 139.698674 
L 300.4598 139.968 
L 299.247977 143.424 
L 298.02889 146.88 
L 296.9856 149.844615 
L 296.825327 150.336 
L 295.738502 153.792 
L 294.661264 157.248 
L 293.599756 160.704 
L 293.4144 161.341287 
L 292.660837 164.16 
L 291.774928 167.616 
L 290.931202 171.072 
L 290.141234 174.528 
L 289.8432 175.980706 
L 289.46924 177.984 
L 288.905831 181.44 
L 288.430436 184.896 
L 288.059526 188.352 
L 287.810934 191.808 
L 287.702698 195.264 
L 287.754503 198.72 
L 287.984677 202.176 
L 288.411468 205.632 
L 289.04945 209.088 
L 289.8432 212.270542 
L 289.918981 212.544 
L 291.146159 216 
L 292.627613 219.456 
L 293.4144 220.998576 
L 294.462905 222.912 
L 296.635106 226.368 
L 296.9856 226.850848 
L 299.243659 229.824 
L 300.5568 231.370385 
L 302.227985 233.28 
L 304.128 235.230411 
L 305.617797 236.736 
L 307.6992 238.630315 
L 309.41892 240.192 
L 311.2704 241.708858 
L 313.612436 243.648 
L 314.8416 244.566767 
L 318.16278 247.104 
L 318.4128 247.276553 
L 321.984 249.749758 
L 323.123803 250.56 
L 325.5552 252.121823 
L 328.38253 254.016 
L 329.1264 254.466563 
L 332.6976 256.669028 
L 333.960426 257.472 
L 336.2688 258.799232 
L 339.767948 260.928 
L 339.84 260.967682 
L 343.4112 262.935429 
L 345.885482 264.384 
L 346.9824 264.96547 
L 350.5536 266.909951 
L 352.195444 267.84 
L 354.1248 268.829805 
L 357.696 270.74987 
L 358.68803 271.296 
L 361.2672 272.582246 
L 364.8384 274.476546 
L 365.351267 274.752 
L 368.4096 276.240281 
L 371.9808 278.107234 
L 372.172584 278.208 
L 375.552 279.817498 
L 379.1232 281.6559 
L 379.138917 281.664 
L 382.6944 283.325755 
L 386.240195 285.12 
L 386.2656 285.131701 
L 389.8368 286.773476 
L 393.408 288.55024 
L 393.4597 288.576 
L 396.9792 290.168241 
L 400.5504 291.911992 
L 400.794872 292.032 
L 404.1216 293.515572 
L 407.6928 295.224608 
L 408.236972 295.488 
L 411.264 296.820049 
L 414.8352 298.492548 
L 415.780698 298.944 
L 418.4064 300.084565 
L 421.9776 301.718913 
L 423.423455 302.4 
L 425.5488 303.311522 
L 429.12 304.90583 
L 429.12 305.856 
L 429.12 309.312 
L 429.12 312.768 
L 429.12 316.224 
L 429.12 319.68 
L 429.12 323.136 
L 429.12 326.592 
L 429.12 330.048 
L 429.12 333.504 
L 429.12 336.96 
L 429.12 340.416 
L 429.12 343.872 
L 429.12 347.328 
L 429.12 350.784 
L 429.12 354.24 
L 429.12 357.696 
L 429.12 361.152 
L 429.12 364.608 
L 429.12 368.064 
L 429.12 371.52 
L 429.12 374.976 
L 429.12 378.432 
L 429.12 381.888 
L 429.12 385.344 
L 429.12 388.8 
L 425.5488 388.8 
L 421.9776 388.8 
L 418.4064 388.8 
L 414.8352 388.8 
L 411.264 388.8 
L 407.6928 388.8 
L 404.1216 388.8 
L 400.5504 388.8 
L 396.9792 388.8 
L 393.408 388.8 
L 389.8368 388.8 
L 386.2656 388.8 
L 382.6944 388.8 
L 382.354121 388.8 
L 379.20488 385.344 
L 379.1232 385.258021 
L 376.08772 381.888 
L 375.552 381.316401 
L 372.988489 378.432 
L 371.9808 377.343773 
L 369.901967 374.976 
L 368.4096 373.346373 
L 366.824365 371.52 
L 364.8384 369.327896 
L 363.753307 368.064 
L 361.2672 365.292876 
L 360.68543 364.608 
L 357.696 361.244719 
L 357.618039 361.152 
L 354.562411 357.696 
L 354.1248 357.224452 
L 351.506877 354.24 
L 350.5536 353.205335 
L 348.447225 350.784 
L 346.9824 349.182506 
L 345.382415 347.328 
L 343.4112 345.157638 
L 342.31134 343.872 
L 339.84 341.132023 
L 339.232565 340.416 
L 336.2688 337.106615 
L 336.145492 336.96 
L 333.061805 333.504 
L 332.6976 333.118965 
L 329.974412 330.048 
L 329.1264 329.146302 
L 326.878103 326.592 
L 325.5552 325.177185 
L 323.772425 323.136 
L 321.984 321.211233 
L 320.657747 319.68 
L 318.4128 317.248059 
L 317.533606 316.224 
L 314.8416 313.287202 
L 314.400029 312.768 
L 311.2704 309.327543 
L 311.257316 309.312 
L 308.127399 305.856 
L 307.6992 305.41538 
L 304.992315 302.4 
L 304.128 301.504306 
L 301.852466 298.944 
L 300.5568 297.590353 
L 298.708722 295.488 
L 296.9856 293.671101 
L 295.562515 292.032 
L 293.4144 289.743121 
L 292.415128 288.576 
L 289.8432 285.802311 
L 289.268056 285.12 
L 286.272 281.844057 
L 286.122895 281.664 
L 283.008021 278.208 
L 282.7008 277.893605 
L 279.920062 274.752 
L 279.1296 273.928228 
L 276.849941 271.296 
L 275.5584 269.920747 
L 273.80147 267.84 
L 271.9872 265.858447 
L 270.778203 264.384 
L 268.416 261.725717 
L 267.783701 260.928 
L 264.8448 257.503546 
L 264.82075 257.472 
L 262.000146 254.016 
L 261.2736 253.177572 
L 259.246209 250.56 
L 257.7024 248.675732 
L 256.556172 247.104 
L 254.1312 243.947584 
L 253.92723 243.648 
L 251.53783 240.192 
L 250.56 238.799717 
L 249.273109 236.736 
L 247.081661 233.28 
L 246.9888 233.123606 
L 245.257957 229.824 
L 243.446841 226.368 
L 243.4176 226.304985 
L 242.03912 222.912 
L 240.7154 219.456 
L 239.8464 216.909651 
L 239.576408 216 
L 238.717272 212.544 
L 237.976838 209.088 
L 237.360224 205.632 
L 236.864467 202.176 
L 236.481314 198.72 
L 236.2752 196.167175 
z
" style="fill:#eb7d62;"/>
   </g>
   <g id="PathCollection_8">
    <path clip-path="url(#p9200543f9f)" d="M 289.04945 209.088 
L 288.411468 205.632 
L 287.984677 202.176 
L 287.754503 198.72 
L 287.702698 195.264 
L 287.810934 191.808 
L 288.059526 188.352 
L 288.430436 184.896 
L 288.905831 181.44 
L 289.46924 177.984 
L 289.8432 175.980706 
L 290.141234 174.528 
L 290.931202 171.072 
L 291.774928 167.616 
L 292.660837 164.16 
L 293.4144 161.341287 
L 293.599756 160.704 
L 294.661264 157.248 
L 295.738502 153.792 
L 296.825327 150.336 
L 296.9856 149.844615 
L 298.02889 146.88 
L 299.247977 143.424 
L 300.4598 139.968 
L 300.5568 139.698674 
L 301.787702 136.512 
L 303.108327 133.056 
L 304.128 130.371429 
L 304.441007 129.6 
L 305.859649 126.144 
L 307.250386 122.688 
L 307.6992 121.579868 
L 308.70946 119.232 
L 310.180111 115.776 
L 311.2704 113.180708 
L 311.653253 112.32 
L 313.194873 108.864 
L 314.699079 105.408 
L 314.8416 105.083418 
L 316.289849 101.952 
L 317.851827 98.496 
L 318.4128 97.252297 
L 319.46068 95.04 
L 321.073678 91.584 
L 321.984 89.613129 
L 322.702289 88.128 
L 324.359626 84.672 
L 325.5552 82.138639 
L 326.009972 81.216 
L 327.706191 77.76 
L 329.1264 74.807785 
L 329.3789 74.304 
L 331.10896 70.848 
L 332.6976 67.602982 
L 332.804949 67.392 
L 334.563865 63.936 
L 336.2688 60.507179 
L 336.282815 60.48 
L 338.067185 57.024 
L 339.810854 53.568 
L 339.84 53.510427 
L 341.615289 50.112 
L 343.381773 46.656 
L 343.4112 46.598578 
L 345.204809 43.2 
L 346.9824 43.2 
L 350.5536 43.2 
L 354.1248 43.2 
L 357.696 43.2 
L 361.2672 43.2 
L 364.8384 43.2 
L 368.4096 43.2 
L 371.9808 43.2 
L 375.552 43.2 
L 379.1232 43.2 
L 382.6944 43.2 
L 386.2656 43.2 
L 389.8368 43.2 
L 393.408 43.2 
L 396.9792 43.2 
L 400.5504 43.2 
L 404.1216 43.2 
L 407.6928 43.2 
L 411.264 43.2 
L 414.8352 43.2 
L 418.4064 43.2 
L 421.9776 43.2 
L 425.5488 43.2 
L 429.12 43.2 
L 429.12 46.656 
L 429.12 50.112 
L 429.12 53.568 
L 429.12 57.024 
L 429.12 60.48 
L 429.12 63.936 
L 429.12 67.392 
L 429.12 70.848 
L 429.12 74.304 
L 429.12 77.76 
L 429.12 81.216 
L 429.12 84.672 
L 429.12 88.128 
L 429.12 91.584 
L 429.12 95.04 
L 429.12 98.496 
L 429.12 101.952 
L 429.12 105.408 
L 429.12 108.864 
L 429.12 112.32 
L 429.12 115.776 
L 429.12 119.232 
L 429.12 122.688 
L 429.12 126.144 
L 429.12 129.6 
L 429.12 133.056 
L 429.12 136.512 
L 429.12 139.968 
L 429.12 143.424 
L 429.12 146.88 
L 429.12 150.336 
L 429.12 153.792 
L 429.12 157.248 
L 429.12 160.704 
L 429.12 164.16 
L 429.12 167.616 
L 429.12 171.072 
L 429.12 174.528 
L 429.12 177.984 
L 429.12 181.44 
L 429.12 184.896 
L 429.12 188.352 
L 429.12 191.808 
L 429.12 195.264 
L 429.12 198.72 
L 429.12 202.176 
L 429.12 205.632 
L 429.12 209.088 
L 429.12 212.544 
L 429.12 216 
L 429.12 219.456 
L 429.12 222.912 
L 429.12 226.368 
L 429.12 229.824 
L 429.12 233.28 
L 429.12 236.736 
L 429.12 240.192 
L 429.12 243.648 
L 429.12 247.104 
L 429.12 250.56 
L 429.12 254.016 
L 429.12 257.472 
L 429.12 260.928 
L 429.12 264.384 
L 429.12 267.84 
L 429.12 271.296 
L 429.12 274.752 
L 429.12 278.208 
L 429.12 281.664 
L 429.12 285.12 
L 429.12 288.576 
L 429.12 292.032 
L 429.12 295.488 
L 429.12 298.944 
L 429.12 302.4 
L 429.12 304.90583 
L 425.5488 303.311522 
L 423.423455 302.4 
L 421.9776 301.718913 
L 418.4064 300.084565 
L 415.780698 298.944 
L 414.8352 298.492548 
L 411.264 296.820049 
L 408.236972 295.488 
L 407.6928 295.224608 
L 404.1216 293.515572 
L 400.794872 292.032 
L 400.5504 291.911992 
L 396.9792 290.168241 
L 393.4597 288.576 
L 393.408 288.55024 
L 389.8368 286.773476 
L 386.2656 285.131701 
L 386.240195 285.12 
L 382.6944 283.325755 
L 379.138917 281.664 
L 379.1232 281.6559 
L 375.552 279.817498 
L 372.172584 278.208 
L 371.9808 278.107234 
L 368.4096 276.240281 
L 365.351267 274.752 
L 364.8384 274.476546 
L 361.2672 272.582246 
L 358.68803 271.296 
L 357.696 270.74987 
L 354.1248 268.829805 
L 352.195444 267.84 
L 350.5536 266.909951 
L 346.9824 264.96547 
L 345.885482 264.384 
L 343.4112 262.935429 
L 339.84 260.967682 
L 339.767948 260.928 
L 336.2688 258.799232 
L 333.960426 257.472 
L 332.6976 256.669028 
L 329.1264 254.466563 
L 328.38253 254.016 
L 325.5552 252.121823 
L 323.123803 250.56 
L 321.984 249.749758 
L 318.4128 247.276553 
L 318.16278 247.104 
L 314.8416 244.566767 
L 313.612436 243.648 
L 311.2704 241.708858 
L 309.41892 240.192 
L 307.6992 238.630315 
L 305.617797 236.736 
L 304.128 235.230411 
L 302.227985 233.28 
L 300.5568 231.370385 
L 299.243659 229.824 
L 296.9856 226.850848 
L 296.635106 226.368 
L 294.462905 222.912 
L 293.4144 220.998576 
L 292.627613 219.456 
L 291.146159 216 
L 289.918981 212.544 
L 289.8432 212.270542 
z
" style="fill:#ca3b37;"/>
   </g>
   <g id="patch_3">
    <path d="M 72 43.2 
L 429.12 43.2 
" style="fill:none;stroke:#000000;stroke-linecap:square;stroke-linejoin:miter;"/>
   </g>
   <g id="patch_4">
    <path d="M 429.12 388.8 
L 429.12 43.2 
" style="fill:none;stroke:#000000;stroke-linecap:square;stroke-linejoin:miter;"/>
   </g>
   <g id="patch_5">
    <path d="M 72 388.8 
L 429.12 388.8 
" style="fill:none;stroke:#000000;stroke-linecap:square;stroke-linejoin:miter;"/>
   </g>
   <g id="patch_6">
    <path d="M 72 388.8 
L 72 43.2 
" style="fill:none;stroke:#000000;stroke-linecap:square;stroke-linejoin:miter;"/>
   </g>
   <g id="matplotlib.axis_1">
    <g id="xtick_1">
     <g id="line2d_1">
      <path clip-path="url(#p9200543f9f)" d="M 79.961274 388.8 
L 79.961274 43.2 
" style="fill:none;stroke:#000000;stroke-dasharray:1.000000,3.000000;stroke-dashoffset:0.0;stroke-width:0.5;"/>
     </g>
     <g id="line2d_2">
      <defs>
       <path d="M 0 0 
L 0 -4 
" id="m9bec15d0b3" style="stroke:#000000;stroke-width:0.5;"/>
      </defs>
      <g>
       <use style="stroke:#000000;stroke-width:0.5;" x="79.96127388535035" xlink:href="#m9bec15d0b3" y="388.8"/>
      </g>
     </g>
     <g id="line2d_3">
      <defs>
       <path d="M 0 0 
L 0 4 
" id="ma7eb91929b" style="stroke:#000000;stroke-width:0.5;"/>
      </defs>
      <g>
       <use style="stroke:#000000;stroke-width:0.5;" x="79.96127388535035" xlink:href="#ma7eb91929b" y="43.19999999999999"/>
      </g>
     </g>
     <g id="text_1">
      <!-- −3 -->
      <defs>
       <path d="M 10.59375 35.5 
L 73.1875 35.5 
L 73.1875 27.203125 
L 10.59375 27.203125 
z
" id="BitstreamVeraSans-Roman-2212"/>
       <path d="M 40.578125 39.3125 
Q 47.65625 37.796875 51.625 33 
Q 55.609375 28.21875 55.609375 21.1875 
Q 55.609375 10.40625 48.1875 4.484375 
Q 40.765625 -1.421875 27.09375 -1.421875 
Q 22.515625 -1.421875 17.65625 -0.515625 
Q 12.796875 0.390625 7.625 2.203125 
L 7.625 11.71875 
Q 11.71875 9.328125 16.59375 8.109375 
Q 21.484375 6.890625 26.8125 6.890625 
Q 36.078125 6.890625 40.9375 10.546875 
Q 45.796875 14.203125 45.796875 21.1875 
Q 45.796875 27.640625 41.28125 31.265625 
Q 36.765625 34.90625 28.71875 34.90625 
L 20.21875 34.90625 
L 20.21875 43.015625 
L 29.109375 43.015625 
Q 36.375 43.015625 40.234375 45.921875 
Q 44.09375 48.828125 44.09375 54.296875 
Q 44.09375 59.90625 40.109375 62.90625 
Q 36.140625 65.921875 28.71875 65.921875 
Q 24.65625 65.921875 20.015625 65.03125 
Q 15.375 64.15625 9.8125 62.3125 
L 9.8125 71.09375 
Q 15.4375 72.65625 20.34375 73.4375 
Q 25.25 74.21875 29.59375 74.21875 
Q 40.828125 74.21875 47.359375 69.109375 
Q 53.90625 64.015625 53.90625 55.328125 
Q 53.90625 49.265625 50.4375 45.09375 
Q 46.96875 40.921875 40.578125 39.3125 
" id="BitstreamVeraSans-Roman-33"/>
      </defs>
      <g transform="translate(71.11596138535035 401.91812500000003)scale(0.12 -0.12)">
       <use xlink:href="#BitstreamVeraSans-Roman-2212"/>
       <use x="83.7890625" xlink:href="#BitstreamVeraSans-Roman-33"/>
      </g>
     </g>
    </g>
    <g id="xtick_2">
     <g id="line2d_4">
      <path clip-path="url(#p9200543f9f)" d="M 136.827516 388.8 
L 136.827516 43.2 
" style="fill:none;stroke:#000000;stroke-dasharray:1.000000,3.000000;stroke-dashoffset:0.0;stroke-width:0.5;"/>
     </g>
     <g id="line2d_5">
      <g>
       <use style="stroke:#000000;stroke-width:0.5;" x="136.8275159235669" xlink:href="#m9bec15d0b3" y="388.8"/>
      </g>
     </g>
     <g id="line2d_6">
      <g>
       <use style="stroke:#000000;stroke-width:0.5;" x="136.8275159235669" xlink:href="#ma7eb91929b" y="43.19999999999999"/>
      </g>
     </g>
     <g id="text_2">
      <!-- −2 -->
      <defs>
       <path d="M 19.1875 8.296875 
L 53.609375 8.296875 
L 53.609375 0 
L 7.328125 0 
L 7.328125 8.296875 
Q 12.9375 14.109375 22.625 23.890625 
Q 32.328125 33.6875 34.8125 36.53125 
Q 39.546875 41.84375 41.421875 45.53125 
Q 43.3125 49.21875 43.3125 52.78125 
Q 43.3125 58.59375 39.234375 62.25 
Q 35.15625 65.921875 28.609375 65.921875 
Q 23.96875 65.921875 18.8125 64.3125 
Q 13.671875 62.703125 7.8125 59.421875 
L 7.8125 69.390625 
Q 13.765625 71.78125 18.9375 73 
Q 24.125 74.21875 28.421875 74.21875 
Q 39.75 74.21875 46.484375 68.546875 
Q 53.21875 62.890625 53.21875 53.421875 
Q 53.21875 48.921875 51.53125 44.890625 
Q 49.859375 40.875 45.40625 35.40625 
Q 44.1875 33.984375 37.640625 27.21875 
Q 31.109375 20.453125 19.1875 8.296875 
" id="BitstreamVeraSans-Roman-32"/>
      </defs>
      <g transform="translate(127.98220342356689 401.91812500000003)scale(0.12 -0.12)">
       <use xlink:href="#BitstreamVeraSans-Roman-2212"/>
       <use x="83.7890625" xlink:href="#BitstreamVeraSans-Roman-32"/>
      </g>
     </g>
    </g>
    <g id="xtick_3">
     <g id="line2d_7">
      <path clip-path="url(#p9200543f9f)" d="M 193.693758 388.8 
L 193.693758 43.2 
" style="fill:none;stroke:#000000;stroke-dasharray:1.000000,3.000000;stroke-dashoffset:0.0;stroke-width:0.5;"/>
     </g>
     <g id="line2d_8">
      <g>
       <use style="stroke:#000000;stroke-width:0.5;" x="193.69375796178343" xlink:href="#m9bec15d0b3" y="388.8"/>
      </g>
     </g>
     <g id="line2d_9">
      <g>
       <use style="stroke:#000000;stroke-width:0.5;" x="193.69375796178343" xlink:href="#ma7eb91929b" y="43.19999999999999"/>
      </g>
     </g>
     <g id="text_3">
      <!-- −1 -->
      <defs>
       <path d="M 12.40625 8.296875 
L 28.515625 8.296875 
L 28.515625 63.921875 
L 10.984375 60.40625 
L 10.984375 69.390625 
L 28.421875 72.90625 
L 38.28125 72.90625 
L 38.28125 8.296875 
L 54.390625 8.296875 
L 54.390625 0 
L 12.40625 0 
z
" id="BitstreamVeraSans-Roman-31"/>
      </defs>
      <g transform="translate(184.84844546178343 401.91812500000003)scale(0.12 -0.12)">
       <use xlink:href="#BitstreamVeraSans-Roman-2212"/>
       <use x="83.7890625" xlink:href="#BitstreamVeraSans-Roman-31"/>
      </g>
     </g>
    </g>
    <g id="xtick_4">
     <g id="line2d_10">
      <path clip-path="url(#p9200543f9f)" d="M 250.56 388.8 
L 250.56 43.2 
" style="fill:none;stroke:#000000;stroke-dasharray:1.000000,3.000000;stroke-dashoffset:0.0;stroke-width:0.5;"/>
     </g>
     <g id="line2d_11">
      <g>
       <use style="stroke:#000000;stroke-width:0.5;" x="250.56" xlink:href="#m9bec15d0b3" y="388.8"/>
      </g>
     </g>
     <g id="line2d_12">
      <g>
       <use style="stroke:#000000;stroke-width:0.5;" x="250.56" xlink:href="#ma7eb91929b" y="43.19999999999999"/>
      </g>
     </g>
     <g id="text_4">
      <!-- 0 -->
      <defs>
       <path d="M 31.78125 66.40625 
Q 24.171875 66.40625 20.328125 58.90625 
Q 16.5 51.421875 16.5 36.375 
Q 16.5 21.390625 20.328125 13.890625 
Q 24.171875 6.390625 31.78125 6.390625 
Q 39.453125 6.390625 43.28125 13.890625 
Q 47.125 21.390625 47.125 36.375 
Q 47.125 51.421875 43.28125 58.90625 
Q 39.453125 66.40625 31.78125 66.40625 
M 31.78125 74.21875 
Q 44.046875 74.21875 50.515625 64.515625 
Q 56.984375 54.828125 56.984375 36.375 
Q 56.984375 17.96875 50.515625 8.265625 
Q 44.046875 -1.421875 31.78125 -1.421875 
Q 19.53125 -1.421875 13.0625 8.265625 
Q 6.59375 17.96875 6.59375 36.375 
Q 6.59375 54.828125 13.0625 64.515625 
Q 19.53125 74.21875 31.78125 74.21875 
" id="BitstreamVeraSans-Roman-30"/>
      </defs>
      <g transform="translate(246.7425 401.91812500000003)scale(0.12 -0.12)">
       <use xlink:href="#BitstreamVeraSans-Roman-30"/>
      </g>
     </g>
    </g>
    <g id="xtick_5">
     <g id="line2d_13">
      <path clip-path="url(#p9200543f9f)" d="M 307.426242 388.8 
L 307.426242 43.2 
" style="fill:none;stroke:#000000;stroke-dasharray:1.000000,3.000000;stroke-dashoffset:0.0;stroke-width:0.5;"/>
     </g>
     <g id="line2d_14">
      <g>
       <use style="stroke:#000000;stroke-width:0.5;" x="307.42624203821657" xlink:href="#m9bec15d0b3" y="388.8"/>
      </g>
     </g>
     <g id="line2d_15">
      <g>
       <use style="stroke:#000000;stroke-width:0.5;" x="307.42624203821657" xlink:href="#ma7eb91929b" y="43.19999999999999"/>
      </g>
     </g>
     <g id="text_5">
      <!-- 1 -->
      <g transform="translate(303.6087420382166 401.91812500000003)scale(0.12 -0.12)">
       <use xlink:href="#BitstreamVeraSans-Roman-31"/>
      </g>
     </g>
    </g>
    <g id="xtick_6">
     <g id="line2d_16">
      <path clip-path="url(#p9200543f9f)" d="M 364.292484 388.8 
L 364.292484 43.2 
" style="fill:none;stroke:#000000;stroke-dasharray:1.000000,3.000000;stroke-dashoffset:0.0;stroke-width:0.5;"/>
     </g>
     <g id="line2d_17">
      <g>
       <use style="stroke:#000000;stroke-width:0.5;" x="364.2924840764331" xlink:href="#m9bec15d0b3" y="388.8"/>
      </g>
     </g>
     <g id="line2d_18">
      <g>
       <use style="stroke:#000000;stroke-width:0.5;" x="364.2924840764331" xlink:href="#ma7eb91929b" y="43.19999999999999"/>
      </g>
     </g>
     <g id="text_6">
      <!-- 2 -->
      <g transform="translate(360.4749840764331 401.91812500000003)scale(0.12 -0.12)">
       <use xlink:href="#BitstreamVeraSans-Roman-32"/>
      </g>
     </g>
    </g>
    <g id="xtick_7">
     <g id="line2d_19">
      <path clip-path="url(#p9200543f9f)" d="M 421.158726 388.8 
L 421.158726 43.2 
" style="fill:none;stroke:#000000;stroke-dasharray:1.000000,3.000000;stroke-dashoffset:0.0;stroke-width:0.5;"/>
     </g>
     <g id="line2d_20">
      <g>
       <use style="stroke:#000000;stroke-width:0.5;" x="421.15872611464965" xlink:href="#m9bec15d0b3" y="388.8"/>
      </g>
     </g>
     <g id="line2d_21">
      <g>
       <use style="stroke:#000000;stroke-width:0.5;" x="421.15872611464965" xlink:href="#ma7eb91929b" y="43.19999999999999"/>
      </g>
     </g>
     <g id="text_7">
      <!-- 3 -->
      <g transform="translate(417.34122611464966 401.91812500000003)scale(0.12 -0.12)">
       <use xlink:href="#BitstreamVeraSans-Roman-33"/>
      </g>
     </g>
    </g>
    <g id="text_8">
     <!-- x -->
     <defs>
      <path d="M 54.890625 54.6875 
L 35.109375 28.078125 
L 55.90625 0 
L 45.3125 0 
L 29.390625 21.484375 
L 13.484375 0 
L 2.875 0 
L 24.125 28.609375 
L 4.6875 54.6875 
L 15.28125 54.6875 
L 29.78125 35.203125 
L 44.28125 54.6875 
z
" id="BitstreamVeraSans-Roman-78"/>
     </defs>
     <g transform="translate(247.00875 418.531875)scale(0.12 -0.12)">
      <use xlink:href="#BitstreamVeraSans-Roman-78"/>
     </g>
    </g>
   </g>
   <g id="matplotlib.axis_2">
    <g id="ytick_1">
     <g id="line2d_22">
      <path clip-path="url(#p9200543f9f)" d="M 72 381.095541 
L 429.12 381.095541 
" style="fill:none;stroke:#000000;stroke-dasharray:1.000000,3.000000;stroke-dashoffset:0.0;stroke-width:0.5;"/>
     </g>
     <g id="line2d_23">
      <defs>
       <path d="M 0 0 
L 4 0 
" id="m7e419e112f" style="stroke:#000000;stroke-width:0.5;"/>
      </defs>
      <g>
       <use style="stroke:#000000;stroke-width:0.5;" x="72.0" xlink:href="#m7e419e112f" y="381.09554140127386"/>
      </g>
     </g>
     <g id="line2d_24">
      <defs>
       <path d="M 0 0 
L -4 0 
" id="m902cbe818e" style="stroke:#000000;stroke-width:0.5;"/>
      </defs>
      <g>
       <use style="stroke:#000000;stroke-width:0.5;" x="429.12" xlink:href="#m902cbe818e" y="381.09554140127386"/>
      </g>
     </g>
     <g id="text_9">
      <!-- −3 -->
      <g transform="translate(50.309375 384.4067914012739)scale(0.12 -0.12)">
       <use xlink:href="#BitstreamVeraSans-Roman-2212"/>
       <use x="83.7890625" xlink:href="#BitstreamVeraSans-Roman-33"/>
      </g>
     </g>
    </g>
    <g id="ytick_2">
     <g id="line2d_25">
      <path clip-path="url(#p9200543f9f)" d="M 72 326.063694 
L 429.12 326.063694 
" style="fill:none;stroke:#000000;stroke-dasharray:1.000000,3.000000;stroke-dashoffset:0.0;stroke-width:0.5;"/>
     </g>
     <g id="line2d_26">
      <g>
       <use style="stroke:#000000;stroke-width:0.5;" x="72.0" xlink:href="#m7e419e112f" y="326.0636942675159"/>
      </g>
     </g>
     <g id="line2d_27">
      <g>
       <use style="stroke:#000000;stroke-width:0.5;" x="429.12" xlink:href="#m902cbe818e" y="326.0636942675159"/>
      </g>
     </g>
     <g id="text_10">
      <!-- −2 -->
      <g transform="translate(50.309375 329.37494426751596)scale(0.12 -0.12)">
       <use xlink:href="#BitstreamVeraSans-Roman-2212"/>
       <use x="83.7890625" xlink:href="#BitstreamVeraSans-Roman-32"/>
      </g>
     </g>
    </g>
    <g id="ytick_3">
     <g id="line2d_28">
      <path clip-path="url(#p9200543f9f)" d="M 72 271.031847 
L 429.12 271.031847 
" style="fill:none;stroke:#000000;stroke-dasharray:1.000000,3.000000;stroke-dashoffset:0.0;stroke-width:0.5;"/>
     </g>
     <g id="line2d_29">
      <g>
       <use style="stroke:#000000;stroke-width:0.5;" x="72.0" xlink:href="#m7e419e112f" y="271.031847133758"/>
      </g>
     </g>
     <g id="line2d_30">
      <g>
       <use style="stroke:#000000;stroke-width:0.5;" x="429.12" xlink:href="#m902cbe818e" y="271.031847133758"/>
      </g>
     </g>
     <g id="text_11">
      <!-- −1 -->
      <g transform="translate(50.309375 274.34309713375796)scale(0.12 -0.12)">
       <use xlink:href="#BitstreamVeraSans-Roman-2212"/>
       <use x="83.7890625" xlink:href="#BitstreamVeraSans-Roman-31"/>
      </g>
     </g>
    </g>
    <g id="ytick_4">
     <g id="line2d_31">
      <path clip-path="url(#p9200543f9f)" d="M 72 216 
L 429.12 216 
" style="fill:none;stroke:#000000;stroke-dasharray:1.000000,3.000000;stroke-dashoffset:0.0;stroke-width:0.5;"/>
     </g>
     <g id="line2d_32">
      <g>
       <use style="stroke:#000000;stroke-width:0.5;" x="72.0" xlink:href="#m7e419e112f" y="216.0"/>
      </g>
     </g>
     <g id="line2d_33">
      <g>
       <use style="stroke:#000000;stroke-width:0.5;" x="429.12" xlink:href="#m902cbe818e" y="216.0"/>
      </g>
     </g>
     <g id="text_12">
      <!-- 0 -->
      <g transform="translate(60.365 219.31125)scale(0.12 -0.12)">
       <use xlink:href="#BitstreamVeraSans-Roman-30"/>
      </g>
     </g>
    </g>
    <g id="ytick_5">
     <g id="line2d_34">
      <path clip-path="url(#p9200543f9f)" d="M 72 160.968153 
L 429.12 160.968153 
" style="fill:none;stroke:#000000;stroke-dasharray:1.000000,3.000000;stroke-dashoffset:0.0;stroke-width:0.5;"/>
     </g>
     <g id="line2d_35">
      <g>
       <use style="stroke:#000000;stroke-width:0.5;" x="72.0" xlink:href="#m7e419e112f" y="160.96815286624204"/>
      </g>
     </g>
     <g id="line2d_36">
      <g>
       <use style="stroke:#000000;stroke-width:0.5;" x="429.12" xlink:href="#m902cbe818e" y="160.96815286624204"/>
      </g>
     </g>
     <g id="text_13">
      <!-- 1 -->
      <g transform="translate(60.365 164.27940286624198)scale(0.12 -0.12)">
       <use xlink:href="#BitstreamVeraSans-Roman-31"/>
      </g>
     </g>
    </g>
    <g id="ytick_6">
     <g id="line2d_37">
      <path clip-path="url(#p9200543f9f)" d="M 72 105.936306 
L 429.12 105.936306 
" style="fill:none;stroke:#000000;stroke-dasharray:1.000000,3.000000;stroke-dashoffset:0.0;stroke-width:0.5;"/>
     </g>
     <g id="line2d_38">
      <g>
       <use style="stroke:#000000;stroke-width:0.5;" x="72.0" xlink:href="#m7e419e112f" y="105.93630573248407"/>
      </g>
     </g>
     <g id="line2d_39">
      <g>
       <use style="stroke:#000000;stroke-width:0.5;" x="429.12" xlink:href="#m902cbe818e" y="105.93630573248407"/>
      </g>
     </g>
     <g id="text_14">
      <!-- 2 -->
      <g transform="translate(60.365 109.24755573248405)scale(0.12 -0.12)">
       <use xlink:href="#BitstreamVeraSans-Roman-32"/>
      </g>
     </g>
    </g>
    <g id="ytick_7">
     <g id="line2d_40">
      <path clip-path="url(#p9200543f9f)" d="M 72 50.904459 
L 429.12 50.904459 
" style="fill:none;stroke:#000000;stroke-dasharray:1.000000,3.000000;stroke-dashoffset:0.0;stroke-width:0.5;"/>
     </g>
     <g id="line2d_41">
      <g>
       <use style="stroke:#000000;stroke-width:0.5;" x="72.0" xlink:href="#m7e419e112f" y="50.90445859872611"/>
      </g>
     </g>
     <g id="line2d_42">
      <g>
       <use style="stroke:#000000;stroke-width:0.5;" x="429.12" xlink:href="#m902cbe818e" y="50.90445859872611"/>
      </g>
     </g>
     <g id="text_15">
      <!-- 3 -->
      <g transform="translate(60.365 54.21570859872611)scale(0.12 -0.12)">
       <use xlink:href="#BitstreamVeraSans-Roman-33"/>
      </g>
     </g>
    </g>
    <g id="text_16">
     <!-- y -->
     <defs>
      <path d="M 32.171875 -5.078125 
Q 28.375 -14.84375 24.75 -17.8125 
Q 21.140625 -20.796875 15.09375 -20.796875 
L 7.90625 -20.796875 
L 7.90625 -13.28125 
L 13.1875 -13.28125 
Q 16.890625 -13.28125 18.9375 -11.515625 
Q 21 -9.765625 23.484375 -3.21875 
L 25.09375 0.875 
L 2.984375 54.6875 
L 12.5 54.6875 
L 29.59375 11.921875 
L 46.6875 54.6875 
L 56.203125 54.6875 
z
" id="BitstreamVeraSans-Roman-79"/>
     </defs>
     <g transform="translate(42.81375 219.55125)rotate(-90.0)scale(0.12 -0.12)">
      <use xlink:href="#BitstreamVeraSans-Roman-79"/>
     </g>
    </g>
   </g>
  </g>
  <g id="axes_2">
   <g id="patch_7">
    <path clip-path="url(#p51c3c767b7)" d="M 451.44 388.8 
L 451.44 345.6 
L 451.44 86.4 
L 451.44 43.2 
L 468.72 43.2 
L 468.72 86.4 
L 468.72 345.6 
L 468.72 388.8 
z
" style="fill:#ffffff;stroke:#ffffff;stroke-linejoin:miter;stroke-width:0.01;"/>
   </g>
   <g id="QuadMesh_1">
    <path clip-path="url(#p51c3c767b7)" d="M 451.44 388.8 
L 468.72 388.8 
L 468.72 345.6 
L 451.44 345.6 
L 451.44 388.8 
" style="fill:#4c66d6;"/>
    <path clip-path="url(#p51c3c767b7)" d="M 451.44 345.6 
L 468.72 345.6 
L 468.72 302.4 
L 451.44 302.4 
L 451.44 345.6 
" style="fill:#779af7;"/>
    <path clip-path="url(#p51c3c767b7)" d="M 451.44 302.4 
L 468.72 302.4 
L 468.72 259.2 
L 451.44 259.2 
L 451.44 302.4 
" style="fill:#a3c2fe;"/>
    <path clip-path="url(#p51c3c767b7)" d="M 451.44 259.2 
L 468.72 259.2 
L 468.72 216 
L 451.44 216 
L 451.44 259.2 
" style="fill:#ccd9ed;"/>
    <path clip-path="url(#p51c3c767b7)" d="M 451.44 216 
L 468.72 216 
L 468.72 172.8 
L 451.44 172.8 
L 451.44 216 
" style="fill:#ecd3c5;"/>
    <path clip-path="url(#p51c3c767b7)" d="M 451.44 172.8 
L 468.72 172.8 
L 468.72 129.6 
L 451.44 129.6 
L 451.44 172.8 
" style="fill:#f7b093;"/>
    <path clip-path="url(#p51c3c767b7)" d="M 451.44 129.6 
L 468.72 129.6 
L 468.72 86.4 
L 451.44 86.4 
L 451.44 129.6 
" style="fill:#eb7d62;"/>
    <path clip-path="url(#p51c3c767b7)" d="M 451.44 86.4 
L 468.72 86.4 
L 468.72 43.2 
L 451.44 43.2 
L 451.44 86.4 
" style="fill:#ca3b37;"/>
   </g>
   <g id="patch_8">
    <path d="M 451.44 388.8 
L 451.44 345.6 
L 451.44 86.4 
L 451.44 43.2 
L 468.72 43.2 
L 468.72 86.4 
L 468.72 345.6 
L 468.72 388.8 
L 451.44 388.8 
z
" style="fill:none;stroke:#000000;stroke-linejoin:miter;"/>
   </g>
   <g id="matplotlib.axis_3"/>
   <g id="matplotlib.axis_4">
    <g id="ytick_8">
     <g id="line2d_43">
      <g>
       <use style="stroke:#000000;stroke-width:0.5;" x="468.71999999999997" xlink:href="#m902cbe818e" y="388.8"/>
      </g>
     </g>
     <g id="text_17">
      <!-- −1.6 -->
      <defs>
       <path d="M 33.015625 40.375 
Q 26.375 40.375 22.484375 35.828125 
Q 18.609375 31.296875 18.609375 23.390625 
Q 18.609375 15.53125 22.484375 10.953125 
Q 26.375 6.390625 33.015625 6.390625 
Q 39.65625 6.390625 43.53125 10.953125 
Q 47.40625 15.53125 47.40625 23.390625 
Q 47.40625 31.296875 43.53125 35.828125 
Q 39.65625 40.375 33.015625 40.375 
M 52.59375 71.296875 
L 52.59375 62.3125 
Q 48.875 64.0625 45.09375 64.984375 
Q 41.3125 65.921875 37.59375 65.921875 
Q 27.828125 65.921875 22.671875 59.328125 
Q 17.53125 52.734375 16.796875 39.40625 
Q 19.671875 43.65625 24.015625 45.921875 
Q 28.375 48.1875 33.59375 48.1875 
Q 44.578125 48.1875 50.953125 41.515625 
Q 57.328125 34.859375 57.328125 23.390625 
Q 57.328125 12.15625 50.6875 5.359375 
Q 44.046875 -1.421875 33.015625 -1.421875 
Q 20.359375 -1.421875 13.671875 8.265625 
Q 6.984375 17.96875 6.984375 36.375 
Q 6.984375 53.65625 15.1875 63.9375 
Q 23.390625 74.21875 37.203125 74.21875 
Q 40.921875 74.21875 44.703125 73.484375 
Q 48.484375 72.75 52.59375 71.296875 
" id="BitstreamVeraSans-Roman-36"/>
       <path d="M 10.6875 12.40625 
L 21 12.40625 
L 21 0 
L 10.6875 0 
z
" id="BitstreamVeraSans-Roman-2e"/>
      </defs>
      <g transform="translate(472.71999999999997 392.11125000000004)scale(0.12 -0.12)">
       <use xlink:href="#BitstreamVeraSans-Roman-2212"/>
       <use x="83.7890625" xlink:href="#BitstreamVeraSans-Roman-31"/>
       <use x="147.412109375" xlink:href="#BitstreamVeraSans-Roman-2e"/>
       <use x="179.19921875" xlink:href="#BitstreamVeraSans-Roman-36"/>
      </g>
     </g>
    </g>
    <g id="ytick_9">
     <g id="line2d_44">
      <g>
       <use style="stroke:#000000;stroke-width:0.5;" x="468.71999999999997" xlink:href="#m902cbe818e" y="345.6"/>
      </g>
     </g>
     <g id="text_18">
      <!-- −1.2 -->
      <g transform="translate(472.71999999999997 348.91125)scale(0.12 -0.12)">
       <use xlink:href="#BitstreamVeraSans-Roman-2212"/>
       <use x="83.7890625" xlink:href="#BitstreamVeraSans-Roman-31"/>
       <use x="147.412109375" xlink:href="#BitstreamVeraSans-Roman-2e"/>
       <use x="179.19921875" xlink:href="#BitstreamVeraSans-Roman-32"/>
      </g>
     </g>
    </g>
    <g id="ytick_10">
     <g id="line2d_45">
      <g>
       <use style="stroke:#000000;stroke-width:0.5;" x="468.71999999999997" xlink:href="#m902cbe818e" y="302.4"/>
      </g>
     </g>
     <g id="text_19">
      <!-- −0.8 -->
      <defs>
       <path d="M 31.78125 34.625 
Q 24.75 34.625 20.71875 30.859375 
Q 16.703125 27.09375 16.703125 20.515625 
Q 16.703125 13.921875 20.71875 10.15625 
Q 24.75 6.390625 31.78125 6.390625 
Q 38.8125 6.390625 42.859375 10.171875 
Q 46.921875 13.96875 46.921875 20.515625 
Q 46.921875 27.09375 42.890625 30.859375 
Q 38.875 34.625 31.78125 34.625 
M 21.921875 38.8125 
Q 15.578125 40.375 12.03125 44.71875 
Q 8.5 49.078125 8.5 55.328125 
Q 8.5 64.0625 14.71875 69.140625 
Q 20.953125 74.21875 31.78125 74.21875 
Q 42.671875 74.21875 48.875 69.140625 
Q 55.078125 64.0625 55.078125 55.328125 
Q 55.078125 49.078125 51.53125 44.71875 
Q 48 40.375 41.703125 38.8125 
Q 48.828125 37.15625 52.796875 32.3125 
Q 56.78125 27.484375 56.78125 20.515625 
Q 56.78125 9.90625 50.3125 4.234375 
Q 43.84375 -1.421875 31.78125 -1.421875 
Q 19.734375 -1.421875 13.25 4.234375 
Q 6.78125 9.90625 6.78125 20.515625 
Q 6.78125 27.484375 10.78125 32.3125 
Q 14.796875 37.15625 21.921875 38.8125 
M 18.3125 54.390625 
Q 18.3125 48.734375 21.84375 45.5625 
Q 25.390625 42.390625 31.78125 42.390625 
Q 38.140625 42.390625 41.71875 45.5625 
Q 45.3125 48.734375 45.3125 54.390625 
Q 45.3125 60.0625 41.71875 63.234375 
Q 38.140625 66.40625 31.78125 66.40625 
Q 25.390625 66.40625 21.84375 63.234375 
Q 18.3125 60.0625 18.3125 54.390625 
" id="BitstreamVeraSans-Roman-38"/>
      </defs>
      <g transform="translate(472.71999999999997 305.71125)scale(0.12 -0.12)">
       <use xlink:href="#BitstreamVeraSans-Roman-2212"/>
       <use x="83.7890625" xlink:href="#BitstreamVeraSans-Roman-30"/>
       <use x="147.412109375" xlink:href="#BitstreamVeraSans-Roman-2e"/>
       <use x="179.19921875" xlink:href="#BitstreamVeraSans-Roman-38"/>
      </g>
     </g>
    </g>
    <g id="ytick_11">
     <g id="line2d_46">
      <g>
       <use style="stroke:#000000;stroke-width:0.5;" x="468.71999999999997" xlink:href="#m902cbe818e" y="259.2"/>
      </g>
     </g>
     <g id="text_20">
      <!-- −0.4 -->
      <defs>
       <path d="M 37.796875 64.3125 
L 12.890625 25.390625 
L 37.796875 25.390625 
z
M 35.203125 72.90625 
L 47.609375 72.90625 
L 47.609375 25.390625 
L 58.015625 25.390625 
L 58.015625 17.1875 
L 47.609375 17.1875 
L 47.609375 0 
L 37.796875 0 
L 37.796875 17.1875 
L 4.890625 17.1875 
L 4.890625 26.703125 
z
" id="BitstreamVeraSans-Roman-34"/>
      </defs>
      <g transform="translate(472.71999999999997 262.51125)scale(0.12 -0.12)">
       <use xlink:href="#BitstreamVeraSans-Roman-2212"/>
       <use x="83.7890625" xlink:href="#BitstreamVeraSans-Roman-30"/>
       <use x="147.412109375" xlink:href="#BitstreamVeraSans-Roman-2e"/>
       <use x="179.19921875" xlink:href="#BitstreamVeraSans-Roman-34"/>
      </g>
     </g>
    </g>
    <g id="ytick_12">
     <g id="line2d_47">
      <g>
       <use style="stroke:#000000;stroke-width:0.5;" x="468.71999999999997" xlink:href="#m902cbe818e" y="216.0"/>
      </g>
     </g>
     <g id="text_21">
      <!-- 0.0 -->
      <g transform="translate(472.71999999999997 219.31125)scale(0.12 -0.12)">
       <use xlink:href="#BitstreamVeraSans-Roman-30"/>
       <use x="63.623046875" xlink:href="#BitstreamVeraSans-Roman-2e"/>
       <use x="95.41015625" xlink:href="#BitstreamVeraSans-Roman-30"/>
      </g>
     </g>
    </g>
    <g id="ytick_13">
     <g id="line2d_48">
      <g>
       <use style="stroke:#000000;stroke-width:0.5;" x="468.71999999999997" xlink:href="#m902cbe818e" y="172.8"/>
      </g>
     </g>
     <g id="text_22">
      <!-- 0.4 -->
      <g transform="translate(472.71999999999997 176.11125)scale(0.12 -0.12)">
       <use xlink:href="#BitstreamVeraSans-Roman-30"/>
       <use x="63.623046875" xlink:href="#BitstreamVeraSans-Roman-2e"/>
       <use x="95.41015625" xlink:href="#BitstreamVeraSans-Roman-34"/>
      </g>
     </g>
    </g>
    <g id="ytick_14">
     <g id="line2d_49">
      <g>
       <use style="stroke:#000000;stroke-width:0.5;" x="468.71999999999997" xlink:href="#m902cbe818e" y="129.59999999999997"/>
      </g>
     </g>
     <g id="text_23">
      <!-- 0.8 -->
      <g transform="translate(472.71999999999997 132.91124999999994)scale(0.12 -0.12)">
       <use xlink:href="#BitstreamVeraSans-Roman-30"/>
       <use x="63.623046875" xlink:href="#BitstreamVeraSans-Roman-2e"/>
       <use x="95.41015625" xlink:href="#BitstreamVeraSans-Roman-38"/>
      </g>
     </g>
    </g>
    <g id="ytick_15">
     <g id="line2d_50">
      <g>
       <use style="stroke:#000000;stroke-width:0.5;" x="468.71999999999997" xlink:href="#m902cbe818e" y="86.39999999999998"/>
      </g>
     </g>
     <g id="text_24">
      <!-- 1.2 -->
      <g transform="translate(472.71999999999997 89.71124999999995)scale(0.12 -0.12)">
       <use xlink:href="#BitstreamVeraSans-Roman-31"/>
       <use x="63.623046875" xlink:href="#BitstreamVeraSans-Roman-2e"/>
       <use x="95.41015625" xlink:href="#BitstreamVeraSans-Roman-32"/>
      </g>
     </g>
    </g>
    <g id="ytick_16">
     <g id="line2d_51">
      <g>
       <use style="stroke:#000000;stroke-width:0.5;" x="468.71999999999997" xlink:href="#m902cbe818e" y="43.19999999999999"/>
      </g>
     </g>
     <g id="text_25">
      <!-- 1.6 -->
      <g transform="translate(472.71999999999997 46.51124999999996)scale(0.12 -0.12)">
       <use xlink:href="#BitstreamVeraSans-Roman-31"/>
       <use x="63.623046875" xlink:href="#BitstreamVeraSans-Roman-2e"/>
       <use x="95.41015625" xlink:href="#BitstreamVeraSans-Roman-36"/>
      </g>
     </g>
    </g>
   </g>
  </g>
 </g>
 <defs>
  <clipPath id="p51c3c767b7">
   <rect height="345.6" width="17.28000000000003" x="451.43999999999994" y="43.19999999999999"/>
  </clipPath>
  <clipPath id="p9200543f9f">
   <rect height="345.6" width="357.12" x="72.0" y="43.19999999999999"/>
  </clipPath>
 </defs>
</svg>
